<?xml version="1.0" encoding="UTF-8" standalone="no"?>
<svg
  xmlns="http://www.w3.org/2000/svg"
  width="400"
  height="400"
  viewBox="0 0 400 400"
  version="1.1">
  <g>
    <path
      style="color:#000000"
      d="m 25.936543,0.32718377 c -14.40399,0 -26.00045957,11.59647023 -26.00045957,26.00045723 V 174.32673 c 0,14.40399 11.59646957,26.00046 26.00045957,26.00046 H 173.93565 c 14.40398,0 26.00045,-11.59647 26.00045,-26.00046 V 26.327641 c 0,-14.403987 -11.59647,-26.00045723 -26.00045,-26.00045723 H 102.93587 L 99.936097,-5.6728162 96.93632,0.32718377 Z m 65.33342,10.00662023 -1.49862,1.16375 c -3.39517,2.63582 -79.09245,56.524657 -79.39973,56.524657 -0.1836,0 -0.3263,-0.605837 -0.31832,-1.347718 0.012,-1.093659 7.24313,-6.509462 38.21778,-28.61838 32.60251,-23.270839 38.55361,-27.300939 40.60007,-27.494939 z m -63.70458,0.13746 h 0.61908 l -1.42937,1.0883 c -3.05902,2.32991 -11.95883,8.611621 -15.14635,10.733185 0.98505,-2.254252 2.37137,-4.289499 4.07211,-6.015135 2.56744,-1.88759 5.50824,-3.76493 7.70391,-4.85447 1.33451,-0.45979 2.73309,-0.78227 4.18062,-0.95188 z m 7.53028,0 h 2.08153 l -1.4304,1.0914 c -2.07497,1.5843 -24.07298,17.206141 -24.9597,17.725 -0.51276,0.30006 -0.74931,-0.014 -0.74931,-0.995287 0,-0.02197 0.007,-0.04584 0.008,-0.06821 0.006,-0.05718 0.0143,-0.1135 0.0207,-0.170532 0.27191,-1.183864 2.64617,-3.101759 11.45975,-9.388565 9.45861,-6.746896 11.85561,-8.193806 13.56919,-8.193806 z m 9.00409,0 c 1.15918,0 1.99573,0.1008 1.85829,0.22427 -0.22764,0.20456 -29.39922,21.038186 -33.97206,24.262063 l -1.9482,1.373558 v -1.515152 c 0,-1.296698 2.30096,-3.159173 15.97731,-12.930464 13.47331,-9.626195 16.30729,-11.414275 18.08466,-11.414275 z m 17.98752,0 h 10e-4 c 1.15751,0 1.99154,0.1018 1.85414,0.22634 -0.91696,0.83128 -53.41427,38.141302 -53.66695,38.141302 -0.1744,0 -0.23149,-0.659522 -0.12713,-1.465542 0.1514,-1.169979 5.19525,-5.038954 25.01241,-19.18434 21.21925,-15.14619 25.12742,-17.71776 26.92649,-17.71776 z m 17.98235,0 c 1.15946,0 1.9957,0.1024 1.85828,0.22737 -0.1374,0.125 -16.032,11.486375 -35.3208,25.249082 -19.28885,13.762707 -35.43049,25.313562 -35.87065,25.667658 -0.63792,0.513159 -0.7594101,0.288765 -0.59945,-1.102771 0.1792,-1.556399 3.87106,-4.366208 34.01236,-25.89297 29.1372,-20.809599 34.10358,-24.148369 35.92026,-24.148369 z m 17.965813,0 h 2.088764 l -1.429374,1.09554 c -2.128103,1.63023 -87.027113,62.160934 -87.953203,62.708252 -0.59346,0.350661 -0.7454501,0.0716 -0.59945,-1.098639 0.165,-1.321381 6.94477,-6.388766 43.00095,-32.137543 36.85003,-26.31509 43.09455,-30.56761 44.892313,-30.56761 z m 9.052674,0 h 2.16628 l -3.55844,2.54867 c -1.95726,1.40132 -7.009584,4.975188 -11.227217,7.942665 -7.86387,5.532995 -82.2923,58.740897 -83.73332,59.859856 -0.6329,0.49142 -0.7582401,0.264848 -0.59944,-1.081071 v -0.0011 c 0.1774,-1.50378 5.71365,-5.64018 47.49369,-35.486174 C 99.184796,14.569304 105.18487,10.471194 107.08811,10.471194 Z m 8.95655,0 h 2.06396 l -1.42937,1.08623 c -4.63318,3.51974 -12.40889,8.855613 -17.616484,12.090209 -3.297243,2.048019 -7.500173,5.025746 -9.339993,6.616645 -4.15224,3.590356 -18.85083,14.22674 -28.42821,20.571334 -3.95668,2.621135 -8.543,5.891778 -10.19162,7.268801 -1.64862,1.376997 -11.563,8.616598 -22.03171,16.087891 -17.70974,12.63907 -19.03148,13.470971 -19.00451,11.950682 0.0258,-1.444702 1.88319,-2.949233 16.03622,-12.988345 8.80411,-6.244992 19.64959,-13.996949 24.10083,-17.225804 4.4513,-3.228878 14.7028,-10.607537 22.78102,-16.39795 8.07823,-5.790415 16.5755,-11.884521 18.88358,-13.54128 C 108.95652,13.723614 114.02474,10.471264 116.04466,10.471264 Z m 9.01856,0 h 2.11563 l -3.86642,2.83186 c -4.6684,3.419058 -16.96351,11.546751 -22.46786,14.852827 -2.195884,1.318879 -6.462487,4.508949 -9.481587,7.088966 -7.09112,6.059934 -15.48903,12.112611 -25.45166,18.34408 -4.38485,2.74268 -10.06789,6.793822 -12.62867,9.003064 -4.16586,3.594012 -42.21837,31.209432 -43.00509,31.209432 -0.1754,0 -0.23466,-0.658955 -0.13022,-1.463473 0.1502,-1.158361 4.24371,-4.355069 19.6732,-15.362355 10.71603,-7.644737 21.1024,-15.304268 23.08074,-17.021168 1.97833,-1.716918 6.29126,-4.806835 9.5839,-6.867791 8.55429,-5.354355 22.62742,-15.476849 27.88458,-20.055605 2.47293,-2.153818 7.30982,-5.615288 10.748697,-7.692546 3.43889,-2.077258 9.75725,-6.272483 14.04047,-9.322421 6.28629,-4.47627 8.1959,-5.54487 9.90429,-5.54487 z m 8.95966,0 c 1.15975,0 1.99671,0.1034 1.85931,0.23047 -1.95806,1.80916 -24.89715,17.442134 -28.01687,19.093392 -4.33895,2.296618 -12.910927,8.619453 -19.996697,14.750507 -2.20013,1.903718 -7.86534,5.851033 -12.5894,8.771548 -11.13907,6.886436 -15.12975,9.714051 -21.30204,15.095708 -3.83202,3.341097 -38.60751,28.778852 -43.19009,31.592871 -0.52124,0.32006 -0.74931,0.01 -0.74931,-1.015959 0,-1.2534 2.95527,-3.585802 19.57502,-15.446066 10.76651,-7.683255 22.0236,-16.090939 25.0155,-18.684117 2.9919,-2.593215 7.46926,-5.949748 9.94977,-7.458968 10.02641,-6.100355 21.57884,-14.178361 26.39113,-18.453637 5.5431,-4.924535 10.104707,-8.146753 17.985457,-12.706188 2.80264,-1.621479 9.11542,-5.83373 14.02807,-9.359627 7.30088,-5.239974 9.31655,-6.409934 11.04015,-6.409934 z m 8.99272,0 c 1.1597,0 1.9967,0.1036 1.85931,0.23047 -2.08171,1.9215 -33.08817,23.405111 -35.92335,24.890449 -5.02666,2.633397 -11.791187,7.389436 -17.083187,12.012692 -2.30808,2.016398 -7.4328,5.661992 -11.38947,8.100788 -8.52888,5.256937 -18.16225,12.256223 -23.98095,17.425278 -2.30807,2.05038 -13.3688,10.270156 -24.57935,18.266566 -11.21065,7.996394 -20.74298,14.828243 -21.18319,15.181493 -0.63765,0.51163 -0.7594601,0.28776 -0.59944,-1.10071 0.177,-1.53527 2.60491,-3.45999 20.36669,-16.151971 11.09073,-7.925094 22.06386,-16.098044 24.38506,-18.162185 5.39463,-4.797235 15.42401,-11.952676 23.73186,-16.930215 3.57714,-2.143213 8.96659,-6.004367 11.97549,-8.580344 7.03455,-6.022475 11.603177,-9.286428 18.496007,-13.211585 3.05708,-1.740858 11.46648,-7.395921 18.68722,-12.567696 10.98411,-7.86719 13.47316,-9.40303 15.2373,-9.40303 z m 8.99272,0 c 1.1597,0 1.99568,0.1026 1.85829,0.22944 -2.45574,2.26502 -41.94874,29.718879 -45.38634,31.550497 -2.63061,1.402159 -7.17451,4.393133 -10.097564,6.64765 -2.923063,2.254518 -8.012663,5.911949 -11.309903,8.126625 -8.91453,5.987696 -15.99982,11.261059 -21.74955,16.187115 -4.58582,3.928836 -54.1037,39.773239 -54.94544,39.773239 -0.1874,0 -0.33457,-0.60688 -0.32659,-1.34875 v -10e-4 c 0.012,-1.08497 4.52002,-4.56032 23.0425,-17.762207 12.66529,-9.027152 25.53995,-18.560546 28.61115,-21.186284 6.09981,-5.215017 16.37337,-12.661126 22.97015,-16.648066 2.30806,-1.394955 5.6796,-3.805113 7.49307,-5.356772 5.2156,-4.462595 10.004997,-7.816133 16.786567,-11.754309 3.4621,-2.010498 14.09141,-9.236353 23.62024,-16.056886 14.66999,-10.500452 17.64804,-12.400262 19.43342,-12.400262 z m 8.99686,0 c 1.15732,0 1.99155,0.1028 1.85415,0.22944 -2.32294,2.14184 -50.33761,35.716781 -54.25297,37.937698 -6.85417,3.887857 -26.570937,17.993271 -33.935887,24.277565 -4.24759,3.624338 -59.92316,43.971123 -63.88338,46.294803 -0.51298,0.30099 -0.74931,-0.0112 -0.74931,-0.99012 0,-1.20078 4.30217,-4.50131 26.82005,-20.569269 14.75112,-10.525864 29.92612,-21.720623 33.72194,-24.87804 3.79581,-3.157397 9.73398,-7.729463 13.19608,-10.159578 3.4621,-2.430116 9.53187,-6.75923 13.48857,-9.621109 3.956677,-2.861877 9.249067,-6.321219 11.761557,-7.687378 2.51249,-1.366139 14.7619,-9.763057 27.22104,-18.659309 19.31601,-13.792283 22.9639,-16.174703 24.75816,-16.174703 z m 8.99686,0 c 1.1548,0 1.98741,0.1018 1.85001,0.22634 -0.13739,0.1246 -12.11995,8.691447 -26.6278,19.037578 -25.6553,18.295821 -30.93784,21.907399 -37.16876,25.409278 -4.80519,2.700595 -18.119987,12.38017 -24.291007,17.659883 -3.1267,2.675063 -20.65608,15.551479 -38.95572,28.613217 -18.29965,13.06172 -33.60957,24.00834 -34.02167,24.32614 -0.5552,0.42808 -0.74931,0.17654 -0.74931,-0.96945 0,-1.3578 3.86456,-4.30789 31.62285,-24.13494 17.39296,-12.423324 34.59083,-25.068152 38.21779,-28.099549 8.12883,-6.793509 23.835227,-18.006339 29.075207,-20.756334 2.14297,-1.124659 16.28311,-10.879773 31.42234,-21.678242 23.55572,-16.801661 27.82925,-19.633921 29.62607,-19.633921 z m -115.812987,0.0134 c 0.5841,-0.008 0.9143,0.0416 0.81132,0.14262 -0.1648,0.1616 -10.34892,7.469885 -22.63115,16.239816 -20.6998,14.780426 -22.3297,15.825336 -22.3025,14.311258 0.026,-1.451579 2.27865,-3.232983 20.23337,-16.011411 16.88907,-12.020023 20.59762,-14.416213 22.60222,-14.605813 0.49456,-0.0468 0.93628,-0.0714 1.28674,-0.0754 z m 17.98545,0 c 0.58412,-0.008 0.91329,0.0423 0.81029,0.14366 -0.37468,0.36868 -61.1716,43.782242 -62.1977,44.413782 -0.52124,0.320795 -0.74931,0.012 -0.74931,-1.010793 0,-1.256637 4.26753,-4.521327 29.22507,-22.35727 24.79045,-17.716599 29.58978,-20.920299 31.62388,-21.112899 0.49456,-0.0468 0.93727,-0.0725 1.28777,-0.0765 z m 104.307757,0.93637 c 0.76004,0.2616 1.50092,0.56431 2.21588,0.91157 -10.20841,7.532402 -54.03818,38.246892 -59.87846,41.888881 -11.49017,7.165269 -23.133507,15.470167 -32.627437,23.272971 -4.13196,3.395961 -22.95744,17.215166 -41.8341,30.709214 -31.57809,22.57369 -34.31859,24.40484 -34.29039,22.90193 v -0.001 c 0.0276,-1.4652 3.68814,-4.23923 35.52855,-26.93063 19.52345,-13.913572 37.92197,-27.375205 40.88532,-29.914424 6.63226,-5.683011 19.479187,-14.843988 27.995177,-19.962587 3.50813,-2.108573 18.98733,-12.832115 34.3989,-23.830044 17.25285,-12.311904 24.31862,-17.239451 27.60656,-19.045841 z m 4.93923,2.51767 c 0.67517,0.47297 1.32165,0.98281 1.93166,1.53376 -14.6641,10.546335 -50.29433,35.475473 -55.54074,38.744883 -11.25693,7.015055 -34.801237,23.830807 -46.003367,32.856878 -7.40563,5.967053 -70.68303,51.689815 -71.53561,51.689815 -0.1734,0 -0.23061,-0.65892 -0.12609,-1.46347 0.152,-1.17304 6.54362,-5.99583 32.26363,-24.34784 17.64022,-12.58687 35.95108,-26.005045 40.69206,-29.817279 10.8069,-8.689892 31.931917,-23.786107 40.354087,-28.838522 3.5149,-2.108574 18.99972,-12.832117 34.41131,-23.830046 12.16577,-8.681699 19.26473,-13.689926 23.55306,-16.528179 z m 3.91707,3.603916 c 0.48729,0.58708 0.93865,1.204552 1.35702,1.84588 -9.17828,6.90764 -43.41642,30.842926 -50.94568,35.519244 -5.21069,3.236317 -13.16854,8.601798 -17.68469,11.922775 -4.51612,3.320978 -13.472,9.747134 -19.901614,14.280252 -6.429573,4.533134 -16.276543,11.891365 -21.881853,16.35144 -7.65445,6.090559 -60.59668,44.490099 -65.49465,47.504029 -0.5214,0.3208 -0.74931,0.0138 -0.74931,-1.01182 v -0.001 c 0,-1.26107 4.353,-4.58028 30.117,-22.96602 16.56428,-11.82061 34.19927,-24.761449 39.1893,-28.7579 11.26859,-9.024913 44.524547,-32.775446 53.125397,-37.940801 3.51824,-2.112918 17.80898,-11.992291 31.75721,-21.953161 11.09697,-7.924649 17.47192,-12.412819 21.11187,-14.792881 z m 2.71198,4.276737 c 0.28402,0.606333 0.53746,1.229497 0.76067,1.867585 -1.91024,1.867388 -6.874,5.526164 -18.67481,13.955724 -10.86291,7.759592 -22.93506,15.991127 -26.82728,18.292407 -7.45685,4.408874 -17.23856,11.374711 -23.26367,16.567446 -1.97834,1.705037 -5.21607,3.990776 -7.19439,5.078757 -5.20738,2.863836 -30.328567,20.910155 -40.383037,29.010084 -4.73547,3.81491 -19.84301,14.9571 -33.57208,24.76022 -13.72904,9.80314 -25.86132,18.4981 -26.9606,19.3218 l -1.9988401,1.49759 0.2005001,-1.7384 c 0.1776,-1.54102 3.43775,-4.05192 28.7331,-22.14023 15.69269,-11.2216 32.41861,-23.5246 37.16876,-27.33887 9.28733,-7.457475 29.405597,-22.015899 34.743077,-25.141594 1.79787,-1.052839 5.15608,-3.456117 7.46414,-5.341271 6.10046,-4.982675 15.19526,-11.315529 23.08177,-16.073421 3.79179,-2.28758 15.93141,-10.623192 26.97714,-18.522884 10.11244,-7.232204 18.02941,-12.864386 19.74555,-14.054943 z m 1.60816,5.437389 c 0.0181,0 0.0342,0.01122 0.0496,0.02584 0.0457,0.301383 0.0826,0.605844 0.11472,0.911572 -0.008,0.166513 -0.0221,0.344157 -0.0465,0.5333 -0.15081,1.170539 -4.1747,4.313667 -19.67321,15.365455 -10.71599,7.641473 -20.80326,14.599739 -22.41618,15.463641 -5.56831,2.982455 -13.2735,8.386288 -19.24842,13.498901 -3.29723,2.821397 -7.56863,6.013906 -9.49088,7.093103 -5.83498,3.275855 -13.9526,8.644886 -16.38658,10.838604 -1.26458,1.139717 -5.671127,4.303618 -9.792687,7.030059 -9.20099,6.086519 -16.22391,11.262299 -26.21336,19.322829 -6.92624,5.58879 -55.37519,40.60627 -56.18153,40.60627 -0.1848,0 -0.32943,-0.60688 -0.32143,-1.34876 0.012,-1.08701 4.91265,-4.84067 25.24702,-19.3342 13.87799,-9.8917 29.58582,-21.45573 34.90636,-25.69763 5.32053,-4.24189 13.01342,-10.04198 17.09558,-12.889119 4.08214,-2.847162 10.826253,-7.663663 14.987187,-10.705284 4.16094,-3.041638 9.58838,-6.6245 12.06127,-7.962295 2.47294,-1.337823 7.05924,-4.601232 10.19162,-7.251233 7.39913,-6.25967 14.77871,-11.535155 20.34913,-14.544834 2.45441,-1.326091 13.462,-8.833961 24.46153,-16.684234 10.99951,-7.850232 20.13775,-14.271983 20.30675,-14.271983 z m -0.16019,7.130307 c 0.30032,-0.006 0.36668,0.206622 0.3607,0.536401 -0.0246,1.439639 -2.19655,3.169934 -18.97867,15.115342 -10.42265,7.418774 -21.1087,14.721907 -23.74633,16.229485 -2.63762,1.507541 -7.18703,4.735438 -10.111,7.173715 -7.15884,5.969713 -14.41528,11.109758 -18.7761,13.299432 -4.5679,2.293682 -10.25137,6.320006 -15.02646,10.647403 -2.05374,1.86118 -6.258207,4.893569 -9.342067,6.737569 -8.21647,4.91304 -18.0907,11.9533 -29.28707,20.88139 -7.66672,6.11351 -49.99998,36.92716 -53.80442,39.16346 -0.51304,0.30154 -0.74931,-0.009 -0.74931,-0.98598 v -0.001 c 0,-1.19378 3.87608,-4.19652 23.69466,-18.35442 13.0322,-9.3099 27.23645,-19.78694 31.56497,-23.28331 9.74359,-7.86989 21.85092,-16.61887 28.63182,-20.69019 2.82337,-1.695199 6.886737,-4.603269 9.029927,-6.46058 5.18412,-4.492615 9.0216,-7.160311 14.08905,-9.796806 4.24988,-2.211122 10.30318,-6.629664 19.37865,-14.142797 2.7451,-2.272558 6.86104,-5.113751 9.14672,-6.314852 2.28568,-1.201103 13.192,-8.633304 24.23519,-16.514739 14.54615,-10.38143 18.61677,-13.214889 19.68974,-13.239489 z m 0.3886,5.376412 v 1.513084 c 0,1.301598 -2.738,3.462436 -19.63393,15.494649 -10.79842,7.689969 -21.11737,14.981656 -22.93087,16.204677 -1.81348,1.223019 -7.34384,5.215937 -12.28968,8.872835 -4.94586,3.656899 -10.74593,7.607193 -12.88912,8.77775 -6.66188,3.638599 -11.84134,7.239061 -16.29976,11.33056 -4.51252,4.14113 -9.300777,7.52967 -18.071247,12.78887 -7.19747,4.31599 -18.7095,12.61895 -29.17545,21.04263 -6.88662,5.54281 -26.45566,19.84013 -46.61107,34.05473 l -1.9482,1.37356 v -1.51308 c 0,-1.30409 3.00033,-3.65893 21.73096,-17.05321 11.95254,-8.5472 25.37791,-18.48386 29.83381,-22.08132 10.18213,-8.22063 22.28962,-16.81951 30.99963,-22.01827 3.70051,-2.20873 8.556327,-5.68984 10.791067,-7.73492 5.32171,-4.870055 9.13794,-7.622036 15.24453,-10.993633 5.66514,-3.127859 12.68153,-8.005651 20.59201,-14.316427 2.9675,-2.367415 6.7436,-5.084097 8.39224,-6.036834 1.64862,-0.952737 10.95612,-7.404807 20.68296,-14.339164 9.72685,-6.93435 18.5623,-13.229522 19.63392,-13.987762 z m -0.38654,7.673942 c 0.1826,-0.004 0.26534,0.0794 0.28732,0.223242 0.1104,0.724119 -0.0246,1.526495 -0.29972,1.782835 -2.73462,2.547118 -63.54007,45.249936 -67.50072,47.404817 -5.81584,3.164209 -8.20531,4.894019 -14.83113,10.734209 -5.69321,5.01817 -12.725237,10.02119 -21.881857,15.57113 -9.32987,5.65497 -21.83909,14.56944 -28.3848,20.2282 -2.8528,2.46622 -14.56216,11.19719 -26.02009,19.40139 -13.56325,9.71172 -18.3352,13.07001 -19.97396,13.69217 -0.15226,-0.47475 -0.28591,-0.95826 -0.40307,-1.44797 1.18641,-1.60474 5.4549,-4.7541 19.42929,-14.68333 10.90528,-7.74851 22.3891,-16.20738 25.51986,-18.7978 7.89669,-6.5338 19.06996,-14.73148 26.09967,-19.1492 13.45505,-8.4556 20.180957,-13.15677 24.791237,-17.33123 5.1975,-4.70613 11.18262,-8.945157 16.19021,-11.464919 1.69222,-0.851493 17.47409,-11.833383 35.0707,-24.403651 24.45495,-17.469146 30.62842,-21.736093 31.90706,-21.759893 z m 0.0517,5.597587 c 0.1842,0 0.32838,0.607905 0.3204,1.349786 -0.012,1.090859 -5.83079,5.492225 -30.42396,23.015627 -16.7257,11.917568 -32.70421,22.931213 -35.50684,24.472903 -5.86954,3.22878 -9.96003,6.20987 -15.5856,11.36054 -4.28536,3.92359 -18.076377,13.63937 -29.005957,20.43387 -8.4146,5.23106 -11.36018,7.36509 -17.64749,12.78887 -3.72292,3.21161 -37.72796,27.93029 -48.26367,35.20402 -0.39889,-0.58085 -0.76906,-1.18228 -1.10588,-1.80558 2.75582,-2.33086 8.52581,-6.56584 19.58638,-14.46008 11.87003,-8.47198 23.7399,-17.28426 26.3777,-19.58328 6.12919,-5.34203 14.20391,-11.11873 23.68018,-16.94055 9.6018,-5.89841 21.988887,-14.73652 26.981277,-19.25152 5.1613,-4.66774 8.86985,-7.32482 14.73914,-10.560589 2.6684,-1.4711 18.50193,-12.428983 35.18542,-24.349912 16.68348,-11.920885 30.4847,-21.674105 30.6689,-21.674105 z m 0.0527,7.186119 c 0.1112,0.01 0.16796,0.06662 0.18396,0.16122 0.11121,0.663579 -0.29339,1.673276 -0.89916,2.24276 -2.56467,2.410911 -57.74283,41.344477 -60.75076,42.865557 -5.12852,2.59344 -11.23211,6.92238 -16.58399,11.76154 -2.69151,2.43365 -7.87162,6.26857 -11.5104,8.52144 -3.638777,2.25286 -9.438727,6.33331 -12.889127,9.06817 -3.45039,2.73485 -7.77787,5.83311 -9.61697,6.88536 -1.83914,1.05224 -5.30219,3.54991 -7.69565,5.55004 -2.76367,2.30953 -38.29658,28.02434 -52.8391,38.32424 -0.60918,-0.51574 -1.18714,-1.06717 -1.73013,-1.65157 3.67685,-2.80501 9.72419,-7.17124 19.79309,-14.35157 13.76594,-9.81679 27.72621,-20.09369 31.0234,-22.83683 3.29723,-2.74313 8.63605,-6.5945 11.86387,-8.55864 3.22779,-1.96415 7.54443,-4.89335 9.59216,-6.51019 2.04774,-1.61683 6.89843,-5.01885 10.778663,-7.55922 3.880244,-2.54037 9.477694,-6.75254 12.439544,-9.36066 5.9221,-5.21475 10.37969,-8.38136 15.91013,-11.30369 1.99738,-1.05546 16.97011,-11.453951 33.27235,-23.106576 22.45842,-16.052987 28.5816,-20.246787 29.65812,-20.141387 z m -0.12506,5.67303 c 0.27662,0.008 0.40721,0.377042 0.40721,1.133781 0,1.259681 -4.04282,4.362192 -27.75642,21.292736 -15.26607,10.899331 -30.03645,21.07313 -32.82277,22.60945 -5.96254,3.28762 -9.83154,6.02545 -14.35777,10.15854 -1.81348,1.65598 -6.76816,5.1646 -11.01017,7.7959 -4.242024,2.63129 -11.256877,7.6611 -15.587667,11.17864 -4.33082,3.51754 -21.4975,16.18701 -38.14854,28.15433 -16.92532,12.16445 -24.81799,17.7376 -28.83439,20.19616 -0.71958,-0.33994 -1.41368,-0.72299 -2.08256,-1.14308 4.57242,-3.30617 13.14793,-9.45428 23.12312,-16.56641 30.1011,-21.46169 34.17865,-24.44611 44.3652,-32.48895 4.12256,-3.25496 10.86667,-8.01086 14.987197,-10.56679 4.12058,-2.55592 9.23731,-6.2445 11.37087,-8.19794 4.89345,-4.48037 10.07584,-8.1825 14.75877,-10.54198 2.00756,-1.01151 16.44818,-10.975339 32.09001,-22.143326 15.64186,-11.167994 28.76941,-20.510401 29.17235,-20.759439 0.12539,-0.0776 0.23336,-0.11362 0.32556,-0.111622 z m 0.17053,6.324156 c 0.17399,0 0.23039,0.659642 0.12609,1.465541 -0.1516,1.171739 -5.59507,5.326809 -27.16731,20.737736 -14.83754,10.599774 -28.59548,20.092544 -30.57381,21.095334 -4.52318,2.29271 -7.86489,4.53123 -13.18885,8.83356 -2.30806,1.86516 -7.02926,5.23454 -10.49134,7.48687 -8.06555,5.24718 -16.164407,11.27017 -20.494857,15.24143 -1.8752,1.71967 -16.03449,12.15149 -31.46472,23.18306 -20.73095,14.82129 -26.83057,19.01612 -29.24056,19.86957 -0.76174,-0.10514 -1.51142,-0.2483 -2.24276,-0.43615 0.70722,-0.561 13.74629,-9.93858 29.48758,-21.20488 15.9916,-11.44544 31.23402,-22.71287 33.8718,-25.03928 2.6378,-2.3264 9.802813,-7.54747 15.922537,-11.60341 6.11969,-4.05594 11.47837,-7.79979 11.9083,-8.31783 1.458,-1.7568 8.84161,-6.91934 13.87925,-9.70586 2.75838,-1.52576 17.24146,-11.51049 32.18405,-22.188807 14.94262,-10.67833 27.31062,-19.416884 27.4846,-19.416884 z m -0.12299,7.196454 c 0.27014,-0.0016 0.33473,0.181179 0.33073,0.464051 -0.0254,1.456699 -2.74419,3.568607 -25.25321,19.617397 -13.87351,9.891709 -27.68555,19.355369 -30.69474,21.030219 -6.89986,3.84028 -36.257017,24.81319 -43.319287,30.94795 -2.92404,2.53999 -16.10778,12.31949 -29.29638,21.73198 -20.28946,14.48005 -24.2975,17.11316 -26.04799,17.11316 -1.18599,0 -1.82512,-0.21769 -1.49862,-0.51057 0.31318,-0.28101 12.30452,-8.87722 26.64744,-19.10269 14.34301,-10.22548 27.83944,-20.18636 29.99194,-22.13713 3.5644,-3.23036 13.709647,-10.7647 21.264847,-15.79127 1.64863,-1.09684 5.96519,-4.20771 9.59216,-6.91326 3.62698,-2.70556 8.75276,-6.09401 11.39051,-7.53029 2.63782,-1.43628 16.59903,-11.04286 31.02444,-21.348539 19.69082,-14.067374 24.6971,-17.563008 25.86816,-17.571008 z m 0.0299,5.629622 v 0.0011 c 0.23766,0.012 0.3297,0.377354 0.3297,1.166847 0,1.355941 -3.08726,3.751313 -24.72922,19.193648 -13.60109,9.70485 -26.93415,18.85871 -29.62917,20.34085 -2.69502,1.48215 -9.11947,5.7588 -14.27612,9.50433 -5.15665,3.74552 -12.84884,9.23741 -17.09351,12.20492 -4.244724,2.96751 -10.043137,7.41897 -12.884997,9.89189 -2.84186,2.47294 -14.11647,10.90383 -25.05478,18.73476 -16.80208,12.02865 -20.21093,14.23685 -21.96867,14.23685 -1.19133,0 -1.83713,-0.21621 -1.51101,-0.5085 0.31324,-0.28075 10.41643,-7.54734 22.45132,-16.1468 12.03489,-8.59945 23.76993,-17.29615 26.07797,-19.32697 5.76878,-5.0758 37.884997,-28.00612 43.835017,-31.29728 3.53932,-1.95774 46.88199,-32.278714 54.03283,-37.799209 0.17359,-0.134 0.31262,-0.202332 0.42064,-0.19638 z m -0.0868,6.61768 c 0.28289,0.006 0.41652,0.364748 0.41652,1.097607 0,1.194121 -3.8441,4.169639 -23.53033,18.208688 -12.94165,9.22923 -25.4194,17.80314 -27.72748,19.05515 -5.56759,3.02016 -14.25675,9.10991 -20.61991,14.44872 -2.83848,2.38152 -7.45376,5.6832 -10.25569,7.33908 -6.332,3.74208 -11.645877,7.62125 -17.083187,12.46537 -2.30808,2.05626 -11.20441,8.7559 -19.76829,14.89004 -13.04966,9.34704 -15.90774,11.1528 -17.65472,11.1528 -1.19042,0 -1.83977,-0.21772 -1.51515,-0.5085 0.31322,-0.2801 8.21372,-5.95658 17.55654,-12.61317 9.34279,-6.65661 19.32108,-14.14207 22.1733,-16.63566 2.85222,-2.49359 8.021863,-6.38374 11.488697,-8.64546 3.46686,-2.26173 8.73099,-6.00395 11.6985,-8.31473 8.44419,-6.57543 18.83935,-13.77087 22.78102,-15.76957 1.97834,-1.00314 14.25279,-9.42779 27.27686,-18.72132 13.02409,-9.293529 24.01735,-17.095045 24.4295,-17.337423 0.1282,-0.0754 0.23945,-0.11362 0.33382,-0.11162 z m 0.0899,6.335526 c 0.1798,0 0.32013,0.60687 0.31213,1.34876 -0.012,1.084129 -4.34145,4.432699 -22.06272,17.060429 -12.12681,8.64128 -24.32695,16.96552 -27.11253,18.49705 -5.74735,3.15989 -9.05291,5.53552 -15.89462,11.42771 -6.53782,5.63054 -9.97335,8.08567 -15.4316,11.02981 -5.80948,3.1336 -12.969727,8.22852 -18.406107,13.09583 -2.29615,2.05581 -9.22773,7.3653 -15.40266,11.79979 -9.27663,6.6619 -11.59011,8.06255 -13.317,8.06255 -1.1997,0 -1.84724,-0.2178 -1.52033,-0.5116 0.31319,-0.2815 6.09985,-4.44647 12.85916,-9.25731 6.75931,-4.81083 14.84167,-10.93415 17.96064,-13.60639 5.803,-4.97182 12.068717,-9.361 19.507837,-13.6653 2.30808,-1.33546 6.62468,-4.49361 9.59218,-7.01663 7.21337,-6.13258 14.19283,-11.1426 18.62727,-13.37177 2.00208,-1.00642 14.06215,-9.26936 26.8004,-18.36166 12.73823,-9.09266 23.30813,-16.531269 23.48795,-16.531269 z m -0.0785,7.299809 c 0.58343,-0.054 0.54922,0.4527 0.2129,1.32911 -0.44508,1.15984 -42.74828,31.13712 -46.86841,33.21241 -1.97836,0.99649 -5.97134,3.85382 -8.87284,6.34896 -6.85255,5.89286 -17.96802,13.83722 -24.39952,17.43975 -5.88843,3.29832 -9.669754,6.02431 -16.785527,12.0995 -2.80264,2.39281 -8.33291,6.65485 -12.28865,9.47125 -5.68923,4.05059 -7.62513,5.12114 -9.26247,5.12114 -1.17338,0 -1.82352,-0.219 -1.50068,-0.5054 0.31324,-0.27788 4.48148,-3.28523 9.26247,-6.68382 4.78098,-3.3986 10.17751,-7.53481 11.99099,-9.19116 4.95071,-4.52179 11.941977,-9.55644 18.062967,-13.00695 6.83299,-3.85191 12.07337,-7.60178 21.00852,-15.03473 3.8495,-3.20229 8.93207,-6.83874 11.29439,-8.08012 2.36234,-1.24136 14.18548,-9.32657 26.27331,-17.96788 14.85323,-10.6182 20.38148,-14.41408 21.87255,-14.55206 z m -0.007,5.55727 c 0.284,1.5e-4 0.41341,0.36679 0.41341,1.13688 0,1.25322 -2.96155,3.59303 -19.59672,15.47398 -10.77821,7.69786 -21.09819,14.90032 -22.93191,16.00728 -1.8337,1.10696 -5.08738,3.43553 -7.23056,5.1728 -6.20642,5.03086 -25.70771,18.7867 -29.97437,21.14391 -2.1432,1.18408 -6.05522,3.96164 -8.693,6.17119 -2.637814,2.20956 -8.018237,6.344 -11.956887,9.18806 -5.74608,4.14923 -7.57656,5.17075 -9.26248,5.17075 -1.18956,0 -1.85415,-0.21951 -1.53169,-0.5054 0.31326,-0.27773 3.80719,-2.81295 7.76386,-5.63376 3.95672,-2.8208 8.68629,-6.43772 10.50995,-8.03775 5.223917,-4.58324 7.766847,-6.42597 12.271077,-8.8935 5.10042,-2.79412 20.99755,-14.02498 27.57659,-19.482 2.63777,-2.18792 6.41493,-4.89545 8.39328,-6.0172 1.97834,-1.12175 12.49957,-8.40248 23.38046,-16.17781 10.88089,-7.7753 20.11995,-14.34344 20.53206,-14.5965 0.1304,-0.08 0.24233,-0.11992 0.33693,-0.11988 z m 0.185,6.32622 c 0.169,0 0.22224,0.65827 0.11782,1.46244 -0.1522,1.17311 -6.94431,6.28787 -34.36066,25.87127 -18.79426,13.42464 -37.13951,26.47758 -40.76647,29.00802 -3.62693,2.53043 -10.34943,7.34519 -14.938614,10.69908 -6.848203,5.00488 -8.723623,6.09782 -10.461363,6.09782 -1.1923,0 -1.86732,-0.21827 -1.54719,-0.50127 0.31322,-0.27643 3.53746,-2.60758 7.16441,-5.179 3.626963,-2.57142 7.942527,-5.81187 9.591147,-7.20059 1.6486,-1.38872 4.75144,-3.5933 6.89466,-4.89996 3.1955,-1.94822 20.33041,-14.05784 34.47125,-24.36128 8.66811,-6.31628 43.57119,-30.99653 43.83501,-30.99653 z m -0.0413,7.34115 c 0.1858,0.0122 0.24378,0.13466 0.23978,0.32143 -0.0264,1.46476 -4.54822,4.85165 -44.59569,33.40361 -37.85006,26.9853 -44.91435,31.80259 -46.880814,31.96391 -1.435423,0.11774 -2.087313,-0.0206 -1.715663,-0.36276 0.32974,-0.30331 21.439677,-15.42103 46.910797,-33.59378 37.144,-26.50092 44.74073,-31.81805 46.04159,-31.73241 z m -0.0599,5.4839 c 0.23784,0.0114 0.32969,0.3779 0.32969,1.16685 0,1.36254 -4.78737,4.97173 -40.01716,30.17281 -34.09125,24.38663 -40.37099,28.65863 -42.41391,28.86022 -1.53732,0.15168 -2.18268,0.0326 -1.79833,-0.33486 0.32972,-0.31526 19.0785,-13.74056 41.66459,-29.83174 22.58604,-16.09118 41.40237,-29.5161 41.81447,-29.83484 0.1736,-0.1343 0.31244,-0.20261 0.42065,-0.1974 z m -0.0103,6.56084 v 0.001 c 0.28634,-0.0146 0.34524,0.36019 0.23564,1.23713 -0.1644,1.31622 -5.91605,5.65258 -35.86444,27.04121 -30.47024,21.76085 -35.96973,25.47336 -37.73823,25.47336 -1.18796,0 -1.82692,-0.21805 -1.50069,-0.51159 0.71376,-0.64118 73.41806,-52.45914 74.50392,-53.10059 0.1484,-0.0876 0.26839,-0.13576 0.3638,-0.14056 z m 0.004,6.3934 c 0.184,0 0.32838,0.60584 0.3204,1.34771 -0.012,1.0908 -5.96387,5.59302 -31.10712,23.53033 -26.20586,18.69539 -31.45635,22.21061 -33.40775,22.3707 -1.43376,0.11762 -2.08637,-0.0194 -1.71566,-0.36069 1.13868,-1.04787 65.57651,-46.88805 65.91013,-46.88805 z m -0.061,7.17474 c 0.1864,-0.0196 0.27668,0.043 0.29766,0.16846 0.111,0.66142 -0.1598,1.55841 -0.60048,1.99265 -0.44062,0.43422 -12.53527,9.16694 -26.87792,19.40655 -22.55364,16.10163 -26.36084,18.61312 -28.17603,18.58592 -1.97964,-0.0297 -2.0311,-0.0802 -0.90021,-0.8847 0.65946,-0.4691 13.60818,-9.7287 28.77548,-20.57753 20.15038,-14.41315 26.17698,-18.55421 27.4815,-18.69135 z m -0.0186,5.68441 c 0.28402,-5.3e-4 0.41237,0.36312 0.41237,1.13068 0,1.24968 -3.32306,3.84985 -22.03171,17.24441 -18.4537,13.212 -22.42093,15.8129 -24.42949,16.0114 -1.53382,0.1516 -2.1818,0.0308 -1.79834,-0.33486 0.59528,-0.56774 46.07535,-33.04955 47.51024,-33.93174 0.13039,-0.0801 0.24213,-0.11968 0.33693,-0.11988 z m 0.17259,6.32312 c 0.1754,0 0.23359,0.6601 0.1292,1.46554 -0.14981,1.15664 -3.90645,4.1165 -17.87383,14.08698 -14.81813,10.57773 -18.02008,12.62455 -19.75382,12.62455 -1.18299,0 -1.82472,-0.21711 -1.49965,-0.5085 1.17057,-1.0481 38.69197,-27.66857 38.9981,-27.66857 z m -0.13436,7.01248 c 0.30026,0.009 0.35224,0.26145 0.34624,0.64492 -0.024,1.43849 -1.60748,2.75743 -13.12787,10.92853 -10.59571,7.51524 -13.54266,9.32899 -15.4099,9.48261 -1.42342,0.11708 -2.07907,-0.0214 -1.70946,-0.35966 0.32973,-0.30181 7.2761,-5.3056 15.43678,-11.1187 10.43457,-7.43287 13.56323,-9.60366 14.46421,-9.5777 z m -0.12712,5.85494 c -0.30217,1.26803 -0.72388,2.48812 -1.25367,3.64835 -1.29323,1.13359 -3.46192,2.74523 -7.07759,5.33507 -7.14958,5.12072 -9.22701,6.32623 -10.90992,6.32623 -1.18142,0 -1.83306,-0.21748 -1.50999,-0.5054 0.31322,-0.27871 4.88609,-3.56169 10.16165,-7.29361 5.27557,-3.73191 9.92933,-7.04359 10.34148,-7.35975 0.0929,-0.0712 0.1745,-0.11882 0.24804,-0.1509 z" />
    <animateTransform
      id="ani_init"
      attributeName="transform"
      begin="1s"
      dur="1s"
      type="translate"
      to="100 100"
      fill="freeze"
      repeatCount="0" />
    <animateTransform
      id="ani"
      attributeName="transform"
      begin="ani_init.end;ani.end"
      dur="5s"
      type="translate"
      values="95 100 ; 100 100 ; 95 100"
      repeatCount="infinite" />
  </g>
  <g>
    <path
      style="color:#000000"
      d="m 225.93655,199.90345 c -14.40399,0 -26.00046,11.59647 -26.00046,26.00046 V 373.903 c 0,14.40399 11.59647,26.00045 26.00046,26.00045 h 147.99906 c 14.40402,0 26.00047,-11.59646 26.00047,-26.00045 V 225.90391 c 0,-14.40399 -11.59645,-26.00046 -26.00047,-26.00046 h -70.99977 l -2.99976,-6 -2.99976,6 z m 65.22696,10.01282 -1.49964,1.16272 c -3.39496,2.63566 -79.08729,56.52156 -79.39457,56.52156 -0.1836,0 -0.32634,-0.60692 -0.31834,-1.34876 0.012,-1.09358 7.24304,-6.50776 38.21573,-28.61527 32.60051,-23.2694 38.55168,-27.29897 40.598,-27.49288 z m 17.98338,0.0434 -2.87942,2.09186 c -13.2148,9.60395 -23.44175,16.93103 -55.56864,39.81149 -20.27673,14.44089 -37.74259,26.87459 -38.81413,27.63136 l -1.9482,1.37667 v -1.51826 c 0,-1.32546 5.97738,-5.78779 47.20742,-35.24743 40.77044,-29.13125 47.53429,-33.75976 49.60519,-33.93898 z m -81.62388,0.093 h 0.5581 l -1.42936,1.0883 c -3.01608,2.29718 -11.70241,8.43142 -15.00269,10.6381 1.02992,-2.32535 2.48712,-4.41509 4.27674,-6.16912 2.42364,-1.75864 5.11785,-3.47365 7.19747,-4.52375 1.39934,-0.50384 2.87318,-0.85146 4.39974,-1.03353 z m 7.46931,0 h 2.08048 l -1.42936,1.0914 c -2.07484,1.58418 -24.07202,17.20515 -24.95866,17.72397 -0.37594,0.21997 -0.60226,0.10623 -0.6966,-0.3545 0.0286,-0.41897 0.0704,-0.83406 0.124,-1.2454 0.64676,-1.22785 3.34458,-3.33744 11.31197,-9.02063 9.45799,-6.74649 11.85465,-8.19484 13.56815,-8.19484 z m 9.00409,0 c 1.15912,0 1.9946,0.10082 1.85724,0.22427 -0.22764,0.20456 -29.39639,21.03632 -33.96895,24.26 l -1.9482,1.37356 v -1.51411 c 0,-1.29663 2.30078,-3.15876 15.97627,-12.92944 13.47249,-9.62562 16.3064,-11.41428 18.08364,-11.41428 z m 17.98648,0 c 1.15744,0 1.9915,0.1018 1.85414,0.22634 -0.91692,0.83125 -53.41113,38.13924 -53.66385,38.13924 -0.1742,0 -0.2313,-0.65956 -0.1272,-1.46554 0.1514,-1.16991 5.19542,-5.03776 25.01138,-19.18228 21.21792,-15.14524 25.12654,-17.71776 26.92547,-17.71776 z m 17.98029,0 c 1.15936,0 1.99564,0.10244 1.85828,0.22737 -0.1374,0.12494 -16.03009,11.4862 -35.31771,25.24805 -19.2876,13.76186 -35.42947,25.31151 -35.86963,25.6656 -0.6379,0.5131 -0.75952,0.28971 -0.59944,-1.10174 0.179,-1.5563 3.8719,-4.36757 34.01133,-25.89297 29.13535,-20.80829 34.10061,-24.14629 35.91717,-24.14629 z m 17.9658,0 h 2.08772 l -1.42936,1.09554 c -2.12794,1.63014 -87.022,62.15685 -87.94804,62.70412 -0.59322,0.35065 -0.74558,0.0716 -0.59946,-1.09864 0.165,-1.32129 6.94386,-6.3873 42.99786,-32.13444 36.84771,-26.31398 43.0936,-30.56658 44.89128,-30.56658 z m 18.00094,0 c 1.15972,0 1.99668,0.0943 1.85932,0.2098 -0.1374,0.11548 -3.35213,2.44444 -7.14373,5.17488 -3.79162,2.73042 -9.05159,6.78105 -11.68921,9.00099 -2.63764,2.21993 -6.75351,5.13771 -9.14567,6.48539 -4.88728,2.75336 -24.6315,16.75571 -30.96037,21.95626 -2.27612,1.87031 -5.13278,3.90796 -6.34792,4.52788 -1.21513,0.61992 -11.29017,7.60711 -22.38827,15.52772 -18.70957,13.35283 -20.17547,14.28266 -20.14967,12.77544 0.0246,-1.44003 2.18384,-3.15714 18.92287,-15.0492 10.39255,-7.38328 20.56378,-14.499 22.60221,-15.81297 2.03842,-1.31396 4.92008,-3.38534 6.40374,-4.60333 4.34023,-3.56306 25.26247,-18.35108 30.58931,-21.62037 2.689,-1.65034 6.41525,-4.31401 8.28063,-5.92004 1.86536,-1.60604 6.46636,-5.11032 10.22469,-7.7866 5.43606,-3.87097 7.26466,-4.86585 8.94207,-4.86585 z m 8.9948,0 c 1.15839,0 1.99357,0.0988 1.85621,0.21911 -0.1374,0.12034 -3.74327,2.72 -8.01293,5.77741 -4.26965,3.05742 -10.06913,7.5779 -12.88809,10.0459 -5.73867,5.02419 -9.74473,7.84171 -15.91116,11.19103 -5.44016,2.95484 -17.10777,11.35082 -23.96648,17.24545 -2.97654,2.55813 -7.66725,5.93736 -10.42415,7.51064 -2.7569,1.57329 -14.03407,9.26823 -25.05996,17.09868 -11.02588,7.83044 -20.18522,14.23685 -20.35428,14.23685 -0.169,0 -0.22218,-0.66246 -0.1178,-1.47175 0.151,-1.17061 4.16798,-4.30657 19.64635,-15.33858 10.70079,-7.62686 21.35564,-14.91235 23.67811,-16.19021 2.32248,-1.27786 6.65068,-4.37604 9.61801,-6.88536 7.16004,-6.05489 21.46166,-16.1758 28.1874,-19.94709 2.97437,-1.66781 7.96461,-5.23077 11.08975,-7.91785 3.12511,-2.68709 9.02815,-7.29051 13.11752,-10.22986 5.98406,-4.30118 7.84644,-5.34437 9.54154,-5.34437 z m 8.97207,0 h 2.08771 l -1.42937,1.09037 c -0.78628,0.59977 -5.7287,4.15749 -10.98225,7.90545 -5.25354,3.74796 -11.86227,8.81133 -14.68645,11.25202 -6.73109,5.81709 -11.24013,9.0264 -18.29446,13.02141 -6.0897,3.44874 -10.07773,6.3439 -16.51371,11.98996 -5.34159,4.68601 -14.30398,11.01766 -20.15378,14.23787 -2.67743,1.47387 -13.3333,8.73082 -23.67915,16.12614 -10.34584,7.39532 -19.14741,13.65303 -19.55953,13.90611 -0.52118,0.32004 -0.7493,0.0108 -0.7493,-1.01595 0,-1.25303 2.9291,-3.56624 19.37349,-15.30138 10.65555,-7.60408 21.6476,-15.07632 24.42741,-16.60466 5.89592,-3.24153 9.22803,-5.64324 18.24281,-13.14957 7.78039,-6.47848 12.83958,-10.07179 18.58386,-13.20125 5.88139,-3.20416 12.44997,-7.87742 17.70018,-12.59353 2.46378,-2.21312 8.76853,-7.09321 14.01155,-10.84378 7.77591,-5.56252 9.91797,-6.81921 11.62099,-6.81921 z m 8.99065,0 h 2.08878 l -1.4294,1.09037 c -0.78628,0.59945 -7.90426,5.71684 -15.81711,11.37294 -7.91287,5.6561 -16.54466,12.19042 -19.18226,14.52003 -5.07669,4.48384 -13.33977,10.38759 -17.45732,12.47364 -1.35862,0.68831 -5.26988,3.57839 -8.69197,6.42235 -5.66036,4.70409 -18.66265,13.67425 -27.22312,18.78126 -2.73204,1.62989 -41.62546,29.08071 -44.54092,31.43681 -0.63854,0.516 -0.75968,0.29292 -0.59944,-1.10381 0.1774,-1.54664 2.56464,-3.43598 20.47832,-16.21295 11.15227,-7.95436 22.48148,-15.69095 25.17674,-17.19273 6.40221,-3.56728 16.14529,-10.49851 23.99644,-17.07181 3.45925,-2.89621 8.40069,-6.44237 10.98123,-7.88065 6.20053,-3.45586 12.65967,-8.0701 18.17976,-12.98524 2.47278,-2.20177 10.67357,-8.42344 18.22418,-13.82653 11.44739,-8.19155 14.07475,-9.82368 15.81609,-9.82368 z m 9.01131,0 c 1.15914,0 1.99464,0.10234 1.85728,0.22737 -0.1374,0.12506 -9.01679,6.48317 -19.73214,14.12936 -10.71533,7.64622 -22.33408,16.32109 -25.81958,19.27736 -3.48548,2.95627 -9.33619,7.45532 -13.00179,9.99835 -3.66557,2.54302 -9.31143,6.55302 -12.54598,8.91004 -3.23454,2.35702 -9.92694,6.81422 -14.87247,9.90533 -4.94556,3.09111 -19.83378,13.369 -33.08425,22.83993 -13.25045,9.47092 -24.24248,17.2196 -24.42742,17.2196 -0.185,0 -0.32966,-0.60692 -0.32246,-1.34876 0.01,-1.08404 4.33464,-4.42756 22.02964,-17.03563 12.10899,-8.62793 26.57922,-18.55319 32.15615,-22.05652 5.57694,-3.50332 13.22631,-8.7187 16.99843,-11.58894 3.77211,-2.87025 10.13473,-7.41317 14.13866,-10.09653 4.0039,-2.68336 9.84269,-7.09146 12.97489,-9.79474 3.13218,-2.70328 13.76083,-10.69017 23.6192,-17.74981 15.19612,-10.882 18.24502,-12.83641 20.03184,-12.83641 z m 8.98445,0 c 1.16312,0 2.0029,0.10194 1.86552,0.22634 -0.1374,0.1244 -11.26001,8.08759 -24.71682,17.69606 -13.45676,9.60849 -26.77581,19.48882 -29.59815,21.95626 -6.39521,5.59109 -19.862,15.19059 -31.65799,22.56708 -4.94555,3.09265 -21.67064,14.67277 -37.16668,25.7338 -15.49601,11.06104 -28.51116,20.30917 -28.92328,20.5517 -0.5133,0.30207 -0.7493,-0.009 -0.7493,-0.98908 0,-1.20031 4.2679,-4.47745 26.56166,-20.39564 14.60907,-10.43114 30.72727,-21.57364 35.81793,-24.76125 11.69048,-7.32018 30.44937,-20.7241 36.58896,-26.14309 2.58544,-2.28196 14.86341,-11.41465 27.28303,-20.29538 19.31415,-13.81062 22.88638,-16.1468 24.69512,-16.1468 z m 8.97413,0 h 2.09498 l -1.4294,1.0945 c -0.78628,0.60188 -13.25365,9.53019 -27.70475,19.84167 -14.45111,10.31149 -28.57309,20.75258 -31.38201,23.20166 -6.3095,5.50125 -18.95432,14.51407 -26.65158,18.99728 -3.17809,1.85107 -20.44164,13.83282 -38.36454,26.62574 -17.92286,12.79292 -33.46379,23.88022 -34.53533,24.63827 l -1.9482,1.37872 v -1.5203 c 0,-1.32192 4.08766,-4.43771 31.41097,-23.94684 17.27601,-12.33522 35.01165,-24.65308 39.41359,-27.37297 10.51635,-6.49788 22.81828,-15.27009 28.72379,-20.48246 2.60926,-2.30298 16.78936,-12.79784 31.51123,-23.32155 22.87956,-16.35515 27.07081,-19.1337 28.86125,-19.1337 z m -115.77267,0.0144 c 0.58408,-0.007 0.91434,0.0426 0.81132,0.14366 -0.1648,0.16168 -10.34867,7.46837 -22.63012,16.23775 -20.6985,14.77952 -22.32766,15.82524 -22.30042,14.31126 0.026,-1.4515 2.27774,-3.23377 20.23131,-16.01141 16.88802,-12.01928 20.59674,-14.41514 22.60117,-14.60478 0.49456,-0.0468 0.93628,-0.0721 1.28674,-0.0765 z m 17.98339,0 c 0.58407,-0.007 0.91431,0.0433 0.81131,0.1447 -0.37466,0.36867 -61.16852,43.77814 -62.19458,44.40965 -0.5212,0.32079 -0.74828,0.0138 -0.74828,-1.00976 0,-1.25655 4.26708,-4.52143 29.223,-22.35623 24.78893,-17.71548 29.58785,-20.91931 31.62181,-21.11187 0.49456,-0.0468 0.93628,-0.0721 1.28674,-0.0765 z m 104.3284,0.90124 c 0.73878,0.25053 1.45933,0.53982 2.15593,0.87126 -1.93203,1.41624 -13.09326,9.41006 -26.75389,19.15747 -14.45715,10.31586 -28.61869,20.77316 -31.47091,23.23784 -6.91703,5.97721 -25.49272,19.25789 -35.15957,25.13745 -4.28613,2.60691 -22.96688,15.58259 -41.51266,28.83646 -31.02101,22.16932 -33.71671,23.9683 -33.68991,22.46786 0.0262,-1.46194 3.60402,-4.17847 34.52603,-26.20923 18.97338,-13.51783 37.65821,-26.46548 41.52196,-28.77341 9.11385,-5.44389 21.95078,-14.62508 30.62653,-21.90458 3.79158,-3.18138 18.87111,-14.3234 33.51007,-24.76023 16.31371,-11.6308 23.06614,-16.32889 26.24642,-18.06089 z m 4.96199,2.50217 c 0.65346,0.45407 1.27862,0.94471 1.87172,1.47174 -4.85854,3.4902 -12.35005,8.85523 -22.43998,16.05482 -14.45741,10.3161 -28.75483,20.88736 -31.77167,23.49105 -3.01682,2.60369 -8.85667,7.11629 -12.97799,10.02832 -4.12127,2.91201 -12.07286,8.59306 -17.67022,12.62454 -5.59733,4.03149 -13.46825,9.31417 -17.49142,11.73881 -4.02318,2.42462 -21.51074,14.54417 -38.86065,26.93269 -17.3499,12.38853 -31.68377,22.52472 -31.85333,22.52472 -0.1696,0 -0.22328,-0.66079 -0.1188,-1.46864 0.1526,-1.18143 6.48658,-5.96197 32.37321,-24.43363 17.70109,-12.63079 35.50517,-24.98079 39.56447,-27.44325 9.57033,-5.80558 35.18254,-24.11354 43.47223,-31.07508 3.55876,-2.98857 18.58359,-14.0803 33.38917,-24.6486 11.54625,-8.24185 18.36011,-13.04975 22.51332,-15.79747 z m 3.96562,3.63181 c 0.43002,0.51693 0.83556,1.05502 1.21234,1.61437 -3.99452,3.02419 -11.52473,8.52066 -20.15996,14.6885 -12.60359,9.00221 -25.10578,18.26349 -27.7833,20.58063 -6.10261,5.28127 -11.58155,9.35507 -19.5864,14.56448 -3.44484,2.24183 -7.61189,5.20706 -9.26041,6.58873 -5.16904,4.33228 -26.18502,19.04481 -33.83459,23.68639 -4.02737,2.44372 -20.19322,13.63111 -35.92438,24.86151 -15.73117,11.23041 -28.92794,20.62068 -29.32636,20.86692 -0.4912,0.30358 -0.7245,-0.0268 -0.7245,-1.02629 0,-1.26071 4.3162,-4.55491 29.82348,-22.76241 16.40272,-11.70852 33.19424,-23.35737 37.31552,-25.88677 7.77887,-4.77421 15.96815,-10.40166 28.77443,-19.77448 4.12132,-3.01635 10.50663,-7.5792 14.19033,-10.13891 3.68374,-2.55973 9.88885,-7.31085 13.78833,-10.55852 3.89941,-3.24767 18.01456,-13.71329 31.36753,-23.25747 10.34927,-7.39727 16.52676,-11.74996 20.12794,-14.04668 z m 2.68204,4.19923 c 0.28887,0.60839 0.54767,1.23408 0.77511,1.87482 -1.88403,1.87836 -6.98901,5.64542 -19.53782,14.61304 -11.29229,8.06973 -22.55512,16.49398 -25.02785,18.72132 -4.951,4.45959 -13.22509,10.36465 -21.74854,15.52152 -3.045,1.8423 -7.5207,5.09567 -9.94667,7.23056 -2.42596,2.13488 -7.54938,6.06358 -11.38535,8.72918 -3.83594,2.66559 -10.42297,7.34676 -14.63785,10.40245 -4.21485,3.05569 -10.95947,7.55488 -14.98718,9.99835 -5.51278,3.34442 -55.94245,38.73093 -60.87583,42.71673 -0.63836,0.51576 -0.75964,0.29463 -0.59944,-1.09761 0.1784,-1.55028 3.3172,-3.9723 28.07578,-21.66067 15.33118,-10.95311 31.11217,-21.86891 35.06862,-24.25793 8.15908,-4.92667 34.20547,-23.30598 38.51545,-27.17764 1.5664,-1.4071 5.85075,-4.44555 9.52087,-6.75307 8.01419,-5.03879 16.51028,-11.27892 21.80844,-16.01658 2.78734,-2.49241 37.62716,-27.89842 44.98226,-32.84447 z m 1.52859,5.53557 c 0.1754,0 0.23358,0.65876 0.1292,1.46348 -0.1502,1.15877 -4.36705,4.45338 -20.27162,15.83674 -11.04507,7.90525 -22.10454,16.17275 -24.57727,18.37302 -2.4728,2.20026 -8.64966,6.58412 -13.72631,9.741 -5.07662,3.15688 -10.82733,7.11086 -12.77957,8.78705 -8.29475,7.12194 -10.27589,8.64113 -14.69572,11.27372 -2.56146,1.52566 -7.75914,5.2301 -11.55071,8.23102 -7.7962,6.17042 -17.70239,13.03604 -26.9761,18.69754 -3.46187,2.11344 -17.13628,11.59124 -30.38675,21.06123 -13.25045,9.46999 -24.24248,17.21857 -24.42742,17.21857 -0.185,0 -0.33046,-0.60795 -0.32246,-1.34979 0.012,-1.08837 5.07526,-4.94961 26.2268,-19.99876 14.41679,-10.25744 29.44923,-20.61083 33.40567,-23.00839 7.67487,-4.6509 13.74736,-8.85412 23.37944,-16.18194 3.29701,-2.50828 8.69191,-6.34404 11.98892,-8.52454 3.29704,-2.1805 7.89024,-5.67988 10.20711,-7.77626 2.31688,-2.09637 7.99182,-6.14676 12.61111,-9.00099 8.56011,-5.2892 12.75851,-8.36802 19.53158,-14.32056 3.46556,-3.04558 41.4853,-30.52215 42.23412,-30.52214 z m -0.123,7.0962 c 0.28044,0.009 0.33982,0.22958 0.33384,0.56224 -0.0242,1.45127 -2.10581,3.10766 -18.62828,14.82182 -10.23079,7.25347 -20.80628,15.01993 -23.50138,17.25888 -2.69509,2.23895 -6.92303,5.30469 -9.39583,6.81301 -7.62935,4.65372 -15.70526,10.48211 -19.78276,14.27819 -4.90607,4.56747 -8.75363,7.36426 -14.08699,10.23812 -2.30787,1.24362 -7.43407,4.82989 -11.39048,7.96954 -3.95646,3.13962 -8.27234,6.54953 -9.59116,7.57782 -5.48471,4.27649 -13.07108,9.44885 -20.6354,14.06941 -4.42581,2.70343 -17.77808,11.8611 -29.67259,20.34913 -11.89449,8.48802 -21.98496,15.64294 -22.42238,15.90082 -0.5932,0.3498 -0.74554,0.0693 -0.59944,-1.10484 0.1634,-1.31323 3.99246,-4.28084 23.12312,-17.9255 12.60991,-8.99383 25.78574,-18.09359 29.27983,-20.22097 9.2814,-5.651 20.44641,-13.48066 29.32016,-20.56204 4.28615,-3.42039 9.41125,-7.11234 11.38947,-8.20414 5.05133,-2.7879 8.84113,-5.55252 14.3867,-10.4965 5.09882,-4.54571 8.44267,-6.92621 18.00615,-12.81368 3.28485,-2.02225 8.26557,-5.64384 11.06802,-8.04808 2.80248,-2.40423 13.65965,-10.48319 24.12772,-17.95341 13.83985,-9.8764 17.67012,-12.54147 18.67168,-12.50982 z m 0.032,5.72781 c 0.2376,0.0119 0.32966,0.37696 0.32966,1.16375 0,1.34246 -2.57437,3.38905 -19.63284,15.61661 -10.79781,7.73988 -21.65496,15.52819 -24.12771,17.30745 -2.47278,1.77925 -8.2243,5.87007 -12.78063,9.08988 -4.55638,3.21981 -10.22095,7.6176 -12.58835,9.77304 -4.50004,4.09708 -11.38371,8.85117 -17.49246,12.0809 -1.97822,1.04589 -8.2871,5.65834 -14.01981,10.24949 -12.82645,10.2723 -21.5588,16.55127 -30.93967,22.24772 -5.36164,3.25581 -41.55186,28.45818 -47.50714,33.08322 -0.55642,0.43212 -0.74932,0.18134 -0.74932,-0.97255 0,-1.3579 2.68162,-3.46753 21.2638,-16.72661 11.69557,-8.34523 24.51154,-17.14289 28.47886,-19.55021 9.48181,-5.75342 20.07194,-13.31522 31.04201,-22.16607 4.89927,-3.95282 10.77903,-8.2039 13.06689,-9.44644 6.13413,-3.33148 10.88578,-6.65077 14.99854,-10.47687 4.4228,-4.11451 10.08363,-8.33099 19.9967,-14.89727 4.10068,-2.71625 8.82119,-6.08635 10.49029,-7.48894 1.6691,-1.40258 11.12673,-8.30251 21.01786,-15.33238 9.89105,-7.02989 18.32158,-13.04168 18.73368,-13.35938 0.1734,-0.13371 0.31164,-0.20074 0.41964,-0.19534 z m -0.0858,6.61975 c 0.283,0.005 0.41544,0.36244 0.41544,1.0976 0,1.20285 -4.91895,4.94215 -30.99961,23.56443 -17.04972,12.17396 -33.31239,24.17269 -36.13832,26.66295 -5.83846,5.14491 -8.71631,7.18472 -14.68849,10.41176 -5.57137,3.01049 -13.71497,8.85695 -25.60151,18.37922 -10.56773,8.46576 -18.86609,14.3206 -26.8645,18.9549 -2.79514,1.6195 -14.18673,9.46411 -25.31419,17.43251 -12.84513,9.19842 -17.57733,12.53351 -19.28047,13.24052 -0.1596,-0.50038 -0.29788,-1.01066 -0.41856,-1.52755 1.28,-1.62813 5.60936,-4.81689 19.12749,-14.42392 10.78221,-7.66266 22.44327,-15.62112 25.91261,-17.68469 8.76123,-5.21123 17.5988,-11.51434 30.50457,-21.75575 12.28157,-9.74611 16.19367,-12.52732 21.03538,-14.95515 4.4108,-2.21175 10.19991,-6.36862 15.01199,-10.77969 2.96716,-2.7199 62.71004,-45.99553 66.96431,-48.50656 0.1284,-0.0758 0.23946,-0.11238 0.33386,-0.11058 z m 0.0806,6.33345 c 0.1842,0 0.3284,0.60693 0.3204,1.34876 -0.012,1.09054 -5.66043,5.36625 -29.50307,22.3304 -16.21862,11.5396 -31.65589,22.8732 -34.30487,25.18706 -6.95477,6.07494 -9.10755,7.66885 -13.80792,10.22056 -7.10204,3.8555 -18.25137,11.76054 -33.27029,23.58924 -4.12132,3.24586 -11.13461,8.17712 -15.58561,10.95849 -4.45099,2.78137 -18.15044,12.25557 -30.44359,21.05296 -8.40637,6.01589 -15.57126,11.09377 -19.48406,13.82343 -0.38542,-0.56956 -0.7405,-1.16069 -1.0666,-1.77044 2.75616,-2.32007 8.45747,-6.49629 19.31974,-14.24097 11.75755,-8.38298 23.7611,-16.672 26.67534,-18.41953 8.62319,-5.17093 13.73559,-8.75914 21.95938,-15.41507 11.31287,-9.15606 22.17656,-16.95159 28.58013,-20.50726 6.55291,-3.63857 10.91139,-6.76275 15.90393,-11.39877 3.12893,-2.9055 63.81539,-46.75886 64.70709,-46.75886 z m 0.0538,7.18509 c 0.1108,0.0112 0.168,0.0687 0.184,0.1633 0.1112,0.66353 -0.29342,1.67125 -0.89916,2.24068 -0.60573,0.56944 -13.77964,10.07616 -29.27569,21.12531 -15.49606,11.04915 -30.19909,21.90975 -32.67189,24.13494 -5.11493,4.60276 -9.60813,7.78445 -14.38566,10.18334 -3.95794,1.98734 -7.27414,4.36217 -13.88339,9.94461 -2.72872,2.30478 -7.12775,5.45705 -9.77613,7.00525 -2.6484,1.54819 -7.07679,4.53509 -9.84021,6.63834 -2.76344,2.10325 -7.21421,5.23761 -9.89087,6.96495 -2.67668,1.72734 -16.73559,11.62325 -31.24251,21.99036 -9.05525,6.471 -15.95041,11.38346 -20.90412,14.90348 -0.59106,-0.50692 -1.15376,-1.04648 -1.68156,-1.61851 3.68266,-2.81198 9.71543,-7.17562 19.73832,-14.33503 13.76509,-9.83247 27.99507,-19.73938 31.62181,-22.0162 3.62672,-2.27682 9.02159,-6.09929 11.98891,-8.49353 2.96734,-2.39426 7.20661,-5.4537 9.42061,-6.79958 2.214,-1.34589 7.01777,-4.86224 10.67531,-7.81347 3.65754,-2.95123 8.72443,-6.44657 11.26029,-7.76799 5.75687,-2.99987 11.85737,-7.297 16.8403,-11.86283 2.11022,-1.93358 17.08203,-12.9915 33.27027,-24.57316 22.29948,-15.95372 28.38119,-20.1234 29.45143,-20.01426 z m -0.1302,5.672 c 0.28402,-7.9e-4 0.41238,0.3652 0.41238,1.13274 0,1.25638 -4.22775,4.49179 -28.92431,22.1392 -15.90812,11.36752 -29.46277,21.28258 -30.12215,22.03377 -2.30346,2.6241 -10.05567,8.43596 -14.52005,10.88615 -2.47537,1.35856 -6.65919,4.29665 -9.29761,6.5288 -6.58585,5.57178 -13.05407,10.15664 -21.18422,15.01612 -3.78267,2.26095 -20.15756,13.60919 -36.38842,25.21911 -16.32109,11.67445 -24.05328,17.10417 -28.03342,19.53367 -0.71564,-0.34118 -1.40504,-0.72662 -2.07015,-1.14721 11.63316,-8.37497 49.60387,-35.38092 56.38822,-40.07401 2.61292,-1.80748 8.12291,-5.35956 12.24421,-7.89408 4.12128,-2.53452 10.59513,-7.204 14.38671,-10.37662 3.79157,-3.17261 9.05157,-6.95735 11.68921,-8.41085 5.77703,-3.18351 9.53157,-5.9043 15.37888,-11.14452 3.2666,-2.92745 54.64937,-40.21014 59.7038,-43.32032 0.1302,-0.0802 0.24232,-0.1217 0.33692,-0.12196 z m 0.1756,6.32519 c 0.1738,0 0.2314,0.657 0.1272,1.45934 -0.1512,1.16259 -5.63213,5.3474 -26.99055,20.60958 -14.74035,10.53303 -28.76801,20.94806 -31.17221,23.14481 -2.40422,2.19675 -7.33797,6.00233 -10.96471,8.45633 -3.62674,2.45399 -10.64109,7.45286 -15.58663,11.10835 -4.94553,3.65548 -11.55426,8.08907 -14.68644,9.85262 -3.13218,1.76354 -18.37398,12.26442 -33.86973,23.33498 -20.74274,14.81894 -26.91591,19.06117 -29.34081,19.93262 -0.75836,-0.10856 -1.50244,-0.25797 -2.23036,-0.44855 3.83994,-3.24701 58.19706,-41.36383 62.68656,-43.94766 6.61543,-3.80734 13.55187,-8.62866 21.6369,-15.0368 2.96734,-2.35187 7.77429,-5.74527 10.68151,-7.54165 2.90724,-1.79638 7.49285,-5.25648 10.19055,-7.68945 4.08654,-3.68546 58.5316,-43.23452 59.51882,-43.23452 z m -0.124,7.20059 c 0.27098,-0.003 0.3368,0.18099 0.33278,0.46301 -0.025,1.45331 -2.71487,3.53622 -24.93277,19.3125 -13.69767,9.7263 -27.24074,19.73579 -30.09531,22.24358 -6.5216,5.72931 -37.69779,28.0261 -43.75852,31.29522 -2.49256,1.34447 -15.60595,10.3489 -29.14031,20.01013 -20.82137,14.8629 -24.92546,17.56665 -26.67536,17.56791 -1.1848,5.9e-4 -1.82486,-0.21703 -1.49862,-0.50953 2.94228,-2.63803 52.67897,-37.46635 56.66419,-39.6792 6.58555,-3.65671 38.60382,-26.55869 43.434,-31.06784 1.98839,-1.85621 15.4081,-11.79604 29.82243,-22.08855 19.66132,-14.03906 24.67322,-17.53623 25.84749,-17.54723 z m 0.031,5.62445 c 0.2377,0.012 0.32972,0.3774 0.32972,1.16685 0,1.35563 -3.09825,3.76249 -24.79227,19.25772 -13.63603,9.73973 -26.51732,19.28113 -28.62456,21.20282 -4.44605,4.05452 -9.63579,7.92318 -20.91656,15.59387 -4.45099,3.02658 -10.36041,7.26081 -13.13302,9.41027 -2.7726,2.14946 -7.62798,5.3626 -10.79003,7.13961 -3.16204,1.77701 -14.65145,9.59085 -25.53124,17.3643 -16.64672,11.89388 -20.10876,14.13349 -21.8498,14.13349 -1.19476,0 -1.82852,-0.21745 -1.49966,-0.5147 2.77172,-2.50524 44.02264,-31.25197 48.33086,-33.6806 3.07143,-1.73144 9.12771,-5.73909 13.45756,-8.90487 4.32988,-3.16579 12.20927,-8.79963 17.51003,-12.51912 5.30079,-3.71949 11.48573,-8.45731 13.74384,-10.52958 2.25812,-2.07227 15.01563,-11.54819 28.35072,-21.0571 13.33505,-9.5089 24.58267,-17.54945 24.99483,-17.86762 0.1736,-0.134 0.31158,-0.20073 0.41958,-0.19534 z m 0.22946,6.64765 c 0.31484,0.0182 0.1002,0.52401 0.1002,1.03353 0,1.23799 -3.62647,4.05187 -23.78351,18.45157 -13.08127,9.34493 -25.67658,18.72621 -27.98898,20.84832 -4.29005,3.93695 -10.10097,8.05101 -20.05356,14.19757 -3.07198,1.89719 -7.36363,5.0281 -9.53739,6.95771 -5.33523,4.736 -12.09481,9.53619 -17.6175,12.51085 -2.5115,1.35275 -11.54841,7.44684 -20.08144,13.54128 -12.93423,9.23784 -15.85847,11.08045 -17.58341,11.08045 -1.1955,0 -1.82869,-0.2171 -1.49966,-0.5147 2.612,-2.36223 35.24663,-24.99354 38.96401,-27.02055 5.49901,-2.9985 11.60959,-7.27231 16.75554,-11.71813 1.97824,-1.70907 6.29412,-4.79492 9.59113,-6.85746 8.51681,-5.3279 16.75333,-11.3168 21.28134,-15.47501 2.14314,-1.96804 13.95533,-10.76779 26.24956,-19.55434 20.13694,-14.39161 24.39901,-17.52775 25.20361,-17.48109 z m -0.23152,6.30452 c 0.1824,0 0.32634,0.60692 0.31834,1.34876 -0.012,1.08453 -4.38477,4.46061 -22.32212,17.23407 -12.2693,8.73714 -24.24285,17.63969 -26.60817,19.78277 -2.36532,2.14307 -7.76393,6.03221 -11.99721,8.64236 -10.19321,6.28488 -14.12821,9.08453 -20.17858,14.35983 -6.38671,5.56858 -11.46719,9.19512 -17.25784,12.31759 -2.50934,1.35308 -9.65819,6.09902 -15.88533,10.54611 -9.28811,6.63308 -11.69381,8.08529 -13.39141,8.08529 -1.17923,0 -1.82417,-0.21806 -1.49965,-0.50746 2.67461,-2.38522 25.18137,-17.84953 30.18625,-20.74084 7.38643,-4.26715 10.91851,-6.80481 18.33994,-13.17541 2.96734,-2.54718 7.41807,-5.87475 9.89085,-7.39489 11.38401,-6.9983 16.19731,-10.33018 20.37392,-14.10558 3.85894,-3.48817 49.09443,-36.39258 50.03101,-36.39258 z m -0.0496,7.2812 c 0.5642,-0.04 0.52568,0.46808 0.1902,1.34255 -0.1604,0.4182 -9.63193,7.43181 -21.04774,15.5856 -11.41585,8.1538 -22.32648,16.22671 -24.24659,17.93997 -1.92008,1.71329 -5.89212,4.5672 -8.82629,6.34276 -7.7039,4.6618 -20.48383,13.85212 -26.76632,19.24842 -2.98508,2.56403 -8.61325,6.5951 -12.50671,8.95758 -3.89347,2.3625 -10.66281,6.84126 -15.04404,9.95288 -6.3389,4.50194 -8.3888,5.65846 -10.03451,5.66166 -1.18548,0.002 -1.82506,-0.21354 -1.49862,-0.50642 2.2348,-2.00549 17.97406,-12.68769 23.43214,-15.90393 7.45975,-4.39572 10.45023,-6.56579 17.0098,-12.33722 5.19947,-4.57475 13.12297,-10.17946 22.31386,-15.78507 3.54001,-2.15909 8.26055,-5.5703 10.49029,-7.58092 2.2298,-2.01063 13.63037,-10.49803 25.33489,-18.85982 14.38475,-10.2766 19.75811,-13.9557 21.19972,-14.05804 z m -0.031,5.57588 c 0.28402,-2.1e-4 0.41238,0.36502 0.41238,1.13275 0,1.24742 -2.86135,3.51059 -18.73268,14.81562 -10.30323,7.33889 -20.4954,14.74944 -22.64874,16.4672 -2.15334,1.71775 -5.79701,4.32923 -8.09667,5.80325 -6.18811,3.96649 -23.17058,16.18737 -29.35113,21.12118 -2.96732,2.36876 -7.41811,5.55102 -9.89087,7.07242 -2.47278,1.52141 -7.73265,5.07924 -11.68815,7.90649 -5.69868,4.0732 -7.62139,5.14077 -9.26145,5.14077 -1.18472,0 -1.82558,-0.21859 -1.49964,-0.51056 1.62894,-1.45912 13.51741,-9.57011 20.30778,-13.85548 4.26238,-2.68995 9.21157,-6.22645 10.99777,-7.85894 3.81292,-3.4848 19.6576,-14.93728 27.04845,-19.55021 2.83698,-1.77067 7.04654,-4.7829 9.35445,-6.69313 3.30606,-2.73631 39.52119,-28.91131 42.71158,-30.87043 0.1302,-0.08 0.24232,-0.12084 0.33692,-0.12092 z m 0.1716,6.32519 c 0.1762,0 0.23468,0.65897 0.1302,1.46451 -0.1526,1.17854 -7.62413,6.77826 -38.25502,28.66799 -20.93608,14.96158 -39.4146,28.19102 -41.06306,29.3987 -13.66301,10.0093 -19.26632,13.59536 -21.25038,13.59915 -1.16418,0.002 -1.81918,-0.21461 -1.4986,-0.49713 v -10e-4 c 1.0586,-0.93289 10.72377,-7.6818 16.45478,-11.48972 3.13218,-2.08114 6.90858,-4.78563 8.39226,-6.00997 1.48366,-1.22434 9.03751,-6.71387 16.78554,-12.19976 7.74799,-5.48587 16.24493,-11.55205 18.88254,-13.47926 10.80453,-7.89428 41.124,-29.45348 41.4217,-29.45348 z m -0.029,7.34115 c 0.1858,0.0122 0.24378,0.13466 0.23976,0.32143 -0.0264,1.46466 -4.54759,4.85137 -44.59255,33.40154 -37.84771,26.98361 -44.91138,31.79951 -46.87772,31.96081 -1.4353,0.11774 -2.08728,-0.0196 -1.71566,-0.36173 v -0.001 c 0.32966,-0.30298 21.43814,-15.41803 46.90772,-33.58965 37.14158,-26.49924 44.73772,-31.81699 46.03845,-31.73137 z m -0.06,5.4839 h 10e-4 c 0.23766,0.0114 0.32866,0.3759 0.32866,1.16478 0,1.36245 -4.78645,4.97125 -40.01406,30.17074 -34.08949,24.3851 -40.36904,28.65866 -42.41184,28.86023 -1.53724,0.15168 -2.18266,0.0305 -1.79834,-0.33693 0.32972,-0.31525 19.07821,-13.73746 41.66252,-29.82761 22.58464,-16.09016 41.40026,-29.51612 41.81242,-29.83484 0.1736,-0.13428 0.31158,-0.20155 0.41958,-0.19638 z m -0.01,6.5598 c 0.28634,-0.0146 0.34422,0.36129 0.23464,1.23817 -0.1644,1.31613 -5.91485,5.65186 -35.86138,27.03914 -30.46829,21.76009 -35.96775,25.47233 -37.73615,25.47233 -1.18824,0 -1.82757,-0.21794 -1.50068,-0.5116 0.7137,-0.64114 73.41292,-52.45609 74.49871,-53.09748 0.1482,-0.0876 0.2695,-0.13576 0.36486,-0.14056 z m 0.004,6.39237 c 0.184,0 0.3284,0.60692 0.3204,1.34875 -0.012,1.09071 -5.96337,5.5931 -31.10507,23.52929 -26.20419,18.69428 -31.45441,22.2096 -33.40567,22.36967 -1.43401,0.11764 -2.08591,-0.0202 -1.71461,-0.36173 1.1386,-1.04719 65.57135,-46.88598 65.90495,-46.88598 z m -0.06,7.17474 c 0.1864,-0.0196 0.27564,0.0429 0.29664,0.16846 0.1108,0.66138 -0.1588,1.55844 -0.59944,1.99265 -0.44062,0.4342 -12.53514,9.16656 -26.87691,19.40551 -22.55264,16.10064 -26.3599,18.61209 -28.17499,18.5849 -1.9795,-0.0297 -2.03104,-0.0803 -0.9002,-0.88471 h 10e-4 c 0.6594,-0.46906 13.60704,-9.72836 28.77341,-20.57649 20.14912,-14.41225 26.17606,-18.55319 27.48045,-18.69032 z m -0.018,5.68234 c 0.28406,-5.9e-4 0.41238,0.36526 0.41238,1.13275 0,1.2496 -3.32215,3.84967 -22.0296,17.24337 -18.4526,13.21118 -22.42003,15.81187 -24.42847,16.01038 -1.53374,0.15158 -2.18176,0.0298 -1.79832,-0.3359 0.5952,-0.56771 46.07228,-33.04754 47.50709,-33.92968 0.1302,-0.0801 0.24236,-0.12074 0.33692,-0.12092 z m 0.1726,6.32519 c 0.1754,0 0.23468,0.65912 0.1302,1.46451 -0.1498,1.15657 -3.90625,4.11713 -17.8728,14.08698 -14.81761,10.57706 -18.01916,12.62351 -19.75278,12.62351 -1.18326,0 -1.82536,-0.21804 -1.49964,-0.50953 1.1705,-1.04736 38.6888,-27.66547 38.99498,-27.66547 z m -0.1344,7.01145 c 0.30026,0.009 0.35328,0.26147 0.34724,0.64492 -0.024,1.4384 -1.60817,2.75691 -13.12786,10.92749 -10.59501,7.51477 -13.54167,9.32798 -15.40885,9.48158 -1.42324,0.11708 -2.07792,-0.0214 -1.7084,-0.35967 0.32972,-0.30178 7.27556,-5.30389 15.43573,-11.11662 10.43387,-7.4324 13.56118,-9.60364 14.46214,-9.5777 z m -0.008,5.82393 c -0.28804,1.21837 -0.68698,2.39227 -1.18549,3.51193 -1.26646,1.13992 -3.47556,2.78742 -7.26466,5.50146 -7.14915,5.12101 -9.22707,6.32623 -10.90993,6.32623 -1.18168,0 -1.83266,-0.2184 -1.50892,-0.50643 0.31316,-0.27869 4.88538,-3.55985 10.16057,-7.29154 5.27532,-3.73168 9.92833,-7.04466 10.34049,-7.36078 0.149,-0.1143 0.2676,-0.16866 0.36794,-0.18086 z" />
    <animateTransform
      attributeName="transform"
      begin="1s"
      dur="1s"
      type="translate"
      to="-100 -100"
      fill="freeze"
      repeatCount="0" />
  </g>
</svg>

