<?xml version="1.0" encoding="UTF-8" standalone="no"?>
<svg
  xmlns="http://www.w3.org/2000/svg"
  width="600"
  height="300"
  viewBox="0 0 600 300"
  version="1.1">
  <g>
    <g>
      <path
        style="color:#000000;"
        d="M 149.94368,0.11270101 A 149.9435,149.9435 0 0 0 0,150.05635 149.9435,149.9435 0 0 0 149.94368,300 a 149.9435,149.9435 0 0 0 84.66368,-26.19009 149.9435,149.9435 0 0 0 11.93277,-9.07045 149.9435,149.9435 0 0 0 51.16519,-89.1966 149.9435,149.9435 0 0 0 0,-10e-4 149.9435,149.9435 0 0 0 2.18198,-25.48496 149.9435,149.9435 0 0 0 -0.74849,-14.96865 A 149.9435,149.9435 0 0 0 175.42864,2.2946915 149.9435,149.9435 0 0 0 160.54987,0.48773042 149.9435,149.9435 0 0 0 149.94368,0.11270101 Z m 0,7.49749269 a 142.44633,142.44633 0 0 1 0.73919,0.037186 c -0.62663,6.2837183 -1.89608,25.4031443 -2.62674,39.9065583 -0.39597,7.872682 -0.53543,31.181453 -0.42308,50.103638 a 52.480222,52.480222 0 0 0 -1.45981,0.0574 c -0.51494,-14.360291 -0.50024,-57.292023 0.0607,-68.698602 0.2405,-4.898014 0.63126,-12.381674 0.86783,-16.629928 l 0.2603,-4.6847697 a 142.44633,142.44633 0 0 1 2.58184,-0.091435 z m -10.23895,0.3765776 0.17663,19.1203117 c 0.22762,24.571432 0.65699,35.211144 2.27806,56.432655 0.34967,4.577804 0.78253,9.512231 1.24749,14.509921 a 52.480222,52.480222 0 0 0 -1.21186,0.147221 c -3.20394,-27.641016 -5.12532,-54.951517 -5.52935,-79.359057 -0.0702,-4.231935 -0.15833,-8.030532 -0.23391,-10.4543385 a 142.44633,142.44633 0 0 1 3.27297,-0.3967267 z m 18.69724,0.046481 a 142.44633,142.44633 0 0 1 3.30866,0.1658079 c -0.92715,5.6565068 -2.88484,18.6882998 -3.92233,26.2691158 -2.78605,20.356068 -4.91979,42.07047 -6.25619,63.187841 a 52.480222,52.480222 0 0 0 -1.17312,-0.05886 c 0.71783,-19.274846 1.98003,-37.14804 3.96106,-56.221901 0.72774,-7.006724 3.21572,-27.326898 4.08192,-33.3419897 z m 11.0324,1.0847957 a 142.44633,142.44633 0 0 1 3.26834,0.4943576 c -1.36486,5.5419494 -3.75317,15.7078254 -5.08462,21.7656634 -4.79231,21.804547 -8.8769,44.483664 -12.01952,66.524362 a 52.480222,52.480222 0 0 0 -1.21345,-0.103813 C 157.786,69.322509 162.69746,39.927412 168.71993,12.3864 Z m -40.75736,0.2061127 0.14237,2.1540973 c 1.75536,26.379071 5.69054,58.454042 10.53491,87.236222 a 52.480222,52.480222 0 0 0 -1.17157,0.26345 c -5.30383,-27.179892 -9.42479,-55.067738 -12.02264,-81.593734 -0.34643,-3.537317 -0.5515,-5.596433 -0.75318,-7.6292145 a 142.44633,142.44633 0 0 1 3.2699,-0.4308208 z m 51.65492,1.6581883 a 142.44633,142.44633 0 0 1 3.17845,0.812046 l -0.12866,0.392079 c -9.44281,28.780119 -17.2733,57.320958 -23.72604,86.328095 a 52.480222,52.480222 0 0 0 -1.21498,-0.18287 c 5.79257,-29.340042 13.02544,-58.176519 21.89122,-87.349353 z m -62.51064,0.475762 c 0.84934,5.624938 2.05806,13.359405 2.88711,18.285016 3.90551,23.204383 8.88477,46.85624 14.69279,69.91358 a 52.480222,52.480222 0 0 0 -1.17467,0.390533 c -0.03,-0.105727 -0.0654,-0.228313 -0.0944,-0.3332 C 126.8042,73.387564 119.5018,40.78107 114.90025,13.840011 l -0.2836,-1.661288 a 142.44633,142.44633 0 0 1 3.20479,-0.720612 z m 73.23306,2.262575 a 142.44633,142.44633 0 0 1 3.14591,1.039853 c -10.97915,26.227109 -21.01219,53.716221 -29.17482,80.047121 -0.38571,1.244157 -0.9211,3.058233 -1.39786,4.646033 a 52.480222,52.480222 0 0 0 -1.1886,-0.302197 c 0.57819,-2.084043 1.14868,-4.112659 1.68918,-5.997374 7.44223,-25.952017 17.43407,-55.367654 26.92619,-79.433436 z m -83.87027,0.627631 c 6.79737,29.686582 14.87495,58.466706 24.34286,86.596193 a 52.480222,52.480222 0 0 0 -1.12974,0.43546 C 121.64437,77.278383 114.00154,52.987001 107.28482,27.920681 106.14912,23.68233 105.02391,19.31339 104.03351,15.395933 a 142.44633,142.44633 0 0 1 3.15057,-1.047605 z m 94.25332,3.054477 a 142.44633,142.44633 0 0 1 3.15363,1.15143 c -13.41026,26.094645 -26.31811,54.639953 -37.08604,82.114446 a 52.480222,52.480222 0 0 0 -1.14525,-0.41844 C 176.29882,73.049892 189.05115,42.961989 201.4374,17.402794 Z M 96.742142,18.000982 c 8.527028,27.633058 19.122598,56.432523 31.067028,84.538178 a 52.480222,52.480222 0 0 0 -1.13903,0.50832 C 114.50913,76.223003 102.87872,46.642572 93.734156,19.346141 a 142.44633,142.44633 0 0 1 3.007986,-1.345147 z m 114.816408,3.821579 a 142.44633,142.44633 0 0 1 2.98006,1.438133 c -14.96944,24.353535 -30.13184,52.079922 -43.20276,78.918936 a 52.480222,52.480222 0 0 0 -1.12974,-0.5238 c 11.8757,-26.042245 27.24885,-55.668172 41.35244,-79.833269 z M 86.682973,22.502887 c 11.350635,28.368868 23.774117,55.535989 37.485937,81.912963 a 52.480222,52.480222 0 0 0 -1.05538,0.60594 C 108.61065,78.679777 95.510979,51.716778 83.735434,24.023154 a 142.44633,142.44633 0 0 1 2.947539,-1.520263 z m 134.742587,4.500352 a 142.44633,142.44633 0 0 1 2.80495,1.72018 c -17.71468,24.364159 -34.43614,49.887655 -49.25596,75.213571 a 52.480222,52.480222 0 0 0 -1.08633,-0.52379 C 188.37494,77.243113 204.09035,51.99464 221.42556,27.003239 Z M 76.987995,27.892772 c 12.967639,26.402092 27.765695,53.017566 43.731235,78.626038 a 52.480222,52.480222 0 0 0 -1.00265,0.71596 C 102.95124,81.722163 88.334437,56.752323 74.186129,29.501383 a 142.44633,142.44633 0 0 1 2.801866,-1.608598 z m 153.842735,4.945122 a 142.44633,142.44633 0 0 1 2.6128,1.985176 c -19.32634,22.649812 -38.17229,47.065125 -54.979,71.23703 a 52.480222,52.480222 0 0 0 -1.02282,-0.62609 C 193.65,80.842379 211.73249,56.274793 230.83073,32.837894 Z M 67.773432,33.916491 c 8.114061,13.609899 17.3996,28.440352 25.587238,40.717058 7.2638,10.891476 15.75146,22.95757 24.03444,34.260971 a 52.480222,52.480222 0 0 0 -0.93757,0.81205 C 98.200412,86.077725 80.861169,61.109316 65.111027,35.819546 a 142.44633,142.44633 0 0 1 2.662405,-1.903045 z M 239.62998,39.52489 a 142.44633,142.44633 0 0 1 2.62365,2.089008 c -10.17505,10.175727 -20.17139,20.56988 -28.69285,29.931079 -10.5504,11.590031 -21.34725,24.157389 -31.7365,36.906333 a 52.480222,52.480222 0 0 0 -0.98097,-0.74697 C 199.00945,84.32578 218.97528,61.181927 239.62998,39.52489 Z M 58.975727,40.601936 C 76.143523,65.09544 94.486015,88.618493 114.33909,111.56776 a 52.480222,52.480222 0 0 0 -0.9066,0.79656 C 94.261363,91.288161 77.748755,71.239398 60.812135,48.590696 59.574234,46.935289 58.029003,44.811239 56.52719,42.75294 a 142.44633,142.44633 0 0 1 2.448537,-2.150994 z m 188.915753,6.263926 a 142.44633,142.44633 0 0 1 2.4098,2.243976 c -4.13388,3.537875 -8.25861,7.115032 -12.38991,10.782878 -17.58047,15.608258 -35.91248,33.357998 -52.93189,51.168304 a 52.480222,52.480222 0 0 0 -0.90656,-0.84615 C 204.04795,88.297653 225.75304,66.771731 247.89148,46.865862 Z M 50.712687,47.860774 c 19.146446,23.198742 39.728999,45.789345 60.736193,66.621996 a 52.480222,52.480222 0 0 0 -0.8167,0.87714 C 88.87484,94.785923 68.117108,73.049797 48.453207,50.284533 a 142.44633,142.44633 0 0 1 2.25948,-2.423748 z M 255.59818,54.76318 a 142.44633,142.44633 0 0 1 2.18198,2.482632 c -24.28091,17.727113 -47.59208,36.603455 -69.86708,56.613968 a 52.480222,52.480222 0 0 0 -0.85388,-0.86163 c 0.86534,-0.81901 1.79046,-1.69888 2.52137,-2.3788 21.70644,-20.19197 43.43176,-38.562137 66.01761,-55.856167 z M 43.213646,55.908412 c 3.635216,3.743994 7.400789,7.580714 11.481789,11.664661 18.928453,18.942085 35.747831,34.524617 54.092595,50.012217 a 52.480222,52.480222 0 0 0 -0.72526,0.95461 C 84.557237,99.558355 63.181066,80.350744 40.983611,58.304276 a 142.44633,142.44633 0 0 1 2.230035,-2.395853 z m 219.539544,7.319276 a 142.44633,142.44633 0 0 1 1.91389,2.6748 C 239.2867,81.625561 213.7177,99.236439 190.60337,116.92201 a 52.480222,52.480222 0 0 0 -0.79343,-0.90193 C 212.87601,97.461869 237.51193,79.651473 262.75319,63.227692 Z M 36.241503,64.543391 C 58.918407,84.731551 81.834295,103.127 106.38288,120.82883 a 52.480222,52.480222 0 0 0 -0.64314,1.04915 C 81.56424,105.21887 57.201696,86.565224 34.256321,67.154663 a 142.44633,142.44633 0 0 1 1.985182,-2.611259 z m 232.944537,7.681911 a 142.44633,142.44633 0 0 1 1.71242,2.767781 c -25.80109,13.313786 -53.15359,29.220757 -77.85119,45.229797 a 52.480222,52.480222 0 0 0 -0.70821,-0.99026 C 216.98223,102.3604 242.25243,86.913217 269.18604,72.225302 Z M 29.940383,73.599895 c 24.175188,18.352178 48.125659,34.684295 74.314747,50.697185 a 52.480222,52.480222 0 0 0 -0.58578,1.05225 C 78.148811,110.6116 52.46294,93.933268 28.210906,76.420375 a 142.44633,142.44633 0 0 1 1.729477,-2.82047 z M 274.77272,81.74981 a 142.44633,142.44633 0 0 1 1.6427,2.860767 c -27.6423,11.646474 -55.13998,24.874903 -81.17685,39.066613 a 52.480222,52.480222 0 0 0 -0.6075,-1.05844 c 0.66624,-0.38453 1.38087,-0.80495 2.02394,-1.17314 25.08663,-14.36341 51.47354,-27.754943 78.11771,-39.6958 z M 24.305644,83.067072 c 19.751484,12.722515 39.095185,24.136518 60.57657,35.716128 4.066975,2.19233 10.694045,5.59392 17.576796,9.07356 a 52.480222,52.480222 0 0 0 -0.55944,1.15608 C 75.070118,116.13641 48.368196,101.62195 22.85976,86.059564 a 142.44633,142.44633 0 0 1 1.445884,-2.992481 z m 255.371916,8.597782 a 142.44633,142.44633 0 0 1 1.35135,3.021932 c -29.54467,9.840834 -57.26586,20.595124 -83.86406,32.568694 a 52.480222,52.480222 0 0 0 -0.50984,-1.10961 c 26.4605,-12.60336 53.86567,-23.9739 83.02255,-34.481016 z M 19.492246,93.033247 C 45.52841,107.06035 73.087814,120.14096 100.86747,131.64424 a 52.480222,52.480222 0 0 0 -0.41067,1.12354 c -3.600073,-1.38095 -7.053697,-2.72024 -9.939845,-3.87735 C 67.281572,119.575 39.614996,107.00256 18.190491,96.095483 a 142.44633,142.44633 0 0 1 1.301755,-3.062225 z m 264.357114,8.839543 a 142.44633,142.44633 0 0 1 1.03831,3.12575 c -26.65492,6.53534 -58.49275,16.21284 -86.06155,25.97159 a 52.480222,52.480222 0 0 0 -0.48971,-1.0941 c 27.7439,-10.65347 57.42434,-20.38411 85.51295,-28.00324 z m -268.298029,1.45207 c 28.611503,12.53539 56.468301,23.2274 84.003528,32.20916 a 52.480222,52.480222 0 0 0 -0.289796,1.13904 C 70.577505,128.08932 43.187834,118.31359 14.415394,106.43513 a 142.44633,142.44633 0 0 1 1.135937,-3.11026 z m 134.303989,1.75117 h 0.001 0.0271 0.1209 a 44.983048,44.983048 0 0 1 2.74919,0.13792 v 0.11469 c 6.3e-4,0.13921 -0.63672,10.14259 -1.41642,22.23058 -10e-4,0.0285 -10e-4,0.026 -0.003,0.0543 a 22.491525,22.491525 0 0 0 -1.39161,-0.048 22.491525,22.491525 0 0 0 -1.50634,0.0744 c -0.003,-0.042 -5.8e-4,-0.0385 -0.007,-0.0807 -0.77963,-12.08796 -1.41686,-22.09143 -1.41644,-22.23057 l 0.001,-0.15186 a 44.983048,44.983048 0 0 1 2.83903,-0.10079 z m 9.36028,0.97942 a 44.983048,44.983048 0 0 1 5.58204,1.59776 c -0.89464,2.5052 -3.85485,10.93752 -7.44327,21.19536 a 22.491525,22.491525 0 0 0 -2.79722,-0.77797 c 0.0527,-0.24909 0.0436,-0.20678 0.0978,-0.46179 2.47025,-11.65888 4.40992,-20.83752 4.5608,-21.55336 z m -18.64613,0.0605 c 0.15925,0.76549 2.08432,9.86394 4.54683,21.48672 0.0537,0.25352 0.0483,0.22953 0.10067,0.47732 a 22.491525,22.491525 0 0 0 -2.78639,0.80584 c -3.58862,-10.2593 -6.54141,-18.67104 -7.4448,-21.20157 a 44.983048,44.983048 0 0 1 5.5836,-1.56831 z m 30.18987,4.10207 a 44.983048,44.983048 0 0 1 4.96066,2.9987 l -9.81745,14.02487 c -1.20087,1.7155 -1.95723,2.80208 -3.0808,4.40893 a 22.491525,22.491525 0 0 0 -2.47799,-1.52492 c 0.55357,-1.05742 0.90321,-1.72073 1.47842,-2.82048 z m -41.72435,0.0388 8.9155,17.04678 c 0.58561,1.11964 0.94157,1.79597 1.50477,2.87161 a 22.491525,22.491525 0 0 0 -2.47337,1.51873 c -1.13394,-1.62171 -1.89881,-2.7211 -3.1118,-4.45387 L 124.11,113.29731 a 44.983048,44.983048 0 0 1 4.92499,-3.04053 z m 158.25939,2.12155 a 142.44633,142.44633 0 0 1 0.72216,3.21875 c -7.49972,1.29606 -18.96731,3.35853 -24.75351,4.49571 -20.13021,3.9562 -42.6947,9.27789 -63.1305,14.78421 a 52.480222,52.480222 0 0 0 -0.38123,-1.14833 c 28.92289,-8.59014 60.51329,-16.31273 87.23003,-21.29145 0.1176,-0.022 0.19973,-0.0378 0.31305,-0.0589 z M 12.343439,113.897 c 7.047879,2.45262 17.233766,5.91142 22.921746,7.7377 21.207442,6.80923 41.752115,12.57752 63.299419,17.78291 a 52.480222,52.480222 0 0 0 -0.206121,1.21652 C 69.798034,134.42222 41.959896,126.85894 11.523637,117.10953 a 142.44633,142.44633 0 0 1 0.819802,-3.21254 z m 168.391411,3.44191 a 44.983048,44.983048 0 0 1 3.97188,4.21675 l -11.96994,9.81742 c -2.10619,1.7273 -3.4717,2.8544 -5.40383,4.44145 a 22.491525,22.491525 0 0 0 -1.98984,-2.13084 c 2.11132,-2.2403 3.6838,-3.90435 6.02992,-6.3972 z m -61.66295,0.0372 9.32616,9.90883 c 2.37113,2.51946 3.96433,4.20461 6.09502,6.46538 a 22.491525,22.491525 0 0 0 -1.98518,2.11846 c -1.945,-1.59735 -3.32362,-2.73368 -5.44568,-4.47401 l -11.92812,-9.78332 a 44.983048,44.983048 0 0 1 3.9378,-4.23534 z m 170.64623,5.79435 a 142.44633,142.44633 0 0 1 0.66326,3.19396 c -7.3971,0.64074 -22.95585,2.29372 -33.02431,3.55038 -17.54953,2.19039 -37.56525,5.40254 -56.21103,8.92942 a 52.480222,52.480222 0 0 0 -0.2681,-1.19638 c 28.66483,-6.14904 59.09143,-11.17291 85.74078,-14.11785 1.30882,-0.14457 2.06615,-0.23944 3.0994,-0.35953 z m -279.8201362,1.4924 c 28.0224662,7.52719 57.7254492,13.84548 88.0405252,18.75148 a 52.480222,52.480222 0 0 0 -0.184406,1.21806 c -29.48649,-4.05543 -58.532629,-9.51276 -86.388546,-16.25333 l -1.958831,-0.47422 a 142.44633,142.44633 0 0 1 0.4912578,-3.24199 z m 178.5404362,2.20987 a 44.983048,44.983048 0 0 1 2.65466,5.14816 l -18.42914,8.09103 c -1.17043,0.51379 -1.00203,0.44433 -2.12467,0.93757 a 22.491525,22.491525 0 0 0 -1.34978,-2.57874 c 5.98913,-3.60268 12.51491,-7.53353 19.24893,-11.59802 z m -77.01435,0.0557 15.61798,9.41449 c 1.40935,0.84948 2.28502,1.37174 3.62324,2.17735 a 22.491525,22.491525 0 0 0 -1.32192,2.5756 c -0.80651,-0.35417 -1.2979,-0.57183 -2.12776,-0.93602 -8.68551,-3.81152 -14.8031,-6.52109 -18.44774,-8.15145 a 44.983048,44.983048 0 0 1 2.6562,-5.07997 z m 179.89488,7.16432 a 142.44633,142.44633 0 0 1 0.39362,3.24665 l -1.18706,9.9e-4 c -6.06476,0.007 -24.70379,0.597 -34.25943,1.08789 -18.17084,0.93344 -36.72206,2.46054 -54.39632,4.43526 a 52.480222,52.480222 0 0 0 -0.14568,-1.20876 c 29.05086,-3.91216 58.95331,-6.51366 86.25678,-7.44791 z M 8.2475582,135.58047 c 7.3918218,1.3937 28.3174078,4.81008 37.3774308,6.09035 17.686693,2.49936 34.274412,4.36823 51.967947,5.81298 a 52.480222,52.480222 0 0 0 -0.06043,1.22272 c -27.007314,-1.58923 -56.281325,-4.69797 -84.215847,-9.02085 -2.786027,-0.43114 -3.7672278,-0.566 -5.2612624,-0.78416 a 142.44633,142.44633 0 0 1 0.1921677,-3.32103 z m 185.0631618,2.54306 a 44.983048,44.983048 0 0 1 1.13131,5.68124 l -0.50366,0.0729 c -0.53186,0.0762 -10.37408,1.47516 -21.74245,3.09167 a 22.491525,22.491525 0 0 0 -0.58577,-2.85301 c 10.58295,-2.91084 20.02568,-5.51686 21.70057,-5.99273 z m -86.70003,0.0464 20.50578,5.66264 c 0.6206,0.17139 0.52455,0.14206 1.13281,0.30993 a 22.491525,22.491525 0 0 0 -0.55943,2.82823 c -0.44846,-0.0635 -0.38848,-0.0551 -0.84304,-0.11934 -11.74265,-1.66119 -20.97401,-2.98459 -21.39221,-3.06376 a 44.983048,44.983048 0 0 1 1.15609,-5.6177 z m 43.33299,4.08968 a 7.7970615,7.7970615 0 0 1 7.79658,7.79659 7.7970615,7.7970615 0 0 1 -7.79658,7.79658 7.7970615,7.7970615 0 0 1 -7.79659,-7.79658 7.7970615,7.7970615 0 0 1 7.79659,-7.79659 z m 109.62331,2.10452 c 14.3623,0.0448 27.41207,0.28175 32.64617,0.68805 a 142.44633,142.44633 0 0 1 0.11933,3.36598 c -3.2988,-0.26994 -12.3852,-0.79141 -22.61646,-1.29247 -12.69464,-0.62176 -48.52289,-0.83688 -62.88408,-0.37813 -1.42123,0.0454 -3.0115,0.11334 -4.51898,0.16894 a 52.480222,52.480222 0 0 0 -0.0976,-1.21186 c 4.8734,-0.29635 9.58056,-0.55558 13.70408,-0.74543 9.93136,-0.45719 27.5741,-0.64529 43.64757,-0.59508 z M 7.6695147,146.62517 c 35.0852763,3.44934 59.6607793,4.80706 89.8443743,4.8196 a 52.480222,52.480222 0 0 0 0.04641,1.31262 c -27.206013,0.48726 -56.507329,-0.32459 -82.937324,-2.34473 -3.774138,-0.2884 -5.5144937,-0.41172 -7.1178116,-0.52536 a 142.44633,142.44633 0 0 1 0.1642809,-3.26213 z m 194.7488553,3.24974 c 28.49504,0.45017 53.32979,2.12068 82.92801,5.47048 3.16642,0.35836 5.25608,0.58707 6.73969,0.78571 a 142.44633,142.44633 0 0 1 -0.16584,3.30707 c -0.23991,-0.0374 -0.41977,-0.0622 -0.67102,-0.10224 -1.84711,-0.29525 -8.51156,-1.19258 -14.80902,-1.99292 -25.66655,-3.262 -47.7676,-5.18939 -74.06371,-6.33058 a 52.480222,52.480222 0 0 0 0.048,-0.95617 52.480222,52.480222 0 0 0 -0.007,-0.18132 z m -74.95788,0.3363 a 22.491525,22.491525 0 0 0 0.22163,2.86231 c -10.82697,1.42947 -21.62888,2.86866 -22.2678,2.97698 a 44.983048,44.983048 0 0 1 -0.44477,-5.73083 l 12.22255,-0.076 c 4.03472,-0.0253 6.7374,-0.0201 10.26839,-0.0326 z m 44.96947,0 c 3.50128,0.0127 6.14909,0.008 10.15986,0.0325 l 12.32487,0.0744 a 44.983048,44.983048 0 0 1 -0.4417,5.74787 c -0.67542,-0.113 -11.49892,-1.55432 -22.2693,-2.97699 a 22.491525,22.491525 0 0 0 0.22611,-2.87779 z m 29.804,3.64491 c 0.73583,0.0716 1.5367,0.14489 2.23623,0.21539 28.46398,2.86624 58.81023,7.44369 86.77439,13.07647 a 142.44633,142.44633 0 0 1 -0.49435,3.26987 c -6.73267,-1.51678 -21.04794,-4.52169 -28.72386,-5.98498 -19.48405,-3.71428 -40.21195,-6.94342 -59.85131,-9.37728 a 52.480222,52.480222 0 0 0 0.0588,-1.1995 z m -104.411676,1.78216 a 52.480222,52.480222 0 0 0 0.134789,1.11579 c -20.262959,1.9568 -40.578204,3.25602 -60.328621,3.81848 -5.297833,0.15088 -14.907628,0.30087 -21.354989,0.33318 l -8.3203895,0.0402 a 142.44633,142.44633 0 0 1 -0.1813113,-3.11958 l 22.6784398,0.007 c 25.787314,0.008 46.243186,-0.62254 67.372049,-2.19439 z m 30.516886,0.6013 a 22.491525,22.491525 0 0 0 0.96392,2.72903 c -1.14839,0.49336 -1.00332,0.42754 -2.20058,0.94222 -10.06924,4.32845 -15.8588,6.81697 -18.42605,7.919 a 44.983048,44.983048 0 0 1 -1.97434,-5.43327 c 3.96043,-1.10908 12.79516,-3.62684 21.63705,-6.15698 z m 43.20899,0.0325 c 0.48183,0.13716 0.76394,0.21869 1.2537,0.358 l 20.35232,5.78969 a 44.983048,44.983048 0 0 1 -1.91387,5.43484 c -2.57097,-1.09055 -8.41099,-3.58584 -18.61201,-7.96861 -0.80741,-0.3469 -1.28925,-0.55208 -2.07503,-0.88953 a 22.491525,22.491525 0 0 0 0.99489,-2.72439 z m 30.21775,1.6489 c 30.0163,5.33798 59.91009,12.20006 87.82203,20.18496 a 142.44633,142.44633 0 0 1 -0.78881,3.19395 c -0.14962,-0.0461 -0.25401,-0.077 -0.41068,-0.12546 -27.81558,-8.64108 -56.81148,-15.99867 -86.80538,-22.04772 a 52.480222,52.480222 0 0 0 0.18294,-1.20567 z m -103.405879,1.64889 a 52.480222,52.480222 0 0 0 0.257253,1.14369 c -29.542399,5.26161 -55.311854,8.46703 -86.433482,10.94713 -1.401374,0.11156 -1.916713,0.14634 -2.9041464,0.22163 a 142.44633,142.44633 0 0 1 -0.3998277,-3.29779 l 1.3048541,-0.0605 c 27.153598,-1.26138 58.560709,-4.4922 88.175349,-8.9542 z m 32.450909,2.25638 a 22.491525,22.491525 0 0 0 1.64581,2.34469 c -1.92035,1.55178 -3.27611,2.65236 -5.36818,4.34073 l -12.13115,9.79108 a 44.983048,44.983048 0 0 1 -3.31483,-4.72662 c 4.92689,-3.03021 9.90094,-6.08257 19.16835,-11.74988 z m 38.24686,0.0511 c 1.3364,0.82026 2.20481,1.35601 3.61237,2.2192 l 15.5265,9.52141 a 44.983048,44.983048 0 0 1 -3.31945,4.72197 c -4.08668,-3.29124 -5.54624,-4.45786 -12.26442,-9.88097 -2.36271,-1.90723 -3.26424,-2.62178 -5.23646,-4.21056 a 22.491525,22.491525 0 0 0 1.68146,-2.37105 z m 31.95963,0.0201 c 0.4687,0.12105 1.00436,0.25467 1.45362,0.37194 27.23211,7.10799 54.45654,15.59735 79.96655,24.93638 2.23589,0.81853 3.19235,1.1682 4.43836,1.62408 a 142.44633,142.44633 0 0 1 -0.81515,3.19549 c -1.72103,-0.68093 -3.37208,-1.33743 -5.32479,-2.09673 -26.14531,-10.16676 -52.99777,-19.16352 -80.02391,-26.83788 a 52.480222,52.480222 0 0 0 0.30532,-1.19328 z M 99.252674,163.5417 a 52.480222,52.480222 0 0 0 0.326984,1.16538 c -27.324017,7.03387 -54.605736,12.65889 -83.800518,17.31181 -1.661774,0.26483 -2.910253,0.44182 -4.322138,0.6524 a 142.44633,142.44633 0 0 1 -0.726814,-3.23577 c 1.192684,-0.15452 2.02287,-0.26627 3.816935,-0.49901 27.634647,-3.58514 56.390774,-8.82082 84.705551,-15.39481 z m 100.717176,2.32301 c 28.23159,9.68725 57.12402,21.26552 83.45181,33.42568 a 142.44633,142.44633 0 0 1 -1.14991,3.15365 c -26.69797,-13.17297 -53.59616,-24.70888 -82.72343,-35.42011 a 52.480222,52.480222 0 0 0 0.42153,-1.15919 z m -65.29393,0.67877 a 22.491525,22.491525 0 0 0 2.23469,1.80852 c -1.17855,1.65904 -1.97838,2.79007 -3.24197,4.567 l -9.7849,13.76142 a 44.983048,44.983048 0 0 1 -4.4864,-3.67902 c 5.55646,-5.99625 9.47034,-10.20546 15.27858,-16.45792 z m 30.4735,0.0465 c 5.32051,5.7294 10.39757,11.20164 15.28787,16.47959 a 44.983048,44.983048 0 0 1 -4.52361,3.64649 l -9.8112,-13.79706 c -1.24532,-1.75126 -2.03245,-2.86333 -3.1955,-4.50037 a 22.491525,22.491525 0 0 0 2.24244,-1.82865 z m -64.66007,0.85389 a 52.480222,52.480222 0 0 0 0.36107,1.0879 C 72.56574,178.15027 42.93147,186.639 14.392152,193.28519 A 142.44633,142.44633 0 0 1 13.343,190.1269 c 30.944771,-6.57387 59.822247,-14.08047 87.14635,-22.68309 z m 98.09504,2.22072 c 26.81947,11.63144 55.05482,25.59839 80.62981,39.86163 a 142.44633,142.44633 0 0 1 -1.43969,2.98165 c -7.06904,-4.14908 -14.77835,-8.59239 -20.59873,-11.81343 -18.5867,-10.28611 -39.18297,-20.68182 -59.0501,-29.8753 a 52.480222,52.480222 0 0 0 0.45871,-1.15455 z m -58.92771,0.38745 a 22.491525,22.491525 0 0 0 2.64536,1.13593 c -0.19731,0.54889 -0.31483,0.8775 -0.51603,1.43657 -3.84338,10.6802 -6.37803,17.72475 -7.08529,19.69372 a 44.983048,44.983048 0 0 1 -5.2876,-2.28583 c 2.03014,-3.98573 5.22255,-10.21582 10.24356,-19.98039 z m 20.48254,0.0264 c 0.58895,1.14914 0.77991,1.53423 1.42727,2.79568 4.85473,9.45975 7.22952,14.11051 8.82715,17.24514 a 44.983048,44.983048 0 0 1 -5.30469,2.24554 c -0.6807,-1.8978 -3.2839,-9.12944 -7.11469,-19.76188 -0.19312,-0.53627 -0.30611,-0.85675 -0.49591,-1.38389 a 22.491525,22.491525 0 0 0 2.66087,-1.14059 z m -58.16216,1.11115 a 52.480222,52.480222 0 0 0 0.4835,1.07702 c -27.398715,11.7979 -55.272766,22.14671 -84.398696,31.38012 a 142.44633,142.44633 0 0 1 -1.250622,-3.08081 c 27.414455,-7.86662 57.591659,-18.31488 85.165818,-29.37629 z m 43.44299,0.87403 a 22.491525,22.491525 0 0 0 2.84684,0.41687 c -0.003,0.0367 -10e-4,0.0343 -0.007,0.0713 -0.87014,12.02735 -1.58231,22.006 -1.58226,22.17634 l 0.007,0.003 v 0.14569 a 44.983048,44.983048 0 0 1 -5.76802,-0.75781 c 0.15625,-0.72112 1.99626,-9.72812 4.36864,-21.38444 0.0756,-0.37121 0.0617,-0.31223 0.13494,-0.67102 z m 8.94805,0.0418 c 2.10748,10.47145 4.15301,20.53813 4.4864,21.99503 a 44.983048,44.983048 0 0 1 -5.7634,0.82754 l 10e-4,-0.19992 c 5e-5,-0.1701 -0.71211,-10.15054 -1.58224,-22.17788 -0.003,-0.0418 -0.003,-0.039 -0.007,-0.0808 a 22.491525,22.491525 0 0 0 2.86386,-0.36418 z m 42.51471,1.28472 c 2.45045,1.26563 4.61676,2.39451 5.95086,3.11647 25.12256,13.59497 48.63049,27.71825 71.46175,42.91298 a 142.44633,142.44633 0 0 1 -1.71552,2.79879 c -24.43465,-17.10067 -49.81256,-33.00603 -76.224,-47.73872 a 52.480222,52.480222 0 0 0 0.52691,-1.08944 z m -93.17317,1.40565 a 52.480222,52.480222 0 0 0 0.60902,1.06155 c -26.830891,14.11243 -54.295781,26.80712 -81.770393,37.81289 a 142.44633,142.44633 0 0 1 -1.328095,-2.96767 c 10.401749,-3.97496 23.397848,-9.10706 31.674505,-12.58675 16.473202,-6.92573 33.962532,-14.97147 50.814963,-23.32002 z m 91.23601,2.14015 c 25.24262,15.96135 49.67553,33.21626 73.56936,51.91058 a 142.44633,142.44633 0 0 1 -1.83486,2.73217 c -22.9693,-18.85641 -47.66013,-37.15211 -72.37451,-53.59826 a 52.480222,52.480222 0 0 0 0.64001,-1.04449 z m -89.21831,1.37925 a 52.480222,52.480222 0 0 0 0.70667,1.0073 C 81.298636,195.1339 53.800246,210.54113 27.955209,223.31566 a 142.44633,142.44633 0 0 1 -1.667494,-2.90727 c 15.841487,-7.49116 33.431935,-16.24065 44.60063,-22.28481 11.784379,-6.37736 23.514072,-13.05587 34.838995,-19.80837 z m 87.01929,2.04561 c 23.92348,17.83 46.72222,36.74464 69.23016,57.40432 a 142.44633,142.44633 0 0 1 -1.9759,2.59885 c -21.51408,-20.66841 -44.52004,-40.65662 -67.99347,-59.03149 a 52.480222,52.480222 0 0 0 0.73921,-0.97166 z m -84.68542,1.23666 a 52.480222,52.480222 0 0 0 0.73147,1.0228 c -23.748281,17.65735 -48.946338,34.4502 -74.792057,49.88206 a 142.44633,142.44633 0 0 1 -1.895295,-2.64847 c 19.407356,-11.07456 41.447787,-24.64108 58.77426,-36.34067 5.396254,-3.6438 11.298532,-7.74903 17.181622,-11.9157 z m 82.1997,2.03166 c 1.91081,1.67252 3.81003,3.32696 5.76336,5.0629 19.80096,17.59744 39.96718,37.35896 58.81453,57.48337 a 142.44633,142.44633 0 0 1 -2.2114,2.37257 c -0.97283,-1.09455 -1.96326,-2.21674 -2.89953,-3.25592 -19.10491,-21.20422 -39.37195,-41.63016 -60.26818,-60.75788 a 52.480222,52.480222 0 0 0 0.80122,-0.90504 z m -79.60548,1.12355 a 52.480222,52.480222 0 0 0 0.79501,0.90349 C 88.626846,205.55073 65.482159,223.71271 40.665919,241.2256 a 142.44633,142.44633 0 0 1 -2.160295,-2.45937 c 25.104208,-16.90095 49.20507,-34.9368 72.149806,-54.01343 z m 76.81908,1.91388 c 7.09483,7.22075 13.92572,14.34267 19.21485,20.09507 13.49856,14.68078 27.4259,30.99554 40.44586,47.28163 a 142.44633,142.44633 0 0 1 -2.46249,2.16343 c -12.55425,-16.51482 -25.57688,-32.44378 -39.54394,-48.35405 -7.03993,-8.01935 -11.87223,-13.35943 -18.44461,-20.33837 a 52.480222,52.480222 0 0 0 0.79033,-0.84771 z m -74.02805,1.02437 a 52.480222,52.480222 0 0 0 0.86472,0.80584 c -20.982181,21.33075 -43.232936,41.77096 -66.355427,60.98725 a 142.44633,142.44633 0 0 1 -2.147896,-2.40668 c 0.42077,-0.33187 0.87087,-0.68303 1.270757,-1.00111 22.651931,-18.0197 45.564009,-38.20959 66.367846,-58.3853 z m 71.11615,1.72017 c 19.40377,23.14956 37.08342,46.59852 54.26774,71.9282 a 142.44633,142.44633 0 0 1 -2.66087,1.95728 c -16.332,-25.33323 -33.92315,-49.83787 -52.50104,-73.09968 a 52.480222,52.480222 0 0 0 0.89417,-0.78571 z m -68.12677,1.01351 a 52.480222,52.480222 0 0 0 0.94997,0.72217 C 98.199224,213.9965 77.658722,236.04188 56.051429,257.0249 a 142.44633,142.44633 0 0 1 -2.405151,-2.24087 C 60.416083,248.4715 67.230686,241.92296 74.288406,234.93534 89.637405,219.73875 103.2377,205.39531 116.43584,190.4246 Z m 64.98861,1.55747 c 17.44195,24.42729 33.58199,49.67798 48.47335,75.79937 a 142.44633,142.44633 0 0 1 -2.69031,1.92317 c -14.20871,-26.21037 -30.38559,-52.8692 -46.73456,-77.04228 a 52.480222,52.480222 0 0 0 0.95152,-0.68031 z m -61.76366,0.89417 a 52.480222,52.480222 0 0 0 0.97785,0.69581 c -17.45998,24.38502 -35.995988,47.65472 -56.001816,70.34287 a 142.44633,142.44633 0 0 1 -2.645364,-2.00996 c 20.47966,-22.12633 39.82005,-45.26578 57.66933,-69.0287 z m 58.4597,1.44279 c 15.31459,25.41774 29.51345,51.99424 42.39073,79.27071 a 142.44633,142.44633 0 0 1 -2.82359,1.61944 c -5.16099,-11.56996 -10.94839,-23.81606 -17.26685,-36.4601 -8.66634,-17.34258 -14.98512,-29.22563 -23.35878,-43.82266 a 52.480222,52.480222 0 0 0 1.05849,-0.60748 z m -55.07204,0.72835 a 52.480222,52.480222 0 0 0 1.0414,0.64003 c -15.0614,24.8749 -32.73237,50.96824 -50.381029,74.50845 a 142.44633,142.44633 0 0 1 -2.832875,-1.73722 c 3.187717,-4.01771 6.246846,-7.90038 8.613288,-10.99054 14.644865,-19.12359 29.924786,-41.07492 43.559216,-62.42072 z m 51.51701,1.31105 c 12.49442,24.9398 23.77431,50.29877 33.70924,75.8319 0.72962,1.87512 1.6202,4.23577 2.48264,6.51499 a 142.44633,142.44633 0 0 1 -3.00954,1.3467 c -10.23269,-28.905 -21.23931,-55.65573 -34.26096,-83.1078 a 52.480222,52.480222 0 0 0 1.07862,-0.58579 z m -47.99606,0.61524 a 52.480222,52.480222 0 0 0 1.02902,0.49746 c -4.23694,8.47214 -8.34747,16.52428 -11.0169,21.46811 -10.59713,19.62598 -21.785854,38.67014 -33.39003,56.8697 a 142.44633,142.44633 0 0 1 -2.86542,-1.55747 c 16.418426,-24.42832 31.60539,-49.78896 46.24333,-77.2778 z m 44.35578,1.11733 c 9.20875,22.57542 17.43176,45.39466 24.85887,68.98375 1.27289,4.04268 3.16171,10.33446 4.85369,16.05343 a 142.44633,142.44633 0 0 1 -3.11801,1.03521 c -7.68988,-28.54012 -17.15744,-57.78457 -27.69949,-85.57958 a 52.480222,52.480222 0 0 0 1.10494,-0.49281 z m -40.64113,0.58581 a 52.480222,52.480222 0 0 0 1.12972,0.41222 c -11.3556,27.72826 -24.07906,54.76724 -38.318099,81.50384 a 142.44633,142.44633 0 0 1 -2.897953,-1.39936 C 104.2884,254.09584 118.41137,225.69217 130.28405,198.67674 Z m 36.84278,0.90191 c 9.1615,28.66303 17.17452,58.86535 23.06432,87.01928 a 142.44633,142.44633 0 0 1 -3.15211,0.93912 c -1.11921,-5.86401 -2.57498,-13.34063 -3.31792,-16.90423 -4.91341,-23.56756 -11.13157,-48.31418 -17.72714,-70.67759 a 52.480222,52.480222 0 0 0 1.13285,-0.37658 z m -33.04598,0.48352 a 52.480222,52.480222 0 0 0 1.14368,0.33165 c -0.64949,2.02849 -1.28924,4.0087 -1.88754,5.82224 -8.98239,27.2272 -18.74145,52.72215 -29.92181,78.30681 a 142.44633,142.44633 0 0 1 -3.06377,-1.11889 c 11.71811,-24.98322 23.80024,-54.9441 33.72944,-83.34181 z m 29.17325,0.72681 c 6.54231,27.65732 11.66966,55.08949 15.57457,83.48284 0.2726,1.98094 0.446,3.38097 0.64934,4.9637 a 142.44633,142.44633 0 0 1 -3.19549,0.71754 c -0.14963,-1.39435 -0.24471,-2.33576 -0.54393,-4.96373 -3.19297,-28.03668 -7.81913,-56.44327 -13.63591,-83.9431 a 52.480222,52.480222 0 0 0 1.15142,-0.25725 z m -25.26022,0.31305 a 52.480222,52.480222 0 0 0 1.17776,0.30063 c -6.61698,27.81722 -14.44668,54.89048 -23.58349,81.52091 -0.85323,2.48685 -1.18248,3.4623 -1.6303,4.77773 a 142.44633,142.44633 0 0 1 -3.17845,-0.81203 c 0.24481,-0.66005 0.45345,-1.22893 0.73302,-1.97743 10.00848,-26.79436 18.9079,-54.98209 26.48146,-83.80981 z m 21.33947,0.56563 c 4.48682,28.70942 7.40508,56.91416 9.33546,89.42908 a 142.44633,142.44633 0 0 1 -3.24047,0.39207 c -0.11696,-2.14859 -0.37197,-7.83476 -0.57959,-12.93854 -0.99166,-24.40367 -3.32841,-50.79597 -6.73657,-76.68579 a 52.480222,52.480222 0 0 0 1.22117,-0.19683 z m -17.38772,0.18908 a 52.480222,52.480222 0 0 0 1.21807,0.18441 c -4.1617,26.47449 -9.78319,53.99082 -16.32463,79.78056 -1.08466,4.27619 -1.60443,6.28635 -2.12468,8.30489 a 142.44633,142.44633 0 0 1 -3.18155,-0.49125 c 3.1829,-11.12772 9.76123,-36.68415 12.77425,-49.97811 2.54113,-11.21146 5.255,-24.76278 7.63854,-37.8005 z m 13.35382,0.34869 c 0.78489,10.19147 1.41014,20.56661 1.93094,31.81864 0.51693,11.21293 0.86581,45.80035 0.54397,54.25068 l -0.1517,3.95639 a 142.44633,142.44633 0 0 1 -3.24198,0.1146 l 0.0464,-0.79812 c 0.69143,-11.80836 1.04781,-33.28042 0.84305,-50.79789 -0.16585,-14.18612 -0.53125,-26.49151 -1.1499,-38.40025 a 52.480222,52.480222 0 0 0 1.17932,-0.14411 z m -9.31838,0.13179 a 52.480222,52.480222 0 0 0 1.22425,0.062 c -2.10578,26.86227 -5.29739,52.56741 -9.79726,79.05996 -0.8749,5.15086 -1.42959,8.32508 -1.78372,10.31642 a 142.44633,142.44633 0 0 1 -3.21253,-0.48508 c 1.34089,-6.42042 4.26526,-22.15085 5.86256,-31.64038 3.14442,-18.67996 5.72455,-37.96957 7.7067,-57.31291 z m 5.27676,0.15342 c -0.003,26.32705 -1.2351,53.32882 -3.67438,80.24083 -0.38629,4.26212 -0.72224,7.66103 -0.93293,9.60667 a 142.44633,142.44633 0 0 1 -3.29311,-0.16584 c 0.11821,-0.98316 0.24469,-2.0333 0.40136,-3.26214 1.8791,-14.74646 3.87476,-36.57708 4.90019,-53.61374 0.80253,-13.33292 1.1376,-20.74394 1.34671,-32.76084 a 52.480222,52.480222 0 0 0 1.25216,-0.045 z" />
      <animateTransform
        id="ani_init"
        attributeName="transform"
        begin="1s"
        dur="1s"
        type="translate"
        to="150 0"
        fill="freeze"
        repeatCount="0" />
    </g>
    <animateTransform
      id="ani"
      attributeName="transform"
      begin="ani_init.end;ani.end"
      dur="60s"
      type="rotate"
      from="0 300 150"
      to="-360 300 150"
      repeatCount="infinite" />-->
  </g>
  <g>
    <path
      style="color:#000000;"
      d="M 449.94365,-0.11270026 A 150.05621,150.05621 0 0 0 299.8873,149.94365 150.05621,150.05621 0 0 0 449.94365,299.99999 150.05621,150.05621 0 0 0 599.99999,149.94365 150.05621,150.05621 0 0 0 449.94365,-0.11270026 Z m 0,7.50312836 a 142.5534,142.5534 0 0 1 2.25651,0.1132136 c 0.086,1.8069176 0.23335,4.5533213 0.4389,8.0164663 1.06487,17.946758 1.38495,33.505635 1.17247,56.935681 -0.0841,9.272062 -0.2509,18.972772 -0.41874,25.139663 a 52.519666,52.519666 0 0 0 -1.33065,-0.0667 C 452.33345,76.742777 451.9211,55.089949 450.823,35.529487 450.31954,26.560526 449.29459,12.487259 448.7991,7.4307528 a 142.5534,142.5534 0 0 1 1.14455,-0.040326 z m -9.06641,0.3210304 c 0.21371,1.6234309 0.37891,2.9081335 0.84212,6.2887935 3.97619,29.018838 6.31559,54.943605 7.43489,83.452517 a 52.519666,52.519666 0 0 0 -1.22054,0.04184 C 446.38879,73.666886 443.78736,49.144432 440.25533,25.52166 439.29046,19.068284 438.1638,11.939101 437.50254,8.0324556 a 142.5534,142.5534 0 0 1 3.3747,-0.3210305 z m 19.30373,0.1907575 a 142.5534,142.5534 0 0 1 3.25063,0.1628412 l -0.16905,8.8213708 c -0.50508,26.487388 -2.36343,52.781506 -5.76924,81.149475 a 52.519666,52.519666 0 0 0 -1.20659,-0.183009 c 1.30558,-13.822266 2.30402,-28.013854 3.11106,-44.131661 0.21037,-4.201898 0.48141,-17.01263 0.60174,-28.467841 z M 429.59309,8.9924807 C 435.94362,36.810424 441.48767,68.75495 444.99327,97.705566 A 52.519666,52.519666 0 0 0 443.751,97.856 c -3.93224,-27.056276 -8.55714,-51.11533 -15.10706,-78.514539 -0.94975,-3.972907 -1.82712,-7.514355 -2.44417,-9.9364483 a 142.5534,142.5534 0 0 1 3.39332,-0.412532 z m 41.8131,0.2031639 a 142.5534,142.5534 0 0 1 3.35764,0.507136 c -0.86011,9.8320334 -3.81488,34.1514344 -5.92898,48.2027094 -1.89683,12.606598 -4.45101,26.93933 -7.22707,40.87948 a 52.519666,52.519666 0 0 0 -1.18798,-0.302418 c 4.80105,-27.430634 8.44765,-55.956479 10.41567,-82.050529 0.23005,-3.050084 0.41124,-5.279911 0.57072,-7.2363784 z m -52.97474,1.9029234 c 0.19016,0.611351 0.34032,1.100378 0.55676,1.791259 8.45853,26.998606 15.91141,56.133756 21.85336,85.336826 a 52.519666,52.519666 0 0 0 -1.20658,0.271402 c -6.38123,-28.025996 -14.12993,-55.622589 -23.34996,-83.150094 -0.45213,-1.349915 -0.78099,-2.358767 -1.16006,-3.506526 a 142.5534,142.5534 0 0 1 3.30648,-0.742867 z m 64.0821,0.21712 a 142.5534,142.5534 0 0 1 3.27699,0.837474 c -1.17293,6.569156 -2.87862,15.810685 -3.88338,20.831338 -4.28389,21.405933 -10.00722,44.928948 -16.20507,66.872133 a 52.519666,52.519666 0 0 0 -1.22055,-0.338098 C 471.8538,70.962449 477.97652,41.33286 482.16616,13.612533 Z m -75.04834,2.714031 1.27947,3.219614 c 11.02418,27.740356 20.09565,54.207642 28.02894,81.892346 a 52.519666,52.519666 0 0 0 -1.23448,0.314824 C 426.56083,70.859417 415.68973,41.477997 404.27352,15.090516 a 142.5534,142.5534 0 0 1 3.19169,-1.060797 z m 86.00526,0.237283 a 142.5534,142.5534 0 0 1 3.16689,1.156952 c -4.3e-4,0.0016 -8e-4,0.0015 -0.002,0.0031 -7.52628,29.228493 -16.33885,57.2686 -27.01313,85.861026 a 52.519666,52.519666 0 0 0 -1.18022,-0.43114 c 9.92188,-28.787664 18.60036,-58.745627 25.02805,-86.589935 z m -96.75127,3.51428 1.08407,2.197588 c 8.0721,16.356841 9.93853,20.31554 15.79719,33.500427 6.56895,14.783301 13.39984,31.513311 19.16881,46.896873 a 52.519666,52.519666 0 0 0 -1.1523,0.38306 C 420.62988,73.664609 407.24845,44.794976 393.6981,19.133644 a 142.5534,142.5534 0 0 1 3.0211,-1.352362 z m 107.40577,0.376863 a 142.5534,142.5534 0 0 1 3.08625,1.3322 c -1.50454,4.357683 -3.06446,8.828782 -4.29281,12.220887 -8.79442,24.286281 -18.61643,48.052259 -29.46972,71.333988 a 52.519666,52.519666 0 0 0 -1.1647,-0.56296 C 484.56671,74.397557 495.05845,46.580653 504.12497,18.158145 Z M 386.41676,22.39203 c 15.31097,25.431699 29.6794,52.317445 42.45672,79.51485 a 52.519666,52.519666 0 0 0 -1.12749,0.50403 C 415.4564,77.735853 401.77269,53.266373 387.15497,29.867242 c -1.06947,-1.711917 -2.42802,-3.836801 -3.7407,-5.896422 a 142.5534,142.5534 0 0 1 3.00249,-1.57879 z m 128.00912,0.583129 a 142.5534,142.5534 0 0 1 3.00715,1.453168 c -11.95159,27.323047 -25.62586,54.691224 -40.31652,80.648543 a 52.519666,52.519666 0 0 0 -1.0639,-0.65292 c 13.91263,-26.160381 27.50284,-54.954309 38.37327,-81.448791 z m -137.92542,4.962797 c 17.67281,24.690391 34.17307,50.380147 48.64627,75.758634 a 52.519666,52.519666 0 0 0 -1.11509,0.64052 C 408.55385,78.608296 391.7245,53.696877 373.57862,29.61445 a 142.5534,142.5534 0 0 1 2.92184,-1.676494 z m 147.7409,0.553662 a 142.5534,142.5534 0 0 1 2.94511,1.806767 c -13.95567,26.016566 -29.8891,52.389787 -46.56499,77.076885 a 52.519666,52.519666 0 0 0 -1.00031,-0.75993 c 13.45097,-20.93268 26.13355,-42.644268 37.91732,-64.944397 1.53703,-2.908744 4.06655,-7.917537 6.70287,-13.179325 z M 367.0758,34.170917 c 19.362,22.944272 37.59666,46.937516 54.41552,71.633313 a 52.519666,52.519666 0 0 0 -0.99567,0.71185 C 403.23818,82.382765 384.42476,58.830798 364.31836,36.142078 a 142.5534,142.5534 0 0 1 2.75744,-1.971161 z m 166.64606,0.617248 a 142.5534,142.5534 0 0 1 2.66749,2.026992 C 520.05577,62.192674 502.34607,86.90011 483.95587,109.94041 a 52.519666,52.519666 0 0 0 -0.99256,-0.78474 C 501.08062,85.388664 518.03659,60.532671 533.72186,34.788165 Z M 358.1133,41.104874 c 21.00502,21.181771 41.26298,43.843117 59.98316,67.126476 a 52.519666,52.519666 0 0 0 -0.97706,0.72736 C 398.15199,86.48838 377.32539,64.306563 355.56367,43.344336 a 142.5534,142.5534 0 0 1 2.54963,-2.239462 z m 184.55244,0.634308 a 142.5534,142.5534 0 0 1 2.49535,2.32476 c -15.79638,20.720587 -32.77893,41.139875 -49.73806,59.679178 -2.91425,3.1858 -5.64522,6.11231 -8.4104,9.04468 a 52.519666,52.519666 0 0 0 -0.8933,-0.83125 c 16.68016,-18.639172 33.57225,-39.240708 48.56406,-59.327132 2.5904,-3.470663 5.28519,-7.160462 7.98235,-10.890236 z m -192.97368,6.944813 c 22.7151,19.544212 44.74921,40.557609 65.21424,62.219505 a 52.519666,52.519666 0 0 0 -0.92586,0.81266 C 393.26732,90.787432 370.77398,70.349556 347.38591,51.16074 a 142.5534,142.5534 0 0 1 2.30615,-2.476745 z m 201.29723,0.809556 a 142.5534,142.5534 0 0 1 2.34181,2.41316 c -18.29501,20.482789 -37.17866,39.6999 -57.39939,58.401269 -2.08287,1.92635 -4.08416,3.74417 -6.09493,5.57072 a 52.519666,52.519666 0 0 0 -0.82817,-0.94447 c 21.80317,-20.763784 42.6247,-42.765466 61.98068,-65.440679 z M 341.96251,56.98117 c 7.38846,5.39689 14.67717,10.85156 21.00193,15.775489 17.77984,13.841974 32.82178,26.456847 48.92077,41.087301 a 52.519666,52.519666 0 0 0 -0.83747,0.89796 c -4.40876,-3.81349 -8.79359,-7.55568 -12.78542,-10.86543 -14.79641,-12.268236 -36.31465,-28.754341 -52.20551,-39.997032 -1.69038,-1.195948 -3.8843,-2.713954 -6.23917,-4.33004 a 142.5534,142.5534 0 0 1 2.14487,-2.568248 z m 216.58884,0.87004 a 142.5534,142.5534 0 0 1 2.24101,2.551188 c -14.14737,13.607321 -27.11384,25.198936 -42.17447,37.757569 -9.04904,7.545753 -17.50598,14.345113 -26.17875,21.034503 a 52.519666,52.519666 0 0 0 -0.75682,-1.05924 c 12.93827,-10.53097 26.22507,-21.859295 37.15118,-31.797569 9.27928,-8.440339 19.60998,-18.378449 29.71785,-28.486451 z m -223.53521,8.014916 c 25.6847,15.828406 50.56987,32.963612 74.13023,51.070284 a 52.519666,52.519666 0 0 0 -0.7708,1.01426 C 383.95874,100.11815 358.29956,83.301296 332.98295,68.538282 a 142.5534,142.5534 0 0 1 2.03319,-2.672156 z m 230.54516,0.99101 a 142.5534,142.5534 0 0 1 1.97425,2.762105 c -23.08917,18.76765 -47.23201,36.369389 -72.7825,53.021279 a 52.519666,52.519666 0 0 0 -0.60174,-1.04994 c 24.3782,-16.74679 48.43472,-35.194882 71.40999,-54.733444 z m -236.83706,8.408837 c 1.9726,1.002017 4.07071,2.06262 5.51025,2.814837 25.80641,13.484835 49.26107,27.14089 72.38705,42.17757 a 52.519666,52.519666 0 0 0 -0.66532,1.07475 C 380.22589,105.49994 353.50725,90.888101 326.96711,78.133536 a 142.5534,142.5534 0 0 1 1.75713,-2.867563 z m 243.10878,1.02978 a 142.5534,142.5534 0 0 1 1.68581,2.94046 c -9.12599,6.248634 -18.9041,12.753716 -26.64246,17.655141 -17.20116,10.895006 -32.92467,20.134156 -50.05601,29.389056 a 52.519666,52.519666 0 0 0 -0.59088,-1.06545 c 26.41369,-15.18965 51.03542,-31.132748 75.60354,-48.919207 z m -248.70278,8.846184 c 28.15861,11.652805 55.03777,24.419143 81.31077,38.663283 a 52.519666,52.519666 0 0 0 -0.64361,1.07631 C 377.22404,111.31921 349.1972,98.77225 321.68173,88.141324 a 142.5534,142.5534 0 0 1 1.44851,-2.999387 z m 254.26268,1.045284 a 142.5534,142.5534 0 0 1 1.39577,3.117264 C 552.92495,104.20657 526.52132,117.6474 498.53718,130.11572 a 52.519666,52.519666 0 0 0 -0.50869,-1.13678 c 15.82817,-7.50727 31.70154,-15.58377 46.48124,-23.6989 9.5548,-5.24631 21.94667,-12.474283 32.88319,-19.092819 z m -259.08745,9.16877 c 18.58487,6.054159 39.75651,13.686749 56.8566,20.575439 8.39903,3.38351 17.95887,7.46012 27.34965,11.61139 a 52.519666,52.519666 0 0 0 -0.52885,1.09493 C 374.12994,117.16732 343.62908,106.28279 317.16558,98.477897 a 142.5534,142.5534 0 0 1 1.13989,-3.121906 z m 263.73541,1.217434 a 142.5534,142.5534 0 0 1 1.24225,3.14518 c -27.78692,13.159725 -54.54675,24.228405 -83.3331,34.375105 a 52.519666,52.519666 0 0 0 -0.41098,-1.2376 c 29.53067,-11.16775 55.60651,-22.67315 82.50183,-36.282685 z M 446.7504,105.04275 c 0.0313,0.0279 0.0418,0.0606 0.0418,0.10391 0,0.11992 0.6866,10.10517 1.52452,22.18835 l 0.0123,0.18145 a 22.508431,22.508431 0 0 0 -2.75901,0.3536 c -0.0606,-0.31143 -0.0855,-0.44644 -0.14733,-0.76303 l -4.15324,-21.29505 a 45.016859,45.016859 0 0 1 5.48079,-0.76923 z m 6.24381,0.0372 a 45.016859,45.016859 0 0 1 5.52112,0.69014 l -4.16255,21.33848 c -0.0609,0.31273 -0.0857,0.44603 -0.14578,0.75372 a 22.508431,22.508431 0 0 0 -2.75901,-0.37376 l 0.0123,-0.15198 c 0.83789,-12.0832 1.52295,-22.06831 1.52295,-22.18836 0,-0.0258 0.002,-0.0483 0.0108,-0.0682 z m -138.56747,0.89951 c 6.11163,1.47228 13.56274,3.31064 18.71594,4.66038 22.6437,5.93081 45.73562,12.99605 67.75304,20.69796 a 52.519666,52.519666 0 0 0 -0.4234,1.16161 c -28.49054,-9.20288 -58.44458,-17.24007 -87.06916,-23.2988 a 142.5534,142.5534 0 0 1 1.02358,-3.22117 z m 271.3626,1.27947 a 142.5534,142.5534 0 0 1 1.07476,3.23357 c -28.00155,10.6341 -56.43586,19.79404 -85.81761,27.62106 a 52.519666,52.519666 0 0 0 -0.2683,-1.19882 c 28.90446,-8.41415 56.1503,-17.89813 83.38739,-28.99203 0.85555,-0.34849 1.14262,-0.46687 1.62376,-0.66378 z m -121.23801,0.15509 a 45.016859,45.016859 0 0 1 5.10238,2.12005 l -8.5934,17.5931 v 0.002 c -0.49386,1.01101 -0.7932,1.61879 -1.27016,2.59462 a 22.508431,22.508431 0 0 0 -2.56825,-1.04995 c 3.62068,-10.55546 6.53677,-19.01762 7.32943,-21.25937 z m -29.31617,0.0404 c 0.78218,2.23935 3.70668,10.76831 7.31547,21.25782 a 22.508431,22.508431 0 0 0 -2.53722,1.06391 c -0.68231,-1.39579 -0.59681,-1.21398 -1.3167,-2.68766 l -8.56548,-17.5342 a 45.016859,45.016859 0 0 1 5.10393,-2.09987 z m 39.83885,5.15975 a 45.016859,45.016859 0 0 1 4.38897,3.38246 c -4.61702,5.30666 -9.61652,11.0632 -14.75967,16.99138 a 22.508431,22.508431 0 0 0 -2.21464,-1.70907 c 1.03758,-1.53722 1.61052,-2.3745 2.75124,-4.06794 z m -50.32276,0.0712 9.78291,14.52392 c 1.15213,1.71036 1.73232,2.55738 2.77917,4.10827 a 22.508431,22.508431 0 0 0 -2.19914,1.71838 c -5.13173,-5.91511 -10.1168,-11.65374 -14.7364,-16.96348 a 45.016859,45.016859 0 0 1 4.37346,-3.38709 z m -113.31149,4.20287 c 1.00617,0.15853 1.69466,0.26885 3.33127,0.52264 26.10732,4.04849 58.50646,10.87866 84.78472,17.84745 a 52.519666,52.519666 0 0 0 -0.31016,1.21744 c -28.75104,-6.81981 -58.83229,-12.36412 -88.63711,-16.33071 a 142.5534,142.5534 0 0 1 0.83128,-3.25682 z m 277.30244,1.3415 a 142.5534,142.5534 0 0 1 0.74597,3.31887 c -28.41656,8.29555 -58.3147,15.34883 -87.63988,20.70107 a 52.519666,52.519666 0 0 0 -0.15353,-1.25156 c 29.68724,-6.14384 58.16891,-13.56787 85.84552,-22.37912 0.61133,-0.19462 0.78632,-0.25517 1.20192,-0.38926 z m -104.86854,2.21155 a 45.016859,45.016859 0 0 1 3.38247,4.38587 l -14.57822,9.82167 c -1.6899,1.13835 -2.52432,1.71096 -4.05865,2.74661 a 22.508431,22.508431 0 0 0 -1.70906,-2.21776 c 5.91954,-5.13561 11.66246,-10.12434 16.96346,-14.73639 z m -67.92826,0.0387 c 5.30889,4.61741 11.07185,9.62356 16.99292,14.75967 a 22.508431,22.508431 0 0 0 -1.69977,2.21466 c -1.54137,-1.0401 -2.38522,-1.61854 -4.08344,-2.76211 l -14.57976,-9.81857 a 45.016859,45.016859 0 0 1 3.37005,-4.39363 z m -106.67066,7.47833 c 5.11302,0.36341 15.08549,1.22943 22.59467,1.98822 21.58825,2.18146 45.10543,5.48732 66.65501,9.34711 a 52.519666,52.519666 0 0 0 -0.20782,1.22829 c -26.20526,-4.04002 -54.11918,-7.10267 -78.9984,-8.57477 -4.55427,-0.26945 -8.38589,-0.51705 -10.54594,-0.66687 a 142.5534,142.5534 0 0 1 0.50249,-3.32197 z m 281.59836,1.46402 a 142.5534,142.5534 0 0 1 0.40168,3.31267 l -7.29066,1.46402 c -26.15092,5.25318 -53.50478,9.3286 -81.64575,12.18832 a 52.519666,52.519666 0 0 0 -0.13957,-1.25621 c 29.39994,-3.677 57.83796,-8.64692 84.8452,-14.85272 1.77484,-0.40783 2.61591,-0.58709 3.8291,-0.85608 z m -100.49817,0.80025 a 45.016859,45.016859 0 0 1 2.09368,5.11788 c -1.89182,0.66508 -8.86107,3.07518 -19.64027,6.78353 -0.87954,0.30258 -0.75279,0.25692 -1.60671,0.55056 a 22.508431,22.508431 0 0 0 -1.06544,-2.5698 c 1.3746,-0.67182 1.19276,-0.58671 2.64268,-1.29498 z m -80.87342,0.079 c 3.83345,1.8563 10.34628,5.02785 20.20169,9.84029 a 22.508431,22.508431 0 0 0 -1.04374,2.56825 c -0.88836,-0.30542 -0.75855,-0.25702 -1.67495,-0.57227 l -19.59219,-6.7401 a 45.016859,45.016859 0 0 1 2.10919,-5.09617 z m -101.56517,8.73297 1.83157,0.003 c 22.16109,0.0269 53.26764,1.32521 74.30702,3.10175 4.13422,0.34907 8.87685,0.79994 13.80277,1.30118 a 52.519666,52.519666 0 0 0 -0.17679,1.16315 c -22.59295,-1.67711 -45.72304,-2.39787 -71.19751,-2.24726 l -18.73922,0.11165 a 142.5534,142.5534 0 0 1 0.17216,-3.43362 z m 284.2333,1.6796 a 142.5534,142.5534 0 0 1 0.11941,3.35609 c -22.75052,2.95906 -51.26139,5.19207 -81.42863,6.35857 -0.66646,0.0259 -3.98166,0.0477 -8.42435,0.0636 a 52.519666,52.519666 0 0 0 0.0263,-0.549 52.519666,52.519666 0 0 0 -0.0201,-0.61105 c 17.74038,-0.76081 32.37374,-1.8592 49.3457,-3.59183 11.54356,-1.17844 32.78134,-3.8447 40.38165,-5.02637 z m -98.06951,0.66376 a 45.016859,45.016859 0 0 1 0.75216,5.53043 l -0.31636,0.003 c -0.23199,0.004 -10.01874,0.68185 -21.74792,1.50589 -0.22208,0.0157 -0.19177,0.0122 -0.41252,0.0279 a 22.508431,22.508431 0 0 0 -0.34119,-2.7652 c 0.30515,-0.0595 0.43741,-0.0838 0.74752,-0.14424 z m -88.33622,0.0233 c 0.59901,0.11145 9.94039,1.93025 21.65174,4.21526 0.18247,0.0356 0.25961,0.05 0.44046,0.0853 a 22.508431,22.508431 0 0 0 -0.36757,2.74661 c -0.17826,-0.0122 -0.14793,-0.0107 -0.32722,-0.0233 -12.04963,-0.83556 -21.98166,-1.51985 -22.0705,-1.51985 -0.006,0 -0.009,-0.006 -0.0124,-0.008 a 45.016859,45.016859 0 0 1 0.68549,-5.49629 z m 44.17974,0.73977 a 7.802922,7.802922 0 0 1 7.68924,6.47644 7.802922,7.802922 0 0 1 0.1132,1.32755 7.802922,7.802922 0 0 1 -0.15509,1.54932 7.802922,7.802922 0 0 1 0,0.002 7.802922,7.802922 0 0 1 -0.0496,0.19231 7.802922,7.802922 0 0 1 -0.14423,0.56296 7.802922,7.802922 0 0 1 -1.01272,2.09833 7.802922,7.802922 0 0 1 -0.002,0.002 7.802922,7.802922 0 0 1 -1.00343,1.19107 7.802922,7.802922 0 0 1 -0.84988,0.70411 7.802922,7.802922 0 0 1 -1.75869,0.97084 7.802922,7.802922 0 0 1 -0.73977,0.24504 7.802922,7.802922 0 0 1 -0.76148,0.17215 7.802922,7.802922 0 0 1 -0.77543,0.093 7.802922,7.802922 0 0 1 -0.55056,0.0201 7.802922,7.802922 0 0 1 -3.03817,-0.61571 7.802922,7.802922 0 0 1 -0.70253,-0.33964 7.802922,7.802922 0 0 1 -3.94853,-5.5211 7.802922,7.802922 0 0 1 -0.11321,-1.326 7.802922,7.802922 0 0 1 0.0388,-0.77855 7.802922,7.802922 0 0 1 0,-0.002 7.802922,7.802922 0 0 1 0.11633,-0.77079 7.802922,7.802922 0 0 1 0.4606,-1.48728 7.802922,7.802922 0 0 1 0,-0.002 7.802922,7.802922 0 0 1 0.33966,-0.70099 7.802922,7.802922 0 0 1 0,-0.002 7.802922,7.802922 0 0 1 0.87933,-1.28412 7.802922,7.802922 0 0 1 0,-0.002 7.802922,7.802922 0 0 1 0.49473,-0.53038 7.802922,7.802922 0 0 1 0.0356,-0.0388 7.802922,7.802922 0 0 1 0.002,-0.002 7.802922,7.802922 0 0 1 0.95534,-0.77854 7.802922,7.802922 0 0 1 0.94139,-0.57693 7.802922,7.802922 0 0 1 2.21155,-0.73667 7.802922,7.802922 0 0 1 0.77543,-0.093 7.802922,7.802922 0 0 1 0.55211,-0.0201 z m -69.50705,5.44821 c 6.51893,-0.002 12.09424,0.0211 17.10147,0.0712 a 52.519666,52.519666 0 0 0 -0.0651,1.29034 c -9.51999,0.007 -18.16583,0.0785 -22.67532,0.22951 -23.40033,0.78309 -47.70251,2.46536 -65.66555,4.54717 -0.82629,0.0957 -0.92255,0.11194 -1.60051,0.19231 a 142.5534,142.5534 0 0 1 -0.12251,-3.43984 c 1.29774,-0.0955 2.22051,-0.15637 4.52079,-0.34739 22.72698,-1.88829 40.13761,-2.53383 68.50676,-2.54344 z m 47.07986,3.96248 a 22.508431,22.508431 0 0 0 0.34895,2.74504 c -0.18458,0.0359 -0.2635,0.0505 -0.44976,0.0868 -11.69029,2.28086 -20.98065,4.08776 -21.61142,4.20753 a 45.016859,45.016859 0 0 1 -0.76458,-5.46218 c 0.015,-0.022 0.0317,-0.0341 0.0511,-0.0341 0.0888,0 10.05038,-0.68485 22.13563,-1.52296 z m 44.87609,0.008 0.15663,0.0109 c 12.08527,0.8381 22.07139,1.52452 22.19146,1.52452 0.024,0 0.0431,0.002 0.062,0.008 a 45.016859,45.016859 0 0 1 -0.69945,5.51956 l -21.32296,-4.1579 c -0.32302,-0.0629 -0.4609,-0.0885 -0.77854,-0.15042 a 22.508431,22.508431 0 0 0 0.39082,-2.75436 z m -74.90567,0.16749 a 52.519666,52.519666 0 0 0 0.0434,1.22054 c -16.69603,1.39049 -32.05294,3.14731 -49.10842,5.56608 -11.62527,1.64869 -31.66219,4.96528 -39.28984,6.50437 -0.39316,0.0793 -0.42841,0.0851 -0.76148,0.15198 a 142.5534,142.5534 0 0 1 -0.41098,-3.39796 c 26.57214,-4.55409 59.74335,-8.21874 89.52728,-10.04517 z m 194.90763,0.27138 a 142.5534,142.5534 0 0 1 -0.1737,3.45691 c -1.73435,0.0329 -5.57539,0.15962 -8.7826,0.29157 -9.55367,0.39374 -50.94441,0.40532 -61.11838,0.0171 -6.29585,-0.24031 -13.21932,-0.59372 -20.09777,-1.0003 a 52.519666,52.519666 0 0 0 0.0619,-1.23761 c 5.74578,0.14592 12.37523,0.22728 22.25816,0.30862 15.82821,0.13028 28.86132,0.05 36.56183,-0.22488 11.47632,-0.4098 26.38823,-1.18359 31.29044,-1.61136 z m -194.57264,3.8586 a 52.519666,52.519666 0 0 0 0.15509,1.27481 c -25.71591,4.22761 -49.02829,9.12563 -73.38424,15.35519 -5.71848,1.46265 -11.7929,3.06167 -14.64336,3.84618 a 142.5534,142.5534 0 0 1 -0.62345,-3.29406 c 5.29444,-1.33697 14.1211,-3.44699 20.72433,-4.91626 22.31441,-4.96518 44.86578,-9.04414 67.77163,-12.26586 z m 30.87015,1.42835 a 22.508431,22.508431 0 0 0 1.06234,2.54808 c -0.98751,0.48288 -1.60328,0.78694 -2.62717,1.28722 h -0.002 c -9.64368,4.71188 -14.60518,7.11916 -17.60398,8.56859 a 45.016859,45.016859 0 0 1 -2.08902,-5.09773 l 19.59839,-6.737 c 0.64627,-0.22211 1.02833,-0.35184 1.661,-0.56916 z m 42.49085,0.0311 c 9.59835,3.28823 18.52674,6.35826 21.26248,7.31392 a 45.016859,45.016859 0 0 1 -2.13245,5.11013 c -3.02121,-1.47685 -7.9605,-3.8907 -17.60863,-8.60114 -1.00477,-0.49055 -1.60914,-0.78698 -2.57909,-1.26086 a 22.508431,22.508431 0 0 0 1.05769,-2.56205 z m 30.63595,0.39703 c 26.77429,3.07855 53.69403,4.86845 82.98417,5.54748 l 7.01925,0.16284 a 142.5534,142.5534 0 0 1 -0.41254,3.23822 l -3.69727,-0.11942 c -26.1503,-0.83848 -57.05279,-3.61054 -86.07662,-7.61789 a 52.519666,52.519666 0 0 0 0.18301,-1.21123 z m -103.389,2.2348 a 52.519666,52.519666 0 0 0 0.28227,1.25777 c -30.26567,7.52997 -60.11991,16.56761 -86.28133,26.17719 a 142.5534,142.5534 0 0 1 -0.74132,-3.29715 l 5.17371,-1.68271 c 28.99603,-9.43504 54.336,-16.41408 81.56667,-22.4551 z m 102.61667,1.87347 c 27.69888,5.44417 55.63608,9.51816 84.37529,12.30617 2.55441,0.24781 3.43477,0.32571 4.79065,0.45131 a 142.5534,142.5534 0 0 1 -0.49937,3.30492 c -1.29308,-0.15097 -2.18344,-0.25683 -4.27266,-0.49784 -27.2209,-3.1403 -56.07473,-8.05651 -84.69323,-14.39056 a 52.519666,52.519666 0 0 0 0.29932,-1.174 z m -69.76295,0.69478 a 22.508431,22.508431 0 0 0 1.70285,2.2038 c -5.90768,5.12446 -11.65344,10.11364 -16.965,14.73329 a 45.016859,45.016859 0 0 1 -3.37625,-4.37345 l 14.50997,-9.77206 c 1.71673,-1.15603 2.57204,-1.74135 4.12843,-2.79158 z m 37.27215,0.048 c 1.55556,1.05002 2.40606,1.63245 4.12222,2.78847 l 14.54875,9.79997 a 45.016859,45.016859 0 0 1 -3.39332,4.37191 c -5.3147,-4.62442 -11.06504,-9.61911 -16.98827,-14.75811 a 22.508431,22.508431 0 0 0 1.71062,-2.20224 z m -69.2155,1.43766 a 52.519666,52.519666 0 0 0 0.39702,1.19262 c -28.49795,9.56002 -57.30159,20.87034 -83.81078,32.9342 a 142.5534,142.5534 0 0 1 -1.06545,-3.20566 c 3.56056,-1.51567 7.4436,-3.1525 11.00655,-4.6185 21.7712,-8.95792 48.87488,-18.69864 71.66899,-25.75536 0.55493,-0.17181 1.21676,-0.36792 1.80367,-0.54746 z m 100.63774,1.84553 c 4.08319,1.15325 8.05316,2.24957 11.66103,3.21032 23.79671,6.33675 52.86431,12.63513 76.13704,16.57109 a 142.5534,142.5534 0 0 1 -0.83591,3.26924 c -0.83759,-0.16807 -1.41652,-0.2867 -2.93115,-0.58623 -28.272,-5.59099 -56.15225,-12.62107 -84.45595,-21.30281 a 52.519666,52.519666 0 0 0 0.42494,-1.16161 z m -64.80325,1.04531 a 22.508431,22.508431 0 0 0 2.20378,1.70286 c -1.05243,1.55967 -1.64053,2.41692 -2.79932,4.13771 l -9.78446,14.53014 a 45.016859,45.016859 0 0 1 -4.37656,-3.3778 c 4.62476,-5.31743 9.62433,-11.07628 14.75656,-16.99291 z m 29.48365,0.0667 c 5.12773,5.91137 10.12014,11.66119 14.73176,16.96346 a 45.016859,45.016859 0 0 1 -4.38587,3.37471 l -9.80773,-14.56582 c -1.14219,-1.6962 -1.71998,-2.53902 -2.759,-4.0788 a 22.508431,22.508431 0 0 0 2.22084,-1.69355 z m -64.00611,0.98636 a 52.519666,52.519666 0 0 0 0.42339,1.21279 c -11.31498,4.82746 -22.85387,9.98237 -32.93126,14.76276 -14.3724,6.81782 -33.13324,16.50477 -47.9437,24.65268 a 142.5534,142.5534 0 0 1 -1.36012,-3.03815 c 2.68381,-1.40529 5.38466,-2.82146 8.30027,-4.31609 22.79321,-11.68435 48.59517,-23.34662 73.51142,-33.27399 z m 97.89271,1.82383 c 28.34393,10.3838 58.83455,19.89488 85.96494,26.74172 a 142.5534,142.5534 0 0 1 -1.1492,3.14827 c -28.09296,-7.81407 -57.37964,-17.69226 -85.30116,-28.73167 a 52.519666,52.519666 0 0 0 0.48542,-1.15851 z m -58.49275,0.37685 a 22.508431,22.508431 0 0 0 2.54964,1.04684 c -3.52141,10.27937 -6.46367,18.8383 -7.31238,21.26404 a 45.016859,45.016859 0 0 1 -5.08996,-2.11849 c 2.23635,-4.60603 5.79066,-11.88959 9.8527,-20.19239 z m 19.68679,0.0311 c 4.08194,8.34378 7.64668,15.64832 9.86821,20.22494 a 45.016859,45.016859 0 0 1 -5.11788,2.08593 l -6.74785,-19.63251 c -0.21728,-0.63189 -0.34418,-1.00486 -0.55677,-1.62377 a 22.508431,22.508431 0 0 0 2.55429,-1.05459 z m -57.46142,1.66718 a 52.519666,52.519666 0 0 0 0.49162,1.09803 c -2.11336,1.0935 -4.34056,2.23982 -5.96156,3.10329 -23.81127,12.68393 -48.96026,27.70556 -71.56197,42.64904 a 142.5534,142.5534 0 0 1 -1.65168,-2.88153 c 6.32581,-3.98022 13.0619,-8.15475 18.51588,-11.40358 8.81852,-5.25298 23.26438,-13.42937 32.87077,-18.60738 6.1601,-3.32037 17.30838,-8.99114 27.29694,-13.95787 z m 43.3159,0.16285 a 22.508431,22.508431 0 0 0 2.74195,0.38771 l -0.0185,0.26676 c -0.83809,12.08532 -1.52451,22.04523 -1.52451,22.13406 l 0.002,0.002 c 0,0.002 -0.003,0.002 -0.003,0.005 a 45.016859,45.016859 0 0 1 -5.49785,-0.6948 c 0.11405,-0.61179 1.92732,-9.93176 4.21063,-21.63469 0.0374,-0.19283 0.0527,-0.27439 0.09,-0.46526 z m 8.59338,0.0311 h 0.002 c 0.0345,0.17763 0.0489,0.25336 0.0838,0.4327 2.28337,11.70286 4.09459,21.02295 4.21062,21.63468 a 45.016859,45.016859 0 0 1 -5.45753,0.74441 c -0.0269,-0.0159 -0.0434,-0.0333 -0.0434,-0.0543 0,-0.089 -0.68495,-10.0503 -1.52295,-22.13562 l -0.0217,-0.28381 a 22.508431,22.508431 0 0 0 2.74971,-0.33809 z m 42.57305,1.58034 c 26.74256,12.34744 54.37659,23.36473 83.72547,33.40737 a 142.5534,142.5534 0 0 1 -1.48263,3.07073 c -5.73684,-2.11726 -11.76453,-4.37366 -15.75533,-5.9321 -23.00878,-8.98506 -44.98445,-18.6577 -67.00085,-29.48055 a 52.519666,52.519666 0 0 0 0.51334,-1.06545 z m -92.62905,1.87655 a 52.519666,52.519666 0 0 0 0.6126,1.07011 c -25.10131,15.82441 -50.3898,33.62372 -73.70683,51.86254 a 142.5534,142.5534 0 0 1 -1.82848,-2.82569 c 23.91774,-17.8289 49.20061,-34.74802 74.92271,-50.10719 z m 90.60981,1.73698 c 26.2529,14.72164 53.48417,28.20695 80.80208,40.02806 a 142.5534,142.5534 0 0 1 -1.66409,2.93114 C 545.9793,207.32145 519.99976,193.69789 494.08927,178.29521 a 52.519666,52.519666 0 0 0 0.65137,-1.06235 z m -88.45874,1.83003 a 52.519666,52.519666 0 0 0 0.69944,0.97861 c -23.63938,17.68603 -47.27552,37.33084 -69.34733,57.61496 a 142.5534,142.5534 0 0 1 -1.97271,-2.76055 c 22.77544,-20.04731 45.83566,-38.28516 70.6206,-55.83302 z m 86.1557,1.65634 c 24.7667,16.6272 50.66141,32.11496 77.28934,46.24396 a 142.5534,142.5534 0 0 1 -1.79436,2.92649 c -25.67252,-14.40398 -51.8758,-30.96289 -76.25026,-48.17644 a 52.519666,52.519666 0 0 0 0.75528,-0.99411 z m -83.75961,1.69666 a 52.519666,52.519666 0 0 0 0.79561,0.93827 c -22.30074,19.58631 -43.89545,40.67059 -64.44812,62.88328 a 142.5534,142.5534 0 0 1 -2.22706,-2.53568 c 2.81587,-2.88897 5.69043,-5.81186 8.71126,-8.83687 19.25927,-19.28609 37.24898,-35.8303 57.16831,-52.449 z m 81.19446,1.61911 c 23.18014,18.38066 47.91042,35.97398 73.32841,52.18535 a 142.5534,142.5534 0 0 1 -2.0456,2.68922 c -25.34683,-17.00632 -49.24019,-34.8722 -72.1296,-53.96576 a 52.519666,52.519666 0 0 0 0.84679,-0.90881 z m -78.45407,1.53226 a 52.519666,52.519666 0 0 0 0.80492,0.91657 c -20.5401,21.1993 -40.77728,44.345 -59.24183,67.71581 a 142.5534,142.5534 0 0 1 -2.469,-2.30174 c 19.04154,-23.02881 39.41389,-45.22475 60.90591,-66.33087 z m 75.60356,1.52761 c 2.04968,1.92629 4.01834,3.75849 5.82974,5.41721 19.65162,17.99522 41.397,36.03566 63.12831,52.48157 a 142.5534,142.5534 0 0 1 -2.29839,2.46744 c -23.62798,-18.76669 -42.90201,-35.69734 -66.0967,-58.09729 -0.42807,-0.4134 -0.96247,-0.94229 -1.4361,-1.4051 a 52.519666,52.519666 0 0 0 0.87314,-0.86383 z m -72.65069,1.39888 a 52.519666,52.519666 0 0 0 0.8964,0.83438 c -18.83109,22.73107 -36.92844,47.10408 -53.71605,72.26452 a 142.5534,142.5534 0 0 1 -2.70008,-2.05322 c 17.16524,-24.4623 35.77857,-48.29372 55.51973,-71.04553 z m 69.59547,1.38183 c 20.23156,22.07208 41.9897,43.50505 64.19222,63.29737 a 142.5534,142.5534 0 0 1 -2.53724,2.23016 c -21.90544,-20.43453 -42.88339,-42.1012 -62.59792,-64.69936 a 52.519666,52.519666 0 0 0 0.94294,-0.82817 z m -66.45339,1.3043 a 52.519666,52.519666 0 0 0 0.98945,0.75217 c -13.74928,19.60759 -26.9021,40.07601 -38.79046,60.41894 -3.20039,5.4764 -6.07864,10.5534 -9.08191,15.96935 a 142.5534,142.5534 0 0 1 -2.77607,-1.93703 c 15.26281,-25.94252 31.77439,-50.96418 49.65899,-75.20368 z m 63.14073,1.28877 c 18.21992,23.39351 38.11987,46.37075 59.00763,68.1702 a 142.5534,142.5534 0 0 1 -2.70161,2.11075 c -5.27563,-5.74351 -10.24274,-11.32178 -15.83443,-17.77791 -13.97419,-16.13454 -28.3455,-34.12154 -41.4626,-51.79453 a 52.519666,52.519666 0 0 0 0.99101,-0.70875 z m -59.78774,1.17557 a 52.519666,52.519666 0 0 0 1.04063,0.6374 c -14.94734,25.4655 -29.28483,52.98121 -41.64097,79.946 a 142.5534,142.5534 0 0 1 -2.87221,-1.76024 c 13.34924,-27.49831 27.52783,-53.23473 43.47255,-78.82316 z m 56.32928,1.13678 v 0.002 c 16.24157,24.70834 34.2555,49.21487 53.3299,72.57005 a 142.5534,142.5534 0 0 1 -2.79467,1.99752 c -18.08609,-23.24525 -35.57174,-48.3137 -51.58828,-73.96447 a 52.519666,52.519666 0 0 0 1.05305,-0.60485 z m -52.79794,1.02823 a 52.519666,52.519666 0 0 0 1.0794,0.56918 c -12.87961,26.60342 -25.10938,55.41626 -35.1211,82.89731 a 142.5534,142.5534 0 0 1 -3.01489,-1.45628 c 0.78272,-1.99882 1.56267,-3.99899 2.36199,-6.00499 10.31002,-25.87307 21.81472,-51.07309 34.6946,-76.00522 z m 49.19527,1.01737 c 14.6714,26.74232 30.20931,51.858 47.31716,76.54338 a 142.5534,142.5534 0 0 1 -2.88309,1.65454 c -4.30752,-6.54792 -8.58596,-13.11563 -10.69326,-16.48888 -12.66415,-20.27205 -23.96814,-40.11421 -34.86986,-61.20369 a 52.519666,52.519666 0 0 0 1.12905,-0.50559 z m -45.48248,0.82352 a 52.519666,52.519666 0 0 0 1.11352,0.53816 c -10.77387,27.63833 -20.72097,57.46891 -28.4027,85.38955 a 142.5534,142.5534 0 0 1 -3.16534,-1.15695 c 1.3341,-4.37515 2.78808,-9.08588 4.07881,-13.15296 7.56277,-23.83078 16.4923,-48.04659 26.37571,-71.6178 z m 41.66422,0.88556 c 1.85899,4.17665 3.65998,8.15378 5.26521,11.61448 4.38132,9.44561 16.67143,33.9283 21.82391,43.4741 3.75851,6.96331 9.22125,16.65794 14.03696,25.0218 a 142.5534,142.5534 0 0 1 -3.10021,1.38648 c -14.33575,-26.12443 -27.50573,-53.34695 -39.17506,-81.0241 a 52.519666,52.519666 0 0 0 1.14919,-0.47301 z m -37.82271,0.67926 a 52.519666,52.519666 0 0 0 1.18177,0.43271 c -8.35883,27.55189 -15.28275,55.38657 -20.84529,83.80767 -0.36249,1.85204 -0.51277,2.60072 -0.71807,3.6337 a 142.5534,142.5534 0 0 1 -3.2739,-0.83592 c 6.07227,-28.20375 14.40972,-58.78837 23.65549,-87.03816 z m 33.88815,0.72117 c 10.14873,28.46136 21.49465,55.68264 34.69459,83.2261 a 142.5534,142.5534 0 0 1 -3.23512,1.07475 C 484.9703,256.83666 474.13266,229.00446 464.66764,200.32538 a 52.519666,52.519666 0 0 0 1.17247,-0.38927 z m -29.94893,0.55676 a 52.519666,52.519666 0 0 0 1.21278,0.31018 c -5.88767,27.10929 -10.58619,55.17254 -13.90203,83.20283 -0.36751,3.10696 -0.49243,4.24001 -0.66844,5.78786 a 142.5534,142.5534 0 0 1 -3.27853,-0.74287 c 0.0435,-0.32431 0.0613,-0.4498 0.11632,-0.86539 3.59744,-27.18397 9.70471,-59.45447 16.5199,-87.69261 z m 25.95542,0.5397 c 7.9842,29.58482 17.17362,57.77698 27.90798,85.7106 a 142.5534,142.5534 0 0 1 -3.26149,0.91346 c -9.87835,-27.57664 -18.62982,-56.83806 -25.84531,-86.35598 a 52.519666,52.519666 0 0 0 1.19882,-0.26831 z m -21.86422,0.45596 a 52.519666,52.519666 0 0 0 1.20193,0.18145 c -3.42878,25.33266 -5.79101,51.1535 -6.89519,75.78345 -0.20616,4.6021 -0.47399,10.53586 -0.59398,13.18709 l -0.0372,0.83436 a 142.5534,142.5534 0 0 1 -3.27235,-0.49473 c 0.095,-2.02467 0.23888,-4.66968 0.43891,-7.72645 1.83935,-28.11497 4.78586,-54.36887 9.1579,-81.76517 z m 17.77301,0.34584 c 0.53127,2.93246 1.01933,5.54593 1.45473,7.76988 5.09085,26.00416 12.18534,54.88858 19.53324,79.79246 a 142.5534,142.5534 0 0 1 -3.29869,0.74132 c -0.17114,-0.63557 -0.28578,-1.06847 -0.47612,-1.7711 -7.22329,-26.66477 -13.67675,-57.02266 -18.43834,-86.38368 a 52.519666,52.519666 0 0 0 1.22518,-0.14888 z m -13.66008,0.27451 a 52.519666,52.519666 0 0 0 1.18331,0.12097 c -0.16176,2.71547 -0.32176,5.47446 -0.47301,8.28321 -0.93147,17.29982 -0.78372,69.04739 0.20625,81.73726 a 142.5534,142.5534 0 0 1 -3.39641,-0.17059 l -0.16905,-9.80618 c -0.23528,-13.63423 0.17228,-39.25351 0.83283,-52.29701 0.45506,-8.98654 1.09337,-18.61534 1.81608,-27.86766 z m 9.53011,0.22488 c 2.37101,22.63027 5.54375,44.72071 9.58906,66.78062 1.17661,6.41651 3.24569,16.88428 4.344,22.11236 a 142.5534,142.5534 0 0 1 -3.35144,0.40634 l -0.0838,-0.44665 c -5.27997,-28.27351 -9.29105,-58.74445 -11.73546,-88.80947 a 52.519666,52.519666 0 0 0 1.23759,-0.0434 z m -5.24661,0.0511 a 52.519666,52.519666 0 0 0 1.07166,0.0543 c 0.46845,19.3501 1.48509,36.90802 3.23202,56.45957 0.977,10.93441 2.75034,27.16391 3.61044,33.37325 a 142.5534,142.5534 0 0 1 -3.37161,0.11941 c -0.15131,-1.60758 -0.28127,-3.00575 -0.625,-6.50436 -1.5673,-15.95344 -2.61845,-31.16955 -3.52203,-50.99894 -0.2554,-5.61108 -0.38773,-19.1197 -0.39548,-32.50321 z" />
    <animateTransform
      attributeName="transform"
      begin="1s"
      dur="1s"
      type="translate"
      to="-150 0"
      fill="freeze"
      repeatCount="0" />
  </g>
</svg>
