<?xml version="1.0" encoding="UTF-8" standalone="no"?>
<svg
  xmlns="http://www.w3.org/2000/svg"
  width="600"
  height="300"
  viewBox="0 0 600 320"
  version="1.1">
  <g>
    <g transform="translate(0, 10)">
      <path
        style="color:#000000;"
	d="m 150.12305,-8.578125 -2.97852,5.1132812 -2.36719,3.83593755 A 149.9435,149.9435 0 0 0 0,150.05664 149.9435,149.9435 0 0 0 149.94336,300 a 149.9435,149.9435 0 0 0 84.66406,-26.18945 149.9435,149.9435 0 0 0 11.9336,-9.07032 149.9435,149.9435 0 0 0 51.16406,-89.19726 149.9435,149.9435 0 0 0 0,-0.002 149.9435,149.9435 0 0 0 2.18164,-25.48438 149.9435,149.9435 0 0 0 -0.74805,-14.96875 A 149.9435,149.9435 0 0 0 175.42773,2.2949219 149.9435,149.9435 0 0 0 160.55078,0.48828125 149.9435,149.9435 0 0 0 155.01562,0.29296875 l -1.89843,-3.31640625 z m -0.17969,16.1875 a 142.44633,142.44633 0 0 1 0.74023,0.037109 c -0.62663,6.283719 -1.89629,25.40479 -2.62695,39.908204 -0.39597,7.872681 -0.53618,31.18133 -0.42383,50.103515 a 52.480222,52.480222 0 0 0 -1.45898,0.05664 c -0.51494,-14.360291 -0.50039,-57.29264 0.0605,-68.699219 0.24049,-4.898014 0.63061,-12.380652 0.86718,-16.628906 l 0.25977,-4.6855475 a 142.44633,142.44633 0 0 1 2.58203,-0.091797 z m -10.23828,0.3769531 0.17578,19.1210939 c 0.22762,24.571432 0.65823,35.210129 2.2793,56.43164 0.34967,4.577805 0.78113,9.512076 1.24609,14.509766 a 52.480222,52.480222 0 0 0 -1.21094,0.148438 c -3.20394,-27.641016 -5.12526,-54.951835 -5.52929,-79.359375 -0.0702,-4.231935 -0.1588,-8.031272 -0.23438,-10.4550785 a 142.44633,142.44633 0 0 1 3.27344,-0.3964844 z m 18.69726,0.046875 a 142.44633,142.44633 0 0 1 3.3086,0.1660157 c -0.92715,5.6565072 -2.88439,18.6887152 -3.92188,26.2695312 -2.78605,20.356068 -4.92141,42.070129 -6.25781,63.1875 a 52.480222,52.480222 0 0 0 -1.17187,-0.05859 c 0.71782,-19.274846 1.9799,-37.148795 3.96093,-56.222656 0.72774,-7.006724 3.21583,-27.326705 4.08203,-33.3417969 z m 11.03125,1.0839844 a 142.44633,142.44633 0 0 1 3.26953,0.4960937 c -1.36485,5.5419498 -3.75448,15.7077868 -5.08593,21.7656248 -4.79231,21.804547 -8.87691,44.48274 -12.01953,66.523438 a 52.480222,52.480222 0 0 0 -1.21289,-0.103516 c 3.40088,-28.476109 8.31346,-57.871097 14.33593,-85.412109 z m -40.75586,0.2070313 0.14258,2.1542972 c 1.75536,26.379071 5.68884,58.454148 10.53321,87.236328 a 52.480222,52.480222 0 0 0 -1.16993,0.263672 c -5.30383,-27.179892 -9.42558,-55.067754 -12.02343,-81.59375 -0.34643,-3.537317 -0.55223,-5.596125 -0.75391,-7.6289066 a 142.44633,142.44633 0 0 1 3.27148,-0.4316406 z m 51.6543,1.6582032 a 142.44633,142.44633 0 0 1 3.17774,0.8125 l -0.12891,0.390625 c -9.44281,28.780119 -17.27187,57.320988 -23.72461,86.328125 a 52.480222,52.480222 0 0 0 -1.21484,-0.181641 c 5.79257,-29.340042 13.02484,-58.176775 21.89062,-87.349609 z m -62.50976,0.476562 c 0.84934,5.624938 2.05766,13.357593 2.88671,18.283204 3.90551,23.204382 8.88339,46.856722 14.69141,69.914062 a 52.480222,52.480222 0 0 0 -1.17383,0.39063 c -0.03,-0.105732 -0.0648,-0.227149 -0.0937,-0.332036 -7.32792,-26.326476 -14.63087,-58.933941 -19.23242,-85.875 l -0.2832,-1.660156 a 142.44633,142.44633 0 0 1 3.20508,-0.720704 z m 73.23242,2.261719 a 142.44633,142.44633 0 0 1 3.14648,1.039063 c -10.97915,26.227109 -21.01315,53.717928 -29.17578,80.048828 -0.38571,1.244157 -0.92168,3.056731 -1.39844,4.644531 a 52.480222,52.480222 0 0 0 -1.1875,-0.300781 c 0.57819,-2.084043 1.14896,-4.113332 1.68946,-5.998047 7.44223,-25.952017 17.43366,-55.367812 26.92578,-79.433594 z m -83.8711,0.626953 c 6.79737,29.686582 14.87584,58.46817 24.34375,86.597654 a 52.480222,52.480222 0 0 0 -1.13086,0.43555 c -8.75283,-24.101588 -16.3946,-48.394618 -23.11132,-73.460938 -1.1357,-4.238351 -2.26156,-8.605981 -3.25196,-12.523438 a 142.44633,142.44633 0 0 1 3.15039,-1.048828 z m 94.25391,3.054688 a 142.44633,142.44633 0 0 1 3.1543,1.152344 C 191.18154,44.649332 178.27379,73.193476 167.50586,100.66797 A 52.480222,52.480222 0 0 0 166.35938,100.25 C 176.29846,73.049662 189.05125,42.961539 201.4375,17.402344 Z M 96.742188,18.001953 c 8.527032,27.633058 19.121972,56.431455 31.066402,84.537107 a 52.480222,52.480222 0 0 0 -1.13867,0.50782 C 114.50891,76.222398 102.87894,46.642134 93.734375,19.345703 a 142.44633,142.44633 0 0 1 3.007813,-1.34375 z m 114.816402,3.820313 a 142.44633,142.44633 0 0 1 2.98047,1.4375 c -14.96944,24.353535 -30.1322,52.080907 -43.20312,78.919924 a 52.480222,52.480222 0 0 0 -1.12891,-0.52344 C 182.08273,75.614005 197.455,45.987363 211.55859,21.822266 Z M 86.683594,22.501953 c 11.350635,28.368868 23.772556,55.537089 37.484376,81.914067 a 52.480222,52.480222 0 0 0 -1.05469,0.60546 C 108.6104,78.679471 95.511873,51.717061 83.736328,24.023438 a 142.44633,142.44633 0 0 1 2.947266,-1.521485 z m 134.742186,4.501953 a 142.44633,142.44633 0 0 1 2.80469,1.71875 C 206.51579,53.086815 189.79443,78.611584 174.97461,103.9375 a 52.480222,52.480222 0 0 0 -1.08594,-0.52344 c 14.48672,-26.170085 30.2019,-51.418753 47.53711,-76.410154 z M 76.988281,27.892578 C 89.95592,54.29467 104.75321,80.911059 120.71875,106.51953 a 52.480222,52.480222 0 0 0 -1.00195,0.71485 C 102.95146,81.721768 88.333855,56.752893 74.185547,29.501953 a 142.44633,142.44633 0 0 1 2.802734,-1.609375 z m 153.841799,4.945313 a 142.44633,142.44633 0 0 1 2.61328,1.984375 c -19.32634,22.649812 -38.17181,47.066376 -54.97852,71.238284 a 52.480222,52.480222 0 0 0 -1.02343,-0.62696 C 193.6497,80.841963 211.73184,56.27479 230.83008,32.837891 Z M 67.773438,33.916016 c 8.114061,13.609899 17.400252,28.440091 25.58789,40.716796 7.263802,10.891476 15.750222,22.958318 24.033202,34.261718 a 52.480222,52.480222 0 0 0 -0.9375,0.8125 C 98.199903,86.078186 80.86147,61.110083 65.111328,35.820312 a 142.44633,142.44633 0 0 1 2.66211,-1.904296 z m 171.857422,5.609375 a 142.44633,142.44633 0 0 1 2.62305,2.08789 c -10.17505,10.175727 -20.1719,20.570442 -28.69336,29.931641 -10.5504,11.590031 -21.34708,24.157306 -31.73633,36.906248 a 52.480222,52.480222 0 0 0 -0.98047,-0.74609 C 199.00989,84.326518 218.97616,61.182428 239.63086,39.525391 Z M 58.976562,40.601562 c 17.167797,24.493504 35.510207,48.01753 55.363278,70.966798 a 52.480222,52.480222 0 0 0 -0.9082,0.79687 C 94.260514,91.289075 77.74912,71.238546 60.8125,48.589844 59.574599,46.934437 58.029157,44.812205 56.527344,42.753906 a 142.44633,142.44633 0 0 1 2.449218,-2.152344 z m 188.914058,6.263672 a 142.44633,142.44633 0 0 1 2.41016,2.244141 c -4.13388,3.537875 -8.25737,7.115357 -12.38867,10.783203 -17.58047,15.608258 -35.91418,33.357663 -52.93359,51.167972 a 52.480222,52.480222 0 0 0 -0.90625,-0.84571 C 204.0473,88.297627 225.75218,66.771103 247.89062,46.865234 Z M 50.712891,47.861328 C 69.859337,71.06007 90.442025,93.649771 111.44922,114.48242 a 52.480222,52.480222 0 0 0 -0.81641,0.87696 C 88.875473,94.785388 68.117026,73.05042 48.453125,50.285156 a 142.44633,142.44633 0 0 1 2.259766,-2.423828 z m 204.884769,6.902344 a 142.44633,142.44633 0 0 1 2.18164,2.482422 c -24.28091,17.727113 -47.59219,36.602768 -69.86719,56.613286 a 52.480222,52.480222 0 0 0 -0.85352,-0.86133 c 0.86534,-0.81901 1.79058,-1.69899 2.52149,-2.37891 21.70644,-20.191969 43.43173,-38.561438 66.01758,-55.855468 z M 43.212891,55.908203 c 3.635216,3.743994 7.401422,7.580116 11.482421,11.664063 18.928453,18.942085 35.747033,34.526074 54.091798,50.013674 a 52.480222,52.480222 0 0 0 -0.72461,0.95312 C 84.556967,99.557518 63.18183,80.351156 40.984375,58.304688 a 142.44633,142.44633 0 0 1 2.228516,-2.396485 z m 219.541019,7.320313 a 142.44633,142.44633 0 0 1 1.91406,2.673828 c -25.38038,15.723073 -50.95012,33.33396 -74.06445,51.019536 a 52.480222,52.480222 0 0 0 -0.79297,-0.90235 c 23.06607,-18.55821 47.7021,-36.367233 72.94336,-52.791014 z M 36.242188,64.542969 c 22.676903,20.18816 45.592039,38.583331 70.140622,56.285151 a 52.480222,52.480222 0 0 0 -0.64258,1.05079 C 81.564734,105.2198 57.201234,86.564858 34.255859,67.154297 a 142.44633,142.44633 0 0 1 1.986329,-2.611328 z m 232.943362,7.68164 a 142.44633,142.44633 0 0 1 1.71289,2.767579 c -25.80109,13.313786 -53.15397,29.221432 -77.85156,45.230472 a 52.480222,52.480222 0 0 0 -0.70704,-0.99024 c 24.64317,-16.87222 49.9121,-32.319896 76.84571,-47.007811 z m -239.246097,1.375 c 24.175188,18.352178 48.127318,34.684371 74.316407,50.697271 a 52.480222,52.480222 0 0 0 -0.58594,1.05273 C 78.149383,110.61188 52.462971,93.932815 28.210938,76.419922 a 142.44633,142.44633 0 0 1 1.728515,-2.820313 z M 274.77344,81.75 a 142.44633,142.44633 0 0 1 1.64258,2.861328 c -27.6423,11.646474 -55.14087,24.874692 -81.17774,39.066402 a 52.480222,52.480222 0 0 0 -0.60742,-1.05859 c 0.66624,-0.38453 1.38037,-0.80564 2.02344,-1.17383 C 221.74093,107.0819 248.12927,93.690857 274.77344,81.75 Z M 24.304688,83.066406 c 19.751484,12.722515 39.096739,24.137184 60.578124,35.716794 4.066975,2.19233 10.693421,5.59458 17.576168,9.07422 a 52.480222,52.480222 0 0 0 -0.55859,1.15625 C 75.070939,116.13724 48.367811,101.62098 22.859375,86.058594 a 142.44633,142.44633 0 0 1 1.445313,-2.992188 z m 255.373042,8.597656 a 142.44633,142.44633 0 0 1 1.35157,3.023438 c -29.54467,9.84083 -57.26704,20.59479 -83.86524,32.56836 a 52.480222,52.480222 0 0 0 -0.50976,-1.10938 c 26.4605,-12.60336 53.86655,-23.9753 83.02343,-34.482418 z M 19.492188,93.033203 c 26.036163,14.027107 53.595344,27.108047 81.375002,38.611327 a 52.480222,52.480222 0 0 0 -0.41016,1.12305 c -3.600072,-1.38095 -7.053304,-2.71984 -9.939452,-3.87696 C 67.282195,119.5752 39.615911,107.00278 18.191406,96.095703 a 142.44633,142.44633 0 0 1 1.300782,-3.0625 z m 264.357422,8.839847 a 142.44633,142.44633 0 0 1 1.03711,3.125 c -26.65492,6.53534 -58.49175,16.2139 -86.06055,25.97265 a 52.480222,52.480222 0 0 0 -0.49023,-1.09375 c 27.7439,-10.65347 57.42506,-20.38477 85.51367,-28.0039 z m -268.298829,1.45117 c 28.611503,12.53539 56.468679,23.22722 84.003907,32.20898 a 52.480222,52.480222 0 0 0 -0.289063,1.14063 C 70.578067,128.09009 43.188456,118.31401 14.416016,106.43555 a 142.44633,142.44633 0 0 1 1.134765,-3.11133 z m 134.302739,1.75195 h 0.002 0.0273 0.1211 a 44.983048,44.983048 0 0 1 2.75,0.13867 v 0.11328 c 6.3e-4,0.13922 -0.63632,10.14248 -1.41602,22.23047 -10e-4,0.0285 -0.002,0.0264 -0.004,0.0547 a 22.491525,22.491525 0 0 0 -1.39062,-0.0469 22.491525,22.491525 0 0 0 -1.50781,0.0742 c -0.003,-0.042 5.6e-4,-0.0398 -0.006,-0.082 -0.77963,-12.08796 -1.41644,-22.09132 -1.41602,-22.23047 v -0.15039 a 44.983048,44.983048 0 0 1 2.83985,-0.10156 z m 9.36132,0.97852 a 44.983048,44.983048 0 0 1 5.58204,1.59765 c -0.89465,2.5052 -3.85494,10.93748 -7.44336,21.19532 a 22.491525,22.491525 0 0 0 -2.79688,-0.77735 c 0.0527,-0.24909 0.0435,-0.20593 0.0977,-0.46093 2.47025,-11.65888 4.40966,-20.83885 4.56054,-21.55469 z m -18.64453,0.0605 c 0.15925,0.76549 2.08437,9.86551 4.54688,21.48829 0.0537,0.25352 0.0472,0.22877 0.0996,0.47656 a 22.491525,22.491525 0 0 0 -2.78711,0.80664 c -3.58862,-10.2593 -6.53997,-18.6726 -7.44336,-21.20313 a 44.983048,44.983048 0 0 1 5.58398,-1.56836 z m 30.18946,4.10352 a 44.983048,44.983048 0 0 1 4.96093,2.99805 l -9.81836,14.02539 c -1.20087,1.7155 -1.9565,2.80135 -3.08007,4.4082 a 22.491525,22.491525 0 0 0 -2.47852,-1.52539 c 0.55357,-1.05742 0.90331,-1.72056 1.47852,-2.82031 z m -41.72461,0.0371 8.91601,17.04687 c 0.58561,1.11964 0.94071,1.79741 1.50391,2.87305 a 22.491525,22.491525 0 0 0 -2.47266,1.51758 c -1.13394,-1.62171 -1.90029,-2.72036 -3.11328,-4.45313 l -9.75976,-13.94335 a 44.983048,44.983048 0 0 1 4.92578,-3.04102 z m 158.25976,2.12305 a 142.44633,142.44633 0 0 1 0.7207,3.21875 c -7.49972,1.29606 -18.96575,3.35891 -24.75195,4.49609 -20.13021,3.9562 -42.69506,9.27688 -63.13086,14.7832 a 52.480222,52.480222 0 0 0 -0.38086,-1.14843 c 28.92289,-8.59014 60.51178,-16.3123 87.22852,-21.29102 0.1176,-0.022 0.20113,-0.0375 0.31445,-0.0586 z m -274.95117,1.51757 c 7.047879,2.45262 17.233895,5.91201 22.921875,7.73829 21.207442,6.80923 41.751524,12.57781 63.298828,17.7832 a 52.480222,52.480222 0 0 0 -0.205078,1.2168 C 69.798926,134.42286 41.959697,126.85878 11.523438,117.10938 a 142.44633,142.44633 0 0 1 0.820312,-3.2129 z m 168.39063,3.44336 a 44.983048,44.983048 0 0 1 3.97265,4.21485 l -11.9707,9.81836 c -2.10619,1.7273 -3.47217,2.85435 -5.4043,4.4414 a 22.491525,22.491525 0 0 0 -1.98828,-2.13086 c 2.11132,-2.2403 3.68318,-3.90363 6.0293,-6.39648 z m -61.66211,0.0371 9.32617,9.90821 c 2.37113,2.51946 3.96306,4.20407 6.09375,6.46484 a 22.491525,22.491525 0 0 0 -1.98438,2.11914 c -1.945,-1.59735 -3.32325,-2.73428 -5.44531,-4.47461 l -11.92773,-9.7832 a 44.983048,44.983048 0 0 1 3.9375,-4.23438 z m 170.64648,5.79297 a 142.44633,142.44633 0 0 1 0.66211,3.19531 c -7.3971,0.64074 -22.95498,2.29217 -33.02344,3.54883 -17.54953,2.19039 -37.56516,5.40281 -56.21094,8.92969 a 52.480222,52.480222 0 0 0 -0.26757,-1.19531 c 28.66483,-6.14904 59.09088,-11.1742 85.74023,-14.11914 1.30882,-0.14457 2.06636,-0.23929 3.09961,-0.35938 z M 9.8984375,124.66211 c 28.0224665,7.52719 57.7259395,13.84595 88.0410155,18.75195 a 52.480222,52.480222 0 0 0 -0.185547,1.21875 c -29.48649,-4.05543 -58.532755,-9.51333 -86.388672,-16.2539 L 9.40625,127.9043 a 142.44633,142.44633 0 0 1 0.4921875,-3.24219 z M 188.4375,126.87305 a 44.983048,44.983048 0 0 1 2.65625,5.14843 l -18.42969,8.08985 c -1.17043,0.51379 -1.00236,0.44426 -2.125,0.9375 a 22.491525,22.491525 0 0 0 -1.34961,-2.57813 c 5.98913,-3.60268 12.51403,-7.53316 19.24805,-11.59765 z m -77.01367,0.0547 15.61914,9.41602 c 1.40935,0.84948 2.28483,1.37017 3.62305,2.17578 a 22.491525,22.491525 0 0 0 -1.32227,2.57617 c -0.80651,-0.35417 -1.29905,-0.57135 -2.12891,-0.93554 -8.68551,-3.81152 -14.80262,-6.52199 -18.44726,-8.15235 a 44.983048,44.983048 0 0 1 2.65625,-5.08008 z m 179.89453,7.16407 a 142.44633,142.44633 0 0 1 0.39453,3.24804 h -1.1875 c -6.06476,0.007 -24.70412,0.597 -34.25977,1.08789 -18.17083,0.93344 -36.72222,2.46083 -54.39648,4.43555 a 52.480222,52.480222 0 0 0 -0.14453,-1.20898 c 29.05086,-3.91216 58.95239,-6.51302 86.25586,-7.44727 z M 8.2480469,135.58008 c 7.3918221,1.3937 28.3169301,4.80957 37.3769531,6.08984 17.686693,2.49936 34.275215,4.3697 51.96875,5.81446 a 52.480222,52.480222 0 0 0 -0.06055,1.22265 c -27.007314,-1.58923 -56.282275,-4.6986 -84.216797,-9.02148 -2.786027,-0.43114 -3.7676839,-0.56505 -5.2617185,-0.78321 a 142.44633,142.44633 0 0 1 0.1933594,-3.32226 z m 185.0625031,2.54297 a 44.983048,44.983048 0 0 1 1.13086,5.68164 l -0.50391,0.0723 c -0.53186,0.0762 -10.37382,1.47529 -21.74219,3.0918 a 22.491525,22.491525 0 0 0 -0.58593,-2.85156 c 10.58295,-2.91084 20.02628,-5.51827 21.70117,-5.99414 z m -86.69922,0.0469 20.50586,5.66211 c 0.6206,0.17139 0.52455,0.14268 1.13281,0.31055 a 22.491525,22.491525 0 0 0 -0.56055,2.82812 c -0.44846,-0.0635 -0.38723,-0.0549 -0.84179,-0.11914 -11.74265,-1.66119 -20.97438,-2.98528 -21.39258,-3.06445 a 44.983048,44.983048 0 0 1 1.15625,-5.61719 z m 43.33203,4.08985 a 7.7970615,7.7970615 0 0 1 7.79687,7.79687 7.7970615,7.7970615 0 0 1 -7.79687,7.79688 7.7970615,7.7970615 0 0 1 -7.79688,-7.79688 7.7970615,7.7970615 0 0 1 7.79688,-7.79687 z m 109.62305,2.10351 c 14.3623,0.0448 27.41238,0.28315 32.64648,0.68945 a 142.44633,142.44633 0 0 1 0.11914,3.36524 c -3.2988,-0.26994 -12.38397,-0.79191 -22.61523,-1.29297 -12.69464,-0.62176 -48.52358,-0.8357 -62.88477,-0.37695 -1.42123,0.0454 -3.01205,0.11237 -4.51953,0.16797 a 52.480222,52.480222 0 0 0 -0.0977,-1.21094 c 4.8734,-0.29635 9.58156,-0.55625 13.70508,-0.7461 9.93136,-0.45719 27.57302,-0.64591 43.64649,-0.5957 z M 7.6699219,146.625 c 35.0852761,3.44934 59.6601551,4.80777 89.8437501,4.82031 a 52.480222,52.480222 0 0 0 0.04687,1.3125 c -27.206013,0.48726 -56.507505,-0.32556 -82.9375,-2.3457 -3.774138,-0.2884 -5.5138697,-0.41175 -7.1171876,-0.52539 A 142.44633,142.44633 0 0 1 7.6699219,146.625 Z m 194.7480481,3.25 c 28.49504,0.45017 53.32951,2.1209 82.92773,5.4707 3.16642,0.35836 5.25663,0.58652 6.74024,0.78516 a 142.44633,142.44633 0 0 1 -0.16602,3.30664 c -0.23991,-0.0374 -0.41867,-0.0615 -0.66992,-0.10156 -1.84711,-0.29525 -8.51309,-1.19185 -14.81055,-1.99219 -25.66655,-3.262 -47.76639,-5.19084 -74.0625,-6.33203 a 52.480222,52.480222 0 0 0 0.0469,-0.95508 52.480222,52.480222 0 0 0 -0.006,-0.18164 z m -74.95703,0.33594 a 22.491525,22.491525 0 0 0 0.2207,2.86328 c -10.82697,1.42947 -21.62866,2.86824 -22.26758,2.97656 a 44.983048,44.983048 0 0 1 -0.44531,-5.73047 l 12.22266,-0.0762 c 4.03472,-0.0253 6.73854,-0.0207 10.26953,-0.0332 z m 44.96875,0 c 3.50128,0.0127 6.14938,0.009 10.16015,0.0332 l 12.32422,0.0742 a 44.983048,44.983048 0 0 1 -0.4414,5.74805 c -0.67542,-0.113 -11.49915,-1.5539 -22.26954,-2.97657 a 22.491525,22.491525 0 0 0 0.22657,-2.8789 z m 29.80469,3.64453 c 0.73582,0.0716 1.53679,0.1463 2.23632,0.2168 28.46398,2.86624 58.80928,7.44339 86.77344,13.07617 a 142.44633,142.44633 0 0 1 -0.49414,3.26953 c -6.73267,-1.51678 -21.04674,-4.52109 -28.72266,-5.98438 -19.48405,-3.71428 -40.2122,-6.94504 -59.85156,-9.3789 a 52.480222,52.480222 0 0 0 0.0586,-1.19922 z m -104.412114,1.7832 a 52.480222,52.480222 0 0 0 0.134765,1.11524 c -20.262959,1.9568 -40.577708,3.2559 -60.328125,3.81836 -5.297833,0.15088 -14.908107,0.30167 -21.355468,0.33398 l -8.320313,0.0391 a 142.44633,142.44633 0 0 1 -0.1816406,-3.11914 l 22.6796876,0.008 c 25.787314,0.008 46.242231,-0.62346 67.371094,-2.19531 z m 30.517574,0.60156 a 22.491525,22.491525 0 0 0 0.96289,2.72852 c -1.14839,0.49336 -1.00391,0.42673 -2.20117,0.94141 -10.06924,4.32845 -15.85853,6.81789 -18.42578,7.91992 a 44.983048,44.983048 0 0 1 -1.97461,-5.4336 c 3.96043,-1.10908 12.79678,-3.62611 21.63867,-6.15625 z m 43.20899,0.0312 c 0.48183,0.13716 0.76414,0.22007 1.2539,0.35938 l 20.35157,5.78906 a 44.983048,44.983048 0 0 1 -1.91407,5.43555 c -2.57097,-1.09055 -8.4103,-3.58598 -18.61132,-7.96875 -0.80741,-0.3469 -1.2904,-0.55318 -2.07618,-0.89063 a 22.491525,22.491525 0 0 0 0.9961,-2.72461 z m 30.21679,1.6504 c 30.01631,5.33797 59.91033,12.19869 87.82227,20.18359 a 142.44633,142.44633 0 0 1 -0.78906,3.19531 c -0.14962,-0.0461 -0.25349,-0.0785 -0.41016,-0.12695 -27.81558,-8.64108 -56.81079,-15.99783 -86.80469,-22.04688 a 52.480222,52.480222 0 0 0 0.18164,-1.20507 z m -103.406245,1.64843 a 52.480222,52.480222 0 0 0 0.257813,1.14258 c -29.5424,5.26161 -55.311966,8.46717 -86.433594,10.94727 -1.401374,0.11156 -1.916864,0.14736 -2.9042971,0.22265 a 142.44633,142.44633 0 0 1 -0.4003907,-3.29883 l 1.3066408,-0.0605 c 27.153598,-1.26138 58.559188,-4.49113 88.173828,-8.95313 z m 32.451175,2.25586 a 22.491525,22.491525 0 0 0 1.64648,2.34571 c -1.92035,1.55178 -3.27707,2.65147 -5.36914,4.33984 l -12.13086,9.79101 a 44.983048,44.983048 0 0 1 -3.31445,-4.72656 c 4.92689,-3.03021 9.90056,-6.08269 19.16797,-11.75 z m 38.24804,0.0508 c 1.3364,0.82026 2.20377,1.35556 3.61133,2.21875 l 15.52735,9.52149 a 44.983048,44.983048 0 0 1 -3.32032,4.72265 c -4.08668,-3.29124 -5.54549,-4.45775 -12.26367,-9.88086 -2.36271,-1.90723 -3.26411,-2.62215 -5.23633,-4.21093 a 22.491525,22.491525 0 0 0 1.68164,-2.3711 z m 31.95899,0.0195 c 0.4687,0.12105 1.00386,0.25578 1.45312,0.37305 27.23211,7.10799 54.45679,15.59652 79.9668,24.93555 2.23589,0.81853 3.19149,1.16912 4.4375,1.625 a 142.44633,142.44633 0 0 1 -0.81445,3.19531 c -1.72103,-0.68093 -3.37151,-1.33836 -5.32422,-2.09766 -26.14531,-10.16676 -52.9973,-19.16353 -80.02344,-26.83789 a 52.480222,52.480222 0 0 0 0.30469,-1.19336 z m -101.765627,1.64454 a 52.480222,52.480222 0 0 0 0.328125,1.16601 c -27.324017,7.03387 -54.605999,12.65958 -83.800781,17.3125 -1.661774,0.26483 -2.910381,0.44177 -4.322266,0.65235 a 142.44633,142.44633 0 0 1 -0.726562,-3.23633 c 1.192684,-0.15452 2.022341,-0.26726 3.816406,-0.5 27.634647,-3.58514 56.390301,-8.82054 84.705078,-15.39453 z m 100.718747,2.32421 c 28.23159,9.68725 57.12339,21.26563 83.45118,33.42579 a 142.44633,142.44633 0 0 1 -1.1504,3.15234 C 255.57351,189.27039 228.6761,177.73467 199.54883,167.02344 a 52.480222,52.480222 0 0 0 0.42187,-1.15821 z m -65.29492,0.67774 a 22.491525,22.491525 0 0 0 2.23438,1.80859 c -1.17855,1.65904 -1.9786,2.79143 -3.24219,4.56836 l -9.78516,13.75977 a 44.983048,44.983048 0 0 1 -4.48633,-3.67774 c 5.55646,-5.99625 9.47106,-10.20652 15.2793,-16.45898 z m 30.47461,0.0469 c 5.32051,5.7294 10.39681,11.20252 15.28711,16.48047 a 44.983048,44.983048 0 0 1 -4.52344,3.64649 l -9.8125,-13.79688 c -1.24532,-1.75126 -2.03226,-2.86491 -3.19531,-4.50195 a 22.491525,22.491525 0 0 0 2.24414,-1.82813 z m -64.66016,0.85352 a 52.480222,52.480222 0 0 0 0.35938,1.08789 c -28.284681,9.6185 -57.917714,18.10772 -86.457032,24.75391 a 142.44633,142.44633 0 0 1 -1.048828,-3.15821 c 30.944771,-6.57387 59.822381,-14.08097 87.14648,-22.68359 z m 98.09375,2.2207 c 26.81947,11.63144 55.05587,25.59809 80.63086,39.86133 a 142.44633,142.44633 0 0 1 -1.43945,2.98242 c -7.06904,-4.14908 -14.77923,-8.59146 -20.59961,-11.8125 -18.5867,-10.28611 -39.18365,-20.68347 -59.05078,-29.87695 a 52.480222,52.480222 0 0 0 0.45898,-1.1543 z m -58.92773,0.38867 a 22.491525,22.491525 0 0 0 2.64648,1.13477 c -0.19731,0.54889 -0.31637,0.87843 -0.51757,1.4375 -3.84338,10.6802 -6.37673,17.72439 -7.08399,19.69336 a 44.983048,44.983048 0 0 1 -5.28711,-2.28516 c 2.03014,-3.98573 5.22118,-10.2159 10.24219,-19.98047 z m 20.48242,0.0254 c 0.58895,1.14914 0.78038,1.53543 1.42774,2.79688 4.85473,9.45975 7.23049,14.10951 8.82812,17.24414 a 44.983048,44.983048 0 0 1 -5.30469,2.24609 c -0.6807,-1.8978 -3.28444,-9.12927 -7.11523,-19.76171 -0.19312,-0.53627 -0.30629,-0.85763 -0.49609,-1.38477 a 22.491525,22.491525 0 0 0 2.66015,-1.14063 z m -58.16211,1.11133 a 52.480222,52.480222 0 0 0 0.48438,1.07813 c -27.398717,11.7979 -55.27251,22.14549 -84.39844,31.3789 a 142.44633,142.44633 0 0 1 -1.251953,-3.08007 c 27.414455,-7.86662 57.591857,-18.31555 85.166013,-29.37696 z m 43.44336,0.875 a 22.491525,22.491525 0 0 0 2.84766,0.41602 c -0.003,0.0367 -0.002,0.0353 -0.008,0.0723 -0.87014,12.02735 -1.58209,22.00545 -1.58204,22.17579 l 0.008,0.002 v 0.14648 a 44.983048,44.983048 0 0 1 -5.76953,-0.75781 c 0.15625,-0.72112 1.99676,-9.72844 4.36914,-21.38476 0.0756,-0.37121 0.0615,-0.31114 0.13476,-0.66993 z m 8.94727,0.041 c 2.10748,10.47145 4.15489,20.53724 4.48828,21.99414 a 44.983048,44.983048 0 0 1 -5.76367,0.82812 v -0.19921 c 5e-5,-0.1701 -0.7119,-10.1504 -1.58203,-22.17774 -0.003,-0.0418 -0.004,-0.0402 -0.008,-0.082 a 22.491525,22.491525 0 0 0 2.86524,-0.36328 z m 42.51562,1.28515 c 2.45045,1.26563 4.61707,2.39328 5.95117,3.11524 25.12256,13.59497 48.62968,27.71933 71.46094,42.91406 a 142.44633,142.44633 0 0 1 -1.71484,2.79883 c -24.43465,-17.10067 -49.81317,-33.00559 -76.22461,-47.73828 a 52.480222,52.480222 0 0 0 0.52734,-1.08985 z m -93.17383,1.4043 a 52.480222,52.480222 0 0 0 0.60938,1.0625 c -26.830892,14.11243 -54.29492,26.80673 -81.769532,37.8125 a 142.44633,142.44633 0 0 1 -1.328125,-2.9668 c 10.401749,-3.97496 23.397171,-9.1082 31.673828,-12.58789 16.473202,-6.92573 33.962022,-14.97176 50.814449,-23.32031 z m 91.23633,2.14063 c 25.24262,15.96135 49.67649,33.21583 73.57031,51.91015 a 142.44633,142.44633 0 0 1 -1.83593,2.73242 c -22.9693,-18.85641 -47.66062,-37.1515 -72.375,-53.59765 a 52.480222,52.480222 0 0 0 0.64062,-1.04492 z m -89.21875,1.3789 a 52.480222,52.480222 0 0 0 0.70703,1.00782 c -25.13537,15.81141 -52.633475,31.21961 -78.478512,43.99414 a 142.44633,142.44633 0 0 1 -1.667969,-2.90821 c 15.841487,-7.49116 33.432868,-16.24099 44.601563,-22.28515 11.784379,-6.37736 23.512968,-13.0561 34.837888,-19.8086 z m 87.01953,2.04688 c 23.92348,17.83 46.72253,36.74462 69.23047,57.40429 A 142.44633,142.44633 0 0 1 260,240.36328 C 238.48592,219.69487 215.48124,199.7069 192.00781,181.33203 a 52.480222,52.480222 0 0 0 0.73828,-0.9707 z m -84.68554,1.23633 a 52.480222,52.480222 0 0 0 0.73242,1.02343 C 85.044688,200.27844 59.845719,217.07009 34,232.50195 a 142.44633,142.44633 0 0 1 -1.894531,-2.64843 c 19.407356,-11.07456 41.446964,-24.64026 58.773437,-36.33985 5.396254,-3.6438 11.298554,-7.74934 17.181644,-11.91601 z m 82.20117,2.03125 c 1.91081,1.67252 3.80839,3.32656 5.76172,5.0625 19.80096,17.59744 39.9671,37.35996 58.81445,57.48437 a 142.44633,142.44633 0 0 1 -2.21094,2.37305 c -0.97283,-1.09455 -1.96216,-2.21668 -2.89843,-3.25586 -19.10491,-21.20422 -39.37331,-41.63205 -60.26954,-60.75977 a 52.480222,52.480222 0 0 0 0.80274,-0.90429 z m -79.60547,1.12304 a 52.480222,52.480222 0 0 0 0.79492,0.9043 c -22.823592,19.89457 -45.968914,38.05742 -70.785154,55.57031 a 142.44633,142.44633 0 0 1 -2.160157,-2.46094 c 25.104208,-16.90094 49.205655,-34.93704 72.150391,-54.01367 z m 76.81836,1.91407 c 7.09483,7.22075 13.92571,14.3433 19.21484,20.0957 13.49856,14.68078 27.42536,30.99516 40.44532,47.28125 a 142.44633,142.44633 0 0 1 -2.46289,2.16406 c -12.55425,-16.51482 -25.57591,-32.44324 -39.54297,-48.35351 -7.03993,-8.01935 -11.87294,-13.36091 -18.44532,-20.33985 a 52.480222,52.480222 0 0 0 0.79102,-0.84765 z m -74.02734,1.02539 a 52.480222,52.480222 0 0 0 0.86328,0.80468 C 93.328366,209.8268 71.077569,230.26804 47.955078,249.48434 a 142.44633,142.44633 0 0 1 -2.146484,-2.40626 c 0.42077,-0.33187 0.869644,-0.68387 1.269531,-1.00195 22.651931,-18.0197 45.565304,-38.20905 66.369145,-58.38476 z m 71.11523,1.7207 c 19.40339,23.14918 37.08354,46.59848 54.26758,71.92773 a 142.44633,142.44633 0 0 1 -2.66016,1.95704 c -16.332,-25.33324 -33.92406,-49.8378 -52.50195,-73.09961 a 52.480222,52.480222 0 0 0 0.89453,-0.78516 z m -68.12695,1.01172 a 52.480222,52.480222 0 0 0 0.95117,0.72265 c -19.186587,22.84973 -39.728646,44.89589 -61.335939,65.87891 a 142.44633,142.44633 0 0 1 -2.404297,-2.24219 c 6.769805,-6.31253 13.584859,-12.86003 20.642578,-19.84765 15.349,-15.19659 28.948348,-29.54101 42.146488,-44.51172 z m 64.98828,1.55859 c 17.44195,24.42729 33.58325,49.67744 48.47461,75.79883 a 142.44633,142.44633 0 0 1 -2.69141,1.92383 c -14.20871,-26.21037 -30.3854,-52.86989 -46.73437,-77.04297 a 52.480222,52.480222 0 0 0 0.95117,-0.67969 z m -61.76367,0.89453 a 52.480222,52.480222 0 0 0 0.97851,0.69532 c -17.45998,24.38502 -35.996123,47.65364 -56.001951,70.34179 a 142.44633,142.44633 0 0 1 -2.644531,-2.00976 c 20.479659,-22.12633 39.818692,-45.26443 57.667972,-69.02735 z m 58.46093,1.44141 c 15.31459,25.41774 29.51335,51.99501 42.39063,79.27148 a 142.44633,142.44633 0 0 1 -2.82422,1.61914 C 212.52651,263.63902 206.73838,251.39404 200.41992,238.75 191.75358,221.40742 185.43616,209.52281 177.0625,194.92578 a 52.480222,52.480222 0 0 0 1.05859,-0.60742 z m -55.07226,0.72852 a 52.480222,52.480222 0 0 0 1.04101,0.64062 c -15.0614,24.8749 -32.732197,50.9676 -50.380856,74.50781 A 142.44633,142.44633 0 0 1 70.875,268.45898 c 3.187717,-4.01771 6.246839,-7.90007 8.613281,-10.99023 14.644865,-19.12359 29.926119,-41.07608 43.560549,-62.42187 z m 51.51758,1.3125 c 12.49442,24.93979 23.77405,50.29694 33.70898,75.83007 0.72962,1.87512 1.61998,4.23641 2.48242,6.51563 a 142.44633,142.44633 0 0 1 -3.00976,1.34765 c -10.23269,-28.905 -21.24007,-55.6573 -34.26172,-83.10937 a 52.480222,52.480222 0 0 0 1.08008,-0.58398 z m -47.9961,0.61523 a 52.480222,52.480222 0 0 0 1.02735,0.49609 c -4.23694,8.47214 -8.3462,16.52492 -11.01563,21.46875 -10.59713,19.62598 -21.786448,38.66958 -33.390624,56.86914 a 142.44633,142.44633 0 0 1 -2.865234,-1.55664 c 16.418426,-24.42832 31.606198,-49.7885 46.244138,-77.27734 z m 44.35547,1.11719 c 9.20875,22.57542 17.43031,45.39333 24.85742,68.98242 1.27289,4.04268 3.16349,10.33572 4.85547,16.05469 a 142.44633,142.44633 0 0 1 -3.11914,1.03515 c -7.68988,-28.54012 -17.15717,-57.78507 -27.69922,-85.58008 a 52.480222,52.480222 0 0 0 1.10547,-0.49218 z m -40.64258,0.58593 a 52.480222,52.480222 0 0 0 1.13086,0.41211 c -11.3556,27.72826 -24.07932,54.76731 -38.318357,81.50391 a 142.44633,142.44633 0 0 1 -2.898437,-1.40039 C 104.28767,254.09619 118.41067,225.69268 130.2832,198.67773 Z m 36.84375,0.90039 c 9.1615,28.66303 17.17466,58.86561 23.06446,87.01954 a 142.44633,142.44633 0 0 1 -3.15235,0.93945 c -1.11921,-5.86401 -2.57542,-13.3407 -3.31836,-16.9043 -4.91341,-23.56756 -11.13099,-48.31432 -17.72656,-70.67773 a 52.480222,52.480222 0 0 0 1.13281,-0.37696 z m -33.04687,0.48438 a 52.480222,52.480222 0 0 0 1.14453,0.33203 c -0.64949,2.02849 -1.28842,4.00873 -1.88672,5.82227 -8.98239,27.2272 -18.74151,52.72198 -29.92187,78.30664 a 142.44633,142.44633 0 0 1 -3.06446,-1.11914 c 11.71811,-24.98322 23.79932,-54.94409 33.72852,-83.3418 z m 29.17383,0.72656 c 6.54231,27.65732 11.6693,55.08907 15.57421,83.48242 0.27261,1.98094 0.44706,3.38212 0.6504,4.96485 a 142.44633,142.44633 0 0 1 -3.19532,0.71679 c -0.14963,-1.39434 -0.2457,-2.33492 -0.54492,-4.96289 -3.19297,-28.03668 -7.81798,-56.44353 -13.63476,-83.94335 a 52.480222,52.480222 0 0 0 1.15039,-0.25782 z m -25.25977,0.3125 a 52.480222,52.480222 0 0 0 1.17774,0.30078 c -6.61699,27.81722 -14.44718,54.89106 -23.58399,81.52149 -0.85323,2.48685 -1.18304,3.46191 -1.63086,4.77734 a 142.44633,142.44633 0 0 1 -3.17773,-0.8125 c 0.24481,-0.66005 0.45285,-1.22806 0.73242,-1.97656 10.00848,-26.79436 18.90886,-54.98283 26.48242,-83.81055 z m 21.33984,0.56641 c 4.48682,28.70942 7.40361,56.91477 9.33399,89.42969 a 142.44633,142.44633 0 0 1 -3.24024,0.39062 c -0.11696,-2.14859 -0.3705,-7.83372 -0.57812,-12.9375 -0.99166,-24.40367 -3.33012,-50.79573 -6.73828,-76.68555 a 52.480222,52.480222 0 0 0 1.22265,-0.19726 z m -17.38867,0.18945 a 52.480222,52.480222 0 0 0 1.21875,0.1836 c -4.1617,26.47449 -9.78278,53.99151 -16.32422,79.78125 -1.08466,4.27619 -1.60475,6.28614 -2.125,8.30468 a 142.44633,142.44633 0 0 1 -3.18164,-0.49218 c 3.1829,-11.12772 9.76042,-36.68261 12.77344,-49.97657 2.54113,-11.21146 5.25513,-24.76306 7.63867,-37.80078 z m 13.35352,0.34766 c 0.78489,10.19147 1.41084,20.56633 1.93164,31.81836 0.51693,11.21293 0.86481,45.80162 0.54297,54.25195 l -0.15039,3.95508 a 142.44633,142.44633 0 0 1 -3.24219,0.11523 l 0.0469,-0.79882 c 0.69143,-11.80836 1.04656,-33.27941 0.8418,-50.79688 -0.16585,-14.18612 -0.52979,-26.49165 -1.14844,-38.40039 a 52.480222,52.480222 0 0 0 1.17774,-0.14453 z m -9.31836,0.13281 a 52.480222,52.480222 0 0 0 1.22461,0.0606 c -2.10578,26.86227 -5.29701,52.56799 -9.79688,79.06054 -0.8749,5.15086 -1.42907,8.32507 -1.7832,10.31641 a 142.44633,142.44633 0 0 1 -3.21289,-0.48437 c 1.34089,-6.42042 4.26403,-22.1511 5.86133,-31.64063 3.14442,-18.67996 5.72488,-37.96916 7.70703,-57.3125 z m 5.27734,0.15234 c -0.003,26.32705 -1.23455,53.33018 -3.67383,80.24219 -0.38629,4.26212 -0.7229,7.65983 -0.93359,9.60547 a 142.44633,142.44633 0 0 1 -3.29297,-0.16601 c 0.11821,-0.98316 0.24372,-2.03288 0.40039,-3.26172 1.8791,-14.74646 3.87496,-36.57662 4.90039,-53.61328 0.80253,-13.33293 1.13855,-20.74482 1.34766,-32.76172 a 52.480222,52.480222 0 0 0 1.25195,-0.0449 z" />
      <animateTransform
        id="ani_init"
        attributeName="transform"
        begin="1s"
        dur="1s"
        type="translate"
        to="150 10"
        fill="freeze"
        repeatCount="0" />
    </g>
    <animateTransform
      id="ani"
      attributeName="transform"
      begin="ani_init.end;ani.end"
      dur="60s"
      type="rotate"
      from="0 300 160"
      to="-360 300 160"
      repeatCount="infinite" />-->
  </g>
  <g transform="translate(0, 10)">
    <path
      style="color:#000000;"
      d="m 450.12305,-8.8046875 -2.97852,5.1152344 -2.36719,3.83398435 A 150.05621,150.05621 0 0 0 299.88672,149.94336 150.05621,150.05621 0 0 0 449.94336,300 150.05621,150.05621 0 0 0 600,149.94336 150.05621,150.05621 0 0 0 455.01562,0.06640625 L 453.11719,-3.2480469 Z M 449.94336,7.390625 a 142.5534,142.5534 0 0 1 2.25586,0.1132812 c 0.086,1.8069177 0.2339,4.5524798 0.43945,8.0156248 1.06487,17.946758 1.38631,33.505501 1.17383,56.935547 -0.0841,9.272062 -0.25208,18.973734 -0.41992,25.140625 a 52.519666,52.519666 0 0 0 -1.33008,-0.06641 c 0.27131,-20.785975 -0.14213,-42.439538 -1.24023,-62 -0.50346,-8.968961 -1.52795,-23.04115 -2.02344,-28.0976564 a 142.5534,142.5534 0 0 1 1.14453,-0.041016 z m -9.06641,0.3203125 c 0.21371,1.6234309 0.37859,2.9084025 0.8418,6.2890625 3.97619,29.018838 6.31625,54.944213 7.43555,83.453125 a 52.519666,52.519666 0 0 0 -1.22071,0.04102 c -1.54492,-23.827723 -4.1457,-48.349885 -7.67773,-71.972657 -0.96487,-6.453376 -2.09265,-13.581635 -2.75391,-17.4882809 a 142.5534,142.5534 0 0 1 3.375,-0.3222656 z m 19.30469,0.1914063 a 142.5534,142.5534 0 0 1 3.25,0.1621093 l -0.16992,8.8222659 c -0.50508,26.487388 -2.36177,52.780468 -5.76758,81.148437 a 52.519666,52.519666 0 0 0 -1.20703,-0.18164 C 457.59269,84.03125 458.5914,69.83851 459.39844,53.720703 459.60881,49.518805 459.87967,36.709117 460,25.253906 Z m -30.58789,1.0898437 c 6.35053,27.8179435 11.89479,59.7622745 15.40039,88.7128905 a 52.519666,52.519666 0 0 0 -1.24219,0.150391 c -3.93224,-27.056276 -8.5575,-51.114463 -15.10742,-78.513672 -0.94975,-3.972907 -1.82826,-7.515407 -2.44531,-9.9375001 a 142.5534,142.5534 0 0 1 3.39453,-0.4121094 z m 41.8125,0.203125 a 142.5534,142.5534 0 0 1 3.35742,0.5078125 c -0.86011,9.832033 -3.81559,34.15185 -5.92969,48.203125 -1.89683,12.606598 -4.4505,26.938756 -7.22656,40.878906 a 52.519666,52.519666 0 0 0 -1.1875,-0.302734 c 4.80105,-27.430634 8.448,-55.956731 10.41602,-82.050781 0.23005,-3.050084 0.41083,-5.279861 0.57031,-7.2363285 z m -52.97461,1.9023435 c 0.19016,0.611351 0.3402,1.102088 0.55664,1.792969 8.45853,26.998606 15.91157,56.132868 21.85352,85.335937 a 52.519666,52.519666 0 0 0 -1.20703,0.271485 c -6.38123,-28.025996 -14.12958,-55.622886 -23.34961,-83.150391 -0.45213,-1.349915 -0.78109,-2.3581 -1.16016,-3.505859 a 142.5534,142.5534 0 0 1 3.30664,-0.744141 z m 64.08203,0.21875 a 142.5534,142.5534 0 0 1 3.27735,0.835938 c -1.17293,6.569156 -2.88001,15.811378 -3.88477,20.832031 -4.28389,21.405933 -10.00723,44.929862 -16.20508,66.873047 a 52.519666,52.519666 0 0 0 -1.21875,-0.339844 c 7.37226,-28.556086 13.49396,-58.18397 17.6836,-85.904297 z m -75.04883,2.712891 1.2793,3.220703 c 11.02418,27.740356 20.09601,54.207874 28.0293,81.892578 a 52.519666,52.519666 0 0 0 -1.23438,0.314453 C 426.56075,70.859945 415.68965,41.477325 404.27344,15.089844 a 142.5534,142.5534 0 0 1 3.1914,-1.060547 z m 86.00586,0.238281 a 142.5534,142.5534 0 0 1 3.16602,1.15625 c -4.3e-4,0.0016 -7.5e-4,0.0023 -0.002,0.0039 -7.52628,29.228493 -16.33744,57.266949 -27.01172,85.859372 a 52.519666,52.519666 0 0 0 -1.18164,-0.42969 c 9.92188,-28.787658 18.6016,-58.74553 25.02929,-86.589838 z m -96.75195,3.513672 1.08398,2.197266 c 8.0721,16.356841 9.93822,20.315113 15.79688,33.5 6.56895,14.783301 13.40095,31.514875 19.16992,46.898434 a 52.519666,52.519666 0 0 0 -1.15234,0.38282 C 420.6301,73.665145 407.24762,44.794144 393.69727,19.132812 a 142.5534,142.5534 0 0 1 3.02148,-1.351562 z M 504.125,18.158203 a 142.5534,142.5534 0 0 1 3.08594,1.332031 c -1.50454,4.357683 -3.06462,8.828598 -4.29297,12.220704 -8.79442,24.28628 -18.61546,48.052255 -29.46875,71.333982 a 52.519666,52.519666 0 0 0 -1.16602,-0.5625 C 484.56592,74.397719 495.05848,46.580711 504.125,18.158203 Z m -117.70898,4.234375 c 15.31097,25.431699 29.67971,52.316267 42.45703,79.513672 a 52.519666,52.519666 0 0 0 -1.12696,0.50391 C 415.4565,77.735099 401.77202,53.266318 387.1543,29.867188 c -1.06947,-1.711917 -2.42756,-3.836864 -3.74024,-5.896485 a 142.5534,142.5534 0 0 1 3.00196,-1.578125 z m 128.00976,0.582031 a 142.5534,142.5534 0 0 1 3.00781,1.453125 C 505.482,51.750781 491.80785,79.118853 477.11719,105.07617 a 52.519666,52.519666 0 0 0 -1.06446,-0.65234 C 489.96536,78.263447 503.55535,49.469091 514.42578,22.974609 Z M 376.5,27.9375 c 17.67281,24.690391 34.17328,50.381279 48.64648,75.75977 a 52.519666,52.519666 0 0 0 -1.11523,0.64062 C 408.55346,78.609077 391.724,53.697661 373.57812,29.615234 A 142.5534,142.5534 0 0 1 376.5,27.9375 Z m 147.74219,0.554688 a 142.5534,142.5534 0 0 1 2.94336,1.80664 C 513.22988,56.315394 497.29698,82.687902 480.62109,107.375 a 52.519666,52.519666 0 0 0 -1,-0.75977 c 13.45097,-20.932676 26.1342,-42.643226 37.91797,-64.943355 1.53703,-2.908744 4.06681,-7.917899 6.70313,-13.179687 z m -157.16602,5.679687 c 19.362,22.944272 37.59716,46.937016 54.41602,71.632815 a 52.519666,52.519666 0 0 0 -0.9961,0.71093 C 403.23862,82.38231 384.42476,58.831298 364.31836,36.142578 a 142.5534,142.5534 0 0 1 2.75781,-1.970703 z m 166.64649,0.617187 a 142.5534,142.5534 0 0 1 2.66601,2.025391 c -16.33358,25.377517 -34.04339,50.0847 -52.43359,73.124997 a 52.519666,52.519666 0 0 0 -0.99219,-0.7832 C 501.0802,85.389244 518.03739,60.533569 533.72266,34.789062 Z M 358.11328,41.105469 C 379.1183,62.28724 399.37552,84.94711 418.0957,108.23047 a 52.519666,52.519666 0 0 0 -0.97656,0.72851 C 398.15173,86.488654 377.32617,64.305977 355.56445,43.34375 a 142.5534,142.5534 0 0 1 2.54883,-2.238281 z m 184.55274,0.632812 a 142.5534,142.5534 0 0 1 2.49414,2.326172 c -15.79638,20.720587 -32.7772,41.138431 -49.73633,59.677737 -2.91425,3.1858 -5.64693,6.11255 -8.41211,9.04492 a 52.519666,52.519666 0 0 0 -0.89258,-0.83008 c 16.68016,-18.639171 33.57264,-39.2417 48.56445,-59.328124 2.5904,-3.470663 5.28527,-7.160851 7.98243,-10.890625 z m -192.97461,6.945313 c 22.7151,19.544212 44.74981,40.558807 65.21484,62.220706 a 52.519666,52.519666 0 0 0 -0.92578,0.8125 C 393.26735,90.788069 370.77479,70.348972 347.38672,51.160156 a 142.5534,142.5534 0 0 1 2.30469,-2.476562 z m 201.29882,0.810547 a 142.5534,142.5534 0 0 1 2.3418,2.412109 c -18.29501,20.482789 -37.17966,39.700975 -57.40039,58.40234 -2.08287,1.92635 -4.08493,3.74377 -6.0957,5.57032 a 52.519666,52.519666 0 0 0 -0.82813,-0.94532 c 21.80317,-20.76378 42.62644,-42.764236 61.98242,-65.439449 z m -209.02734,7.486328 c 7.38846,5.39689 14.67719,10.851461 21.00195,15.77539 17.77984,13.841974 32.82094,26.457437 48.91993,41.087891 a 52.519666,52.519666 0 0 0 -0.83789,0.89844 c -4.40876,-3.81349 -8.79333,-7.55549 -12.78516,-10.86524 -14.79641,-12.268233 -36.31422,-28.755353 -52.20508,-39.998044 -1.69038,-1.195948 -3.88341,-2.713992 -6.23828,-4.330078 a 142.5534,142.5534 0 0 1 2.14453,-2.568359 z m 216.58789,0.871093 a 142.5534,142.5534 0 0 1 2.24219,2.550782 c -14.14737,13.607321 -27.11515,25.199179 -42.17578,37.757812 -9.04904,7.545754 -17.50497,14.345764 -26.17774,21.035154 a 52.519666,52.519666 0 0 0 -0.75781,-1.06054 c 12.93827,-10.53097 26.22623,-21.858605 37.15234,-31.796879 9.27928,-8.440339 19.60893,-18.378327 29.7168,-28.486329 z m -223.53516,8.013672 c 25.68471,15.828406 50.5705,32.963641 74.13086,51.070316 a 52.519666,52.519666 0 0 0 -0.77148,1.01562 C 383.95817,100.11865 358.29903,83.302077 332.98242,68.539062 a 142.5534,142.5534 0 0 1 2.0332,-2.673828 z m 230.54493,0.992188 a 142.5534,142.5534 0 0 1 1.97461,2.761719 c -23.08917,18.76765 -47.23076,36.369599 -72.78125,53.021479 a 52.519666,52.519666 0 0 0 -0.60352,-1.05078 c 24.3782,-16.74679 48.43489,-35.193856 71.41016,-54.732418 z m -236.83594,8.408203 c 1.9726,1.002017 4.07022,2.062236 5.50977,2.814453 25.80641,13.484835 49.26073,27.141052 72.38671,42.177732 a 52.519666,52.519666 0 0 0 -0.66406,1.07617 C 380.2267,105.50079 353.50694,90.887378 326.9668,78.132812 a 142.5534,142.5534 0 0 1 1.75781,-2.867187 z m 243.10937,1.029297 a 142.5534,142.5534 0 0 1 1.68555,2.941406 c -9.12599,6.248634 -18.90422,12.752872 -26.64258,17.654297 -17.20116,10.895005 -32.9253,20.135725 -50.05664,29.390625 a 52.519666,52.519666 0 0 0 -0.59179,-1.06641 c 26.41369,-15.18965 51.03734,-31.133459 75.60546,-48.919918 z m -248.70312,8.847656 c 28.15861,11.652805 55.03755,24.417972 81.31055,38.662112 a 52.519666,52.519666 0 0 0 -0.64453,1.07617 C 377.22352,111.31854 349.19711,98.771551 321.68164,88.140625 a 142.5534,142.5534 0 0 1 1.44922,-2.998047 z M 577.39258,86.1875 a 142.5534,142.5534 0 0 1 1.39648,3.117188 c -25.86374,14.902082 -52.26781,28.342222 -80.25195,40.810542 a 52.519666,52.519666 0 0 0 -0.50781,-1.13671 c 15.82817,-7.50727 31.70077,-15.58409 46.48047,-23.69922 9.5548,-5.24631 21.94629,-12.473264 32.88281,-19.0918 z m -259.08789,9.167969 c 18.58487,6.054161 39.75733,13.687481 56.85742,20.576171 8.39903,3.38351 17.95883,7.46006 27.34961,11.61133 a 52.519666,52.519666 0 0 0 -0.5293,1.0957 c -27.85293,-11.47043 -58.3529,-22.35526 -84.8164,-30.160154 a 142.5534,142.5534 0 0 1 1.13867,-3.123047 z m 263.73633,1.21875 a 142.5534,142.5534 0 0 1 1.24218,3.144531 c -27.78692,13.15972 -54.54763,24.2283 -83.33398,34.375 a 52.519666,52.519666 0 0 0 -0.41016,-1.23828 c 29.53067,-11.16775 55.60664,-22.67172 82.50196,-36.281251 z M 446.75,105.04297 c 0.0313,0.0279 0.043,0.0602 0.043,0.10351 0,0.11992 0.68552,10.10628 1.52344,22.18946 l 0.0117,0.17968 a 22.508431,22.508431 0 0 0 -2.75781,0.35352 c -0.0606,-0.31143 -0.0866,-0.44513 -0.14843,-0.76172 l -4.15235,-21.29492 a 45.016859,45.016859 0 0 1 5.48047,-0.76953 z m 6.24414,0.0371 a 45.016859,45.016859 0 0 1 5.52148,0.68945 l -4.1621,21.33985 c -0.0609,0.31273 -0.0864,0.44426 -0.14649,0.75195 a 22.508431,22.508431 0 0 0 -2.75976,-0.37305 l 0.0137,-0.15234 c 0.83789,-12.0832 1.52148,-22.06745 1.52148,-22.1875 0,-0.0258 0.003,-0.0485 0.0117,-0.0684 z m -138.56836,0.89844 c 6.11163,1.47228 13.5636,3.31236 18.7168,4.6621 22.6437,5.93081 45.73648,12.99536 67.7539,20.69727 A 52.519666,52.519666 0 0 0 400.47266,132.5 c -28.49054,-9.20288 -58.44574,-17.2401 -87.07032,-23.29883 a 142.5534,142.5534 0 0 1 1.02344,-3.22265 z m 271.36328,1.28125 a 142.5534,142.5534 0 0 1 1.07422,3.23242 c -28.00155,10.6341 -56.43465,19.79407 -85.8164,27.62109 a 52.519666,52.519666 0 0 0 -0.26954,-1.19922 c 28.90446,-8.41415 56.15159,-17.89828 83.38868,-28.99218 0.85555,-0.34849 1.1419,-0.4652 1.62304,-0.66211 z m -121.23828,0.15429 a 45.016859,45.016859 0 0 1 5.10352,2.11914 l -8.59375,17.59375 v 0.002 c -0.49386,1.01101 -0.79257,1.61987 -1.26953,2.5957 a 22.508431,22.508431 0 0 0 -2.56836,-1.05078 c 3.62068,-10.55546 6.53546,-19.01802 7.32812,-21.25977 z m -29.3164,0.041 c 0.78217,2.23935 3.70761,10.7683 7.3164,21.25781 a 22.508431,22.508431 0 0 0 -2.53711,1.0625 c -0.68231,-1.39579 -0.59651,-1.21382 -1.3164,-2.6875 l -8.56641,-17.5332 a 45.016859,45.016859 0 0 1 5.10352,-2.09961 z m 39.83984,5.1582 a 45.016859,45.016859 0 0 1 4.38867,3.38281 c -4.61702,5.30666 -9.61662,11.06401 -14.75977,16.99219 a 22.508431,22.508431 0 0 0 -2.21484,-1.70898 c 1.03758,-1.53722 1.61123,-2.37492 2.75195,-4.06836 z m -50.32227,0.0723 9.78125,14.52343 c 1.15213,1.71036 1.73245,2.55849 2.7793,4.10938 a 22.508431,22.508431 0 0 0 -2.19922,1.7168 c -5.13173,-5.91511 -10.11673,-11.65315 -14.73633,-16.96289 a 45.016859,45.016859 0 0 1 4.375,-3.38672 z m -113.3125,4.20312 c 1.00617,0.15853 1.69542,0.2677 3.33203,0.52149 26.10732,4.04849 58.5069,10.87886 84.78516,17.84765 a 52.519666,52.519666 0 0 0 -0.31055,1.21875 c -28.75104,-6.81981 -58.8319,-12.36544 -88.63671,-16.33203 a 142.5534,142.5534 0 0 1 0.83007,-3.25586 z m 277.30274,1.3418 a 142.5534,142.5534 0 0 1 0.74609,3.31836 c -28.41656,8.29555 -58.31544,15.34893 -87.64062,20.70117 a 52.519666,52.519666 0 0 0 -0.15235,-1.25195 c 29.68724,-6.14384 58.1691,-13.56766 85.84571,-22.37891 0.61133,-0.19462 0.78557,-0.25458 1.20117,-0.38867 z m -104.86914,2.21094 a 45.016859,45.016859 0 0 1 3.38281,4.38671 l -14.57813,9.82032 c -1.6899,1.13835 -2.52426,1.71044 -4.05859,2.74609 a 22.508431,22.508431 0 0 0 -1.70898,-2.2168 c 5.91954,-5.13561 11.66189,-10.12427 16.96289,-14.73632 z m -67.92774,0.0391 c 5.30889,4.61741 11.07112,9.62365 16.99219,14.75976 a 22.508431,22.508431 0 0 0 -1.69922,2.21485 c -1.54137,-1.0401 -2.38576,-1.6201 -4.08398,-2.76367 l -14.57813,-9.81836 a 45.016859,45.016859 0 0 1 3.36914,-4.39258 z m -106.66992,7.47851 c 5.11302,0.36341 15.08457,1.2295 22.59375,1.98829 21.58825,2.18146 45.10667,5.48591 66.65625,9.3457 a 52.519666,52.519666 0 0 0 -0.20898,1.22851 c -26.20526,-4.04002 -54.11883,-7.10211 -78.99805,-8.57421 -4.55427,-0.26945 -8.38683,-0.5162 -10.54688,-0.66602 a 142.5534,142.5534 0 0 1 0.50391,-3.32227 z m 281.59766,1.4629 a 142.5534,142.5534 0 0 1 0.40234,3.3125 l -7.29101,1.46484 c -26.15093,5.25318 -53.50552,9.32778 -81.64649,12.1875 a 52.519666,52.519666 0 0 0 -0.13867,-1.25586 c 29.39994,-3.677 57.83846,-8.64576 84.8457,-14.85156 1.77484,-0.40783 2.61494,-0.58844 3.82813,-0.85742 z M 490.375,130.22266 a 45.016859,45.016859 0 0 1 2.09375,5.11718 c -1.89182,0.66508 -8.86142,3.07486 -19.64063,6.78321 -0.87954,0.30258 -0.7535,0.25714 -1.60742,0.55078 a 22.508431,22.508431 0 0 0 -1.06445,-2.56836 c 1.3746,-0.67182 1.19266,-0.58665 2.64258,-1.29492 z m -80.87305,0.0781 c 3.83345,1.8563 10.34576,5.02936 20.20117,9.8418 a 22.508431,22.508431 0 0 0 -1.04296,2.56836 c -0.88836,-0.30542 -0.75938,-0.25702 -1.67578,-0.57227 l -19.5918,-6.74023 a 45.016859,45.016859 0 0 1 2.10937,-5.09766 z m -101.5664,8.73438 1.83203,0.002 c 22.16109,0.0269 53.26726,1.32502 74.30664,3.10156 4.13422,0.34907 8.87681,0.8015 13.80273,1.30274 a 52.519666,52.519666 0 0 0 -0.17578,1.16211 c -22.59295,-1.67711 -45.72279,-2.39866 -71.19726,-2.24805 l -18.74024,0.11328 a 142.5534,142.5534 0 0 1 0.17188,-3.43359 z m 284.23437,1.67968 a 142.5534,142.5534 0 0 1 0.11914,3.35547 c -22.75052,2.95906 -51.26049,5.19288 -81.42773,6.35938 -0.66646,0.0259 -3.98309,0.0466 -8.42578,0.0625 a 52.519666,52.519666 0 0 0 0.0273,-0.54883 52.519666,52.519666 0 0 0 -0.0215,-0.61133 c 17.74038,-0.76081 32.37374,-1.85917 49.3457,-3.5918 11.54356,-1.17844 32.7825,-3.84372 40.38281,-5.02539 z m -98.07031,0.66211 a 45.016859,45.016859 0 0 1 0.75195,5.53125 l -0.3164,0.004 c -0.23199,0.004 -10.01887,0.68182 -21.74805,1.50586 -0.22208,0.0157 -0.19136,0.0116 -0.41211,0.0273 a 22.508431,22.508431 0 0 0 -0.33984,-2.76562 c 0.30515,-0.0595 0.43598,-0.0841 0.74609,-0.14453 z m -88.33594,0.0234 c 0.59901,0.11145 9.941,1.93179 21.65235,4.2168 0.18247,0.0356 0.2586,0.0487 0.43945,0.084 a 22.508431,22.508431 0 0 0 -0.36719,2.74805 c -0.17826,-0.0122 -0.14688,-0.0108 -0.32617,-0.0234 -12.04963,-0.83556 -21.98343,-1.52148 -22.07227,-1.52148 -0.006,0 -0.008,-0.006 -0.0117,-0.008 a 45.016859,45.016859 0 0 1 0.68555,-5.49609 z m 44.17969,0.73828 v 0.002 a 7.802922,7.802922 0 0 1 7.68945,6.47657 7.802922,7.802922 0 0 1 0.11328,1.32812 7.802922,7.802922 0 0 1 -0.15429,1.54883 7.802922,7.802922 0 0 1 0,0.002 7.802922,7.802922 0 0 1 -0.0508,0.19336 7.802922,7.802922 0 0 1 -0.14454,0.5625 7.802922,7.802922 0 0 1 -1.01171,2.09766 7.802922,7.802922 0 0 1 -0.002,0.002 7.802922,7.802922 0 0 1 -1.0039,1.19141 7.802922,7.802922 0 0 1 -0.84961,0.70508 7.802922,7.802922 0 0 1 -1.75977,0.9707 7.802922,7.802922 0 0 1 -0.73828,0.24414 7.802922,7.802922 0 0 1 -0.76172,0.17188 7.802922,7.802922 0 0 1 -0.77539,0.0937 7.802922,7.802922 0 0 1 -0.55078,0.0195 7.802922,7.802922 0 0 1 -3.03906,-0.61524 7.802922,7.802922 0 0 1 -0.70118,-0.33984 7.802922,7.802922 0 0 1 -3.94921,-5.52149 7.802922,7.802922 0 0 1 -0.11329,-1.32617 7.802922,7.802922 0 0 1 0.0391,-0.77734 7.802922,7.802922 0 0 1 0,-0.002 7.802922,7.802922 0 0 1 0.11719,-0.77149 7.802922,7.802922 0 0 1 0.45898,-1.48828 7.802922,7.802922 0 0 1 0,-0.002 7.802922,7.802922 0 0 1 0.33984,-0.69922 7.802922,7.802922 0 0 1 0,-0.002 7.802922,7.802922 0 0 1 0.87891,-1.28515 7.802922,7.802922 0 0 1 0,-0.002 7.802922,7.802922 0 0 1 0.49609,-0.53125 7.802922,7.802922 0 0 1 0.0352,-0.0371 7.802922,7.802922 0 0 1 0.002,-0.002 7.802922,7.802922 0 0 1 0.95508,-0.77929 7.802922,7.802922 0 0 1 0.94141,-0.57618 7.802922,7.802922 0 0 1 2.21093,-0.73828 7.802922,7.802922 0 0 1 0.77539,-0.0918 7.802922,7.802922 0 0 1 0.55274,-0.0215 z m -69.50586,5.45117 c 6.51893,-0.002 12.09238,0.0202 17.09961,0.0703 a 52.519666,52.519666 0 0 0 -0.0644,1.29101 c -9.51999,0.007 -18.1663,0.0775 -22.67578,0.22852 -23.40033,0.78309 -47.70103,2.46506 -65.66407,4.54687 -0.82629,0.0957 -0.9236,0.11299 -1.60156,0.19336 a 142.5534,142.5534 0 0 1 -0.12305,-3.43945 c 1.29774,-0.0955 2.22121,-0.15664 4.52149,-0.34766 22.72698,-1.88829 40.13866,-2.53336 68.50781,-2.54297 z m 47.07812,3.96094 a 22.508431,22.508431 0 0 0 0.34961,2.7461 c -0.18458,0.0359 -0.26295,0.0496 -0.44921,0.0859 -11.69029,2.28086 -20.98056,4.08922 -21.61133,4.20899 a 45.016859,45.016859 0 0 1 -0.76563,-5.46289 c 0.015,-0.022 0.0314,-0.0332 0.0508,-0.0332 0.0888,0 10.05147,-0.68532 22.13672,-1.52343 z m 44.87696,0.01 0.15625,0.01 c 12.08527,0.8381 22.07133,1.52539 22.1914,1.52539 0.024,0 0.0436,0.002 0.0625,0.008 a 45.016859,45.016859 0 0 1 -0.69921,5.51953 l -21.32422,-4.15821 c -0.32302,-0.0629 -0.45971,-0.0885 -0.77735,-0.15039 a 22.508431,22.508431 0 0 0 0.39063,-2.7539 z m -74.90625,0.16601 a 52.519666,52.519666 0 0 0 0.0449,1.22071 c -16.69603,1.39049 -32.05389,3.14763 -49.10937,5.5664 -11.62528,1.64869 -31.66142,4.96482 -39.28907,6.50391 -0.39316,0.0793 -0.42865,0.0855 -0.76172,0.15234 a 142.5534,142.5534 0 0 1 -0.41211,-3.39844 c 26.57214,-4.55409 59.74342,-8.21849 89.52735,-10.04492 z m 194.9082,0.27149 a 142.5534,142.5534 0 0 1 -0.17383,3.45703 c -1.73435,0.0329 -5.57599,0.15906 -8.7832,0.29101 -9.55367,0.39374 -50.94322,0.4058 -61.11719,0.0176 -6.29585,-0.24031 -13.2192,-0.59342 -20.09765,-1 a 52.519666,52.519666 0 0 0 0.0605,-1.23828 c 5.74578,0.14592 12.37684,0.22725 22.25977,0.30859 15.82821,0.13028 28.86004,0.0503 36.56055,-0.2246 11.47632,-0.4098 26.3888,-1.18356 31.29101,-1.61133 z m -194.57226,3.85937 a 52.519666,52.519666 0 0 0 0.15429,1.27539 c -25.71591,4.22761 -49.02881,9.12396 -73.38476,15.35352 -5.71848,1.46265 -11.79212,3.06314 -14.64258,3.84765 a 142.5534,142.5534 0 0 1 -0.62305,-3.29492 c 5.29444,-1.33697 14.12138,-3.44674 20.72461,-4.91601 22.31441,-4.96518 44.86564,-9.04391 67.77149,-12.26563 z m 30.86914,1.42774 a 22.508431,22.508431 0 0 0 1.0625,2.54882 c -0.98751,0.48288 -1.60307,0.78683 -2.62696,1.28711 h -0.002 c -9.64368,4.71188 -14.60472,7.11893 -17.60352,8.56836 a 45.016859,45.016859 0 0 1 -2.08984,-5.09765 l 19.59961,-6.73633 c 0.64627,-0.22211 1.02749,-0.35299 1.66016,-0.57031 z m 42.49218,0.0312 c 9.59835,3.28823 18.52598,6.35879 21.26172,7.31445 a 45.016859,45.016859 0 0 1 -2.13281,5.10937 c -3.02121,-1.47685 -7.95929,-3.89112 -17.60742,-8.60156 -1.00477,-0.49055 -1.61013,-0.78588 -2.58008,-1.25976 a 22.508431,22.508431 0 0 0 1.05859,-2.5625 z m 30.63477,0.39648 c 26.77429,3.07855 53.69423,4.8698 82.98437,5.54883 l 7.01954,0.16211 a 142.5534,142.5534 0 0 1 -0.41211,3.23828 l -3.69727,-0.11914 c -26.1503,-0.83848 -57.05234,-3.60984 -86.07617,-7.61719 a 52.519666,52.519666 0 0 0 0.18164,-1.21289 z m -103.38867,2.23633 a 52.519666,52.519666 0 0 0 0.2832,1.25781 c -30.26567,7.52997 -60.11983,16.5662 -86.28125,26.17578 a 142.5534,142.5534 0 0 1 -0.74219,-3.29687 l 5.17383,-1.68164 c 28.99603,-9.43504 54.33574,-16.41406 81.56641,-22.45508 z m 102.61719,1.87305 c 27.69887,5.44417 55.63579,9.51863 84.375,12.30664 2.5544,0.24781 3.43513,0.32557 4.79101,0.45117 a 142.5534,142.5534 0 0 1 -0.5,3.30469 c -1.29308,-0.15097 -2.18422,-0.25704 -4.27344,-0.49805 -27.2209,-3.1403 -56.0729,-8.05658 -84.6914,-14.39063 a 52.519666,52.519666 0 0 0 0.29883,-1.17382 z m -69.76368,0.69531 a 22.508431,22.508431 0 0 0 1.70313,2.20312 c -5.90768,5.12446 -11.65329,10.11278 -16.96485,14.73242 a 45.016859,45.016859 0 0 1 -3.37695,-4.37304 l 14.50977,-9.77149 c 1.71673,-1.15603 2.57251,-1.74078 4.1289,-2.79101 z m 37.27344,0.0469 c 1.55556,1.05002 2.40493,1.63305 4.12109,2.78907 l 14.54883,9.79882 a 45.016859,45.016859 0 0 1 -3.39258,4.37305 c -5.3147,-4.62442 -11.06505,-9.61881 -16.98828,-14.75781 a 22.508431,22.508431 0 0 0 1.71094,-2.20313 z m -69.2168,1.4375 a 52.519666,52.519666 0 0 0 0.39649,1.19336 c -28.49795,9.56002 -57.30136,20.86974 -83.81055,32.9336 a 142.5534,142.5534 0 0 1 -1.06445,-3.20508 c 3.56056,-1.51567 7.44291,-3.15314 11.00586,-4.61914 21.7712,-8.95792 48.87581,-18.69914 71.66992,-25.75586 0.55493,-0.17181 1.21582,-0.36734 1.80273,-0.54688 z m 100.63868,1.84571 c 4.08319,1.15325 8.05228,2.25018 11.66015,3.21093 23.79671,6.33675 52.86399,12.63436 76.13672,16.57032 a 142.5534,142.5534 0 0 1 -0.83594,3.26953 c -0.83759,-0.16807 -1.41505,-0.28641 -2.92968,-0.58594 -28.272,-5.59099 -56.15334,-12.62099 -84.45704,-21.30273 a 52.519666,52.519666 0 0 0 0.42579,-1.16211 z m -64.80469,1.04492 a 22.508431,22.508431 0 0 0 2.20508,1.70312 c -1.05243,1.55967 -1.64004,2.41788 -2.79883,4.13868 l -9.78516,14.52929 a 45.016859,45.016859 0 0 1 -4.37695,-3.37695 c 4.62476,-5.31743 9.62363,-11.07751 14.75586,-16.99414 z m 29.48437,0.0664 c 5.12773,5.91137 10.12081,11.66258 14.73242,16.96485 a 45.016859,45.016859 0 0 1 -4.38671,3.375 l -9.80664,-14.56641 c -1.14219,-1.6962 -1.72075,-2.53834 -2.75977,-4.07812 a 22.508431,22.508431 0 0 0 2.2207,-1.69532 z m -64.00586,0.98633 a 52.519666,52.519666 0 0 0 0.42383,1.21289 c -11.31498,4.82746 -22.85425,9.98329 -32.93164,14.76368 -14.3724,6.81782 -33.1329,16.50443 -47.94336,24.65234 a 142.5534,142.5534 0 0 1 -1.36133,-3.03711 c 2.68381,-1.40529 5.38518,-2.82178 8.30078,-4.31641 22.79321,-11.68435 48.59547,-23.34802 73.51172,-33.27539 z m 97.89258,1.82422 c 28.34393,10.3838 58.83446,19.89535 85.96485,26.74219 a 142.5534,142.5534 0 0 1 -1.14844,3.14844 c -28.09296,-7.81407 -57.38122,-17.69302 -85.30274,-28.73243 a 52.519666,52.519666 0 0 0 0.48633,-1.1582 z m -58.49219,0.37695 a 22.508431,22.508431 0 0 0 2.54883,1.04688 c -3.52141,10.27937 -6.46379,18.83793 -7.3125,21.26367 a 45.016859,45.016859 0 0 1 -5.08984,-2.11719 c 2.23635,-4.60603 5.79147,-11.89056 9.85351,-20.19336 z m 19.68555,0.0312 c 4.08194,8.34378 7.64761,15.64799 9.86914,20.22461 a 45.016859,45.016859 0 0 1 -5.11719,2.08594 l -6.74804,-19.63281 c -0.21728,-0.63189 -0.34405,-1.00414 -0.55664,-1.62305 a 22.508431,22.508431 0 0 0 2.55273,-1.05469 z m -57.46094,1.66797 a 52.519666,52.519666 0 0 0 0.49219,1.09766 c -2.11336,1.0935 -4.34189,2.24004 -5.96289,3.10352 -23.81127,12.68393 -48.95884,27.70495 -71.56055,42.64843 a 142.5534,142.5534 0 0 1 -1.65234,-2.88086 c 6.32581,-3.98022 13.06165,-8.15546 18.51563,-11.40429 8.81851,-5.25298 23.2647,-13.42942 32.87109,-18.60743 6.1601,-3.32037 17.30831,-8.9903 27.29687,-13.95703 z m 43.31641,0.16211 a 22.508431,22.508431 0 0 0 2.74219,0.38867 l -0.0195,0.26563 c -0.83809,12.08532 -1.52344,22.04593 -1.52344,22.13477 l 0.002,0.002 c 0,0.002 -0.004,9e-4 -0.004,0.004 a 45.016859,45.016859 0 0 1 -5.49805,-0.69335 c 0.11405,-0.6118 1.92763,-9.93184 4.21094,-21.63477 0.0374,-0.19283 0.0525,-0.27397 0.0898,-0.46484 z m 8.59375,0.0312 h 0.002 c 0.0345,0.17763 0.0491,0.25426 0.084,0.4336 2.28337,11.70286 4.09295,21.02303 4.20898,21.63476 a 45.016859,45.016859 0 0 1 -5.45703,0.74414 c -0.0269,-0.0159 -0.043,-0.0337 -0.043,-0.0547 0,-0.089 -0.68544,-10.0514 -1.52344,-22.13672 l -0.0215,-0.28321 a 22.508431,22.508431 0 0 0 2.75,-0.33789 z m 42.57227,1.58008 c 26.74256,12.34744 54.37572,23.36556 83.72461,33.4082 a 142.5534,142.5534 0 0 1 -1.48243,3.07032 c -5.73684,-2.11726 -11.7631,-4.3732 -15.7539,-5.93164 -23.00878,-8.98506 -44.98556,-18.65762 -67.00196,-29.48047 a 52.519666,52.519666 0 0 0 0.51368,-1.06641 z m -92.62891,1.87695 a 52.519666,52.519666 0 0 0 0.61328,1.07032 c -25.10131,15.82441 -50.39,33.6225 -73.70703,51.86132 a 142.5534,142.5534 0 0 1 -1.82813,-2.82421 c 23.91774,-17.8289 49.19978,-34.74826 74.92188,-50.10743 z m 90.60937,1.73633 c 26.2529,14.72164 53.48483,28.20819 80.80274,40.0293 a 142.5534,142.5534 0 0 1 -1.66406,2.92969 C 545.97958,207.32064 520.00033,193.6976 494.08984,178.29492 a 52.519666,52.519666 0 0 0 0.65039,-1.0625 z m -88.45898,1.83008 a 52.519666,52.519666 0 0 0 0.69922,0.97852 c -23.63938,17.68603 -47.27389,37.33111 -69.3457,57.61523 a 142.5534,142.5534 0 0 1 -1.97266,-2.75977 c 22.77544,-20.04731 45.8342,-38.28612 70.61914,-55.83398 z m 86.15625,1.65625 c 24.7667,16.6272 50.66113,32.11514 77.28906,46.24414 a 142.5534,142.5534 0 0 1 -1.79492,2.92773 c -25.67252,-14.40397 -51.87554,-30.96418 -76.25,-48.17773 a 52.519666,52.519666 0 0 0 0.75586,-0.99414 z m -83.75977,1.69727 a 52.519666,52.519666 0 0 0 0.79493,0.9375 c -22.30074,19.58631 -43.8946,40.67207 -64.44727,62.88476 a 142.5534,142.5534 0 0 1 -2.22656,-2.53711 c 2.81587,-2.88897 5.69011,-5.81093 8.71094,-8.83594 19.25927,-19.28609 37.24863,-35.83051 57.16796,-52.44921 z m 81.19532,1.61914 c 23.18014,18.38066 47.91013,35.97417 73.32812,52.18554 a 142.5534,142.5534 0 0 1 -2.04687,2.68946 c -25.34683,-17.00632 -49.2395,-34.87324 -72.12891,-53.9668 a 52.519666,52.519666 0 0 0 0.84766,-0.9082 z m -78.45508,1.53125 v 0.002 a 52.519666,52.519666 0 0 0 0.80469,0.91602 c -20.5401,21.19929 -40.77569,44.34403 -59.24024,67.71484 a 142.5534,142.5534 0 0 1 -2.4707,-2.30078 c 19.04154,-23.02881 39.41423,-45.22591 60.90625,-66.33203 z m 75.60351,1.52929 c 2.04968,1.92629 4.01868,3.7573 5.83008,5.41602 19.65162,17.99522 41.3976,36.03651 63.12891,52.48242 a 142.5534,142.5534 0 0 1 -2.29883,2.4668 c -23.62798,-18.76669 -42.90297,-35.69771 -66.09766,-58.09766 -0.42807,-0.4134 -0.96191,-0.94149 -1.43554,-1.4043 a 52.519666,52.519666 0 0 0 0.87304,-0.86328 z m -72.65039,1.39844 a 52.519666,52.519666 0 0 0 0.89649,0.83398 c -18.83109,22.73107 -36.92919,47.10519 -53.7168,72.26563 a 142.5534,142.5534 0 0 1 -2.69922,-2.05469 c 17.16524,-24.4623 35.77837,-48.29311 55.51953,-71.04492 z m 69.59571,1.38086 c 20.23156,22.07208 41.98888,43.50651 64.1914,63.29883 a 142.5534,142.5534 0 0 1 -2.53711,2.22851 c -21.90544,-20.43453 -42.88312,-42.10106 -62.59765,-64.69922 a 52.519666,52.519666 0 0 0 0.94336,-0.82812 z m -66.45313,1.30469 a 52.519666,52.519666 0 0 0 0.98828,0.75195 c -13.74928,19.60759 -26.9007,40.07699 -38.78906,60.41992 -3.20039,5.4764 -6.07876,10.5528 -9.08203,15.96875 a 142.5534,142.5534 0 0 1 -2.77734,-1.9375 c 15.26281,-25.94252 31.77555,-50.96362 49.66015,-75.20312 z m 63.14063,1.28906 c 18.21992,23.39351 38.12005,46.37047 59.00781,68.16992 a 142.5534,142.5534 0 0 1 -2.70117,2.11133 c -5.27563,-5.74351 -10.24425,-11.32121 -15.83594,-17.77734 -13.97419,-16.13454 -28.34579,-34.12194 -41.46289,-51.79493 a 52.519666,52.519666 0 0 0 0.99219,-0.70898 z m -59.78711,1.17578 a 52.519666,52.519666 0 0 0 1.03906,0.63672 c -14.94734,25.4655 -29.28448,52.98248 -41.64063,79.94727 a 142.5534,142.5534 0 0 1 -2.87109,-1.76172 c 13.34924,-27.49831 27.52794,-53.23384 43.47266,-78.82227 z m 56.32812,1.13672 v 0.002 c 16.24157,24.70834 34.25568,49.21514 53.33008,72.57032 a 142.5534,142.5534 0 0 1 -2.79492,1.99804 c -18.08609,-23.24525 -35.57135,-48.31407 -51.58789,-73.96484 a 52.519666,52.519666 0 0 0 1.05273,-0.60547 z m -52.79687,1.02734 a 52.519666,52.519666 0 0 0 1.07812,0.57032 c -12.87961,26.60342 -25.10937,55.41543 -35.12109,82.89648 a 142.5534,142.5534 0 0 1 -3.01367,-1.45508 c 0.78272,-1.99882 1.56201,-3.99986 2.36132,-6.00586 10.31003,-25.87307 21.81544,-51.07373 34.69532,-76.00586 z m 49.19531,1.01758 c 14.6714,26.74232 30.20856,51.85954 47.31641,76.54492 a 142.5534,142.5534 0 0 1 -2.88282,1.6543 c -4.30752,-6.54792 -8.58606,-13.11698 -10.69336,-16.49023 -12.66415,-20.27205 -23.96742,-40.11365 -34.86914,-61.20313 a 52.519666,52.519666 0 0 0 1.12891,-0.50586 z m -45.48242,0.82422 a 52.519666,52.519666 0 0 0 1.11328,0.53711 c -10.77387,27.63833 -20.72257,57.46998 -28.4043,85.39062 a 142.5534,142.5534 0 0 1 -3.16406,-1.15624 c 1.3341,-4.37516 2.7874,-9.08722 4.07813,-13.1543 7.56277,-23.83078 16.49354,-48.04598 26.37695,-71.61719 z m 41.66406,0.88477 c 1.85899,4.17665 3.65844,8.15453 5.26367,11.61523 4.38132,9.44561 16.67174,33.92881 21.82422,43.47461 3.75851,6.96331 9.2214,16.65762 14.03711,25.02148 a 142.5534,142.5534 0 0 1 -3.09961,1.38672 C 493.46503,253.90877 480.29433,226.68496 468.625,199.00781 a 52.519666,52.519666 0 0 0 1.15039,-0.47265 z m -37.82422,0.67968 a 52.519666,52.519666 0 0 0 1.18164,0.4336 c -8.35883,27.55189 -15.28121,55.38554 -20.84375,83.80664 -0.36249,1.85204 -0.51345,2.60178 -0.71875,3.63476 a 142.5534,142.5534 0 0 1 -3.27343,-0.83593 c 6.07227,-28.20375 14.40852,-58.78928 23.65429,-87.03907 z m 33.88867,0.72071 c 10.14873,28.46136 21.49538,55.6831 34.69532,83.22656 a 142.5534,142.5534 0 0 1 -3.23633,1.07422 C 484.96955,256.83592 474.13299,229.0053 464.66797,200.32622 a 52.519666,52.519666 0 0 0 1.17187,-0.39062 z m -29.94922,0.55664 a 52.519666,52.519666 0 0 0 1.2129,0.31054 c -5.88767,27.10929 -10.58651,55.17284 -13.90235,83.20313 -0.36751,3.10696 -0.49196,4.23926 -0.66797,5.78711 a 142.5534,142.5534 0 0 1 -3.27734,-0.74219 c 0.0435,-0.32431 0.0602,-0.44964 0.11523,-0.86523 3.59744,-27.18397 9.70434,-59.45522 16.51953,-87.69336 z m 25.95508,0.54101 c 7.9842,29.58482 17.17385,57.77732 27.90821,85.71094 a 142.5534,142.5534 0 0 1 -3.26172,0.91211 c -9.87835,-27.57664 -18.62826,-56.83755 -25.84375,-86.35547 a 52.519666,52.519666 0 0 0 1.19726,-0.26758 z m -21.86328,0.45508 a 52.519666,52.519666 0 0 0 1.20117,0.18164 c -3.42878,25.33266 -5.79035,51.15326 -6.89453,75.7832 -0.20616,4.60211 -0.47376,10.53628 -0.59375,13.1875 l -0.0371,0.83399 a 142.5534,142.5534 0 0 1 -3.27343,-0.49414 c 0.095,-2.02467 0.23942,-4.66979 0.43945,-7.72656 1.83935,-28.11497 4.78616,-54.36933 9.1582,-81.76563 z m 17.77344,0.3457 c 0.53127,2.93246 1.01968,5.54559 1.45508,7.76954 5.09085,26.00416 12.1853,54.88908 19.5332,79.79296 a 142.5534,142.5534 0 0 1 -3.29883,0.74219 c -0.17114,-0.63557 -0.28622,-1.06885 -0.47656,-1.77148 -7.22329,-26.66477 -13.67786,-57.02179 -18.43945,-86.38281 a 52.519666,52.519666 0 0 0 1.22656,-0.1504 z m -13.66016,0.2754 a 52.519666,52.519666 0 0 0 1.1836,0.12109 c -0.16176,2.71547 -0.32336,5.47445 -0.47461,8.2832 -0.93147,17.29982 -0.78294,69.04646 0.20703,81.73633 a 142.5534,142.5534 0 0 1 -3.39649,-0.16992 l -0.16796,-9.80664 c -0.23528,-13.63423 0.17148,-39.25338 0.83203,-52.29688 0.45506,-8.98654 1.09369,-18.61486 1.8164,-27.86718 z m 9.5293,0.2246 c 2.37101,22.63027 5.54453,44.72134 9.58984,66.78125 1.17661,6.41651 3.24544,16.88325 4.34375,22.11133 a 142.5534,142.5534 0 0 1 -3.35156,0.40625 l -0.084,-0.44531 c -5.27997,-28.27351 -9.28997,-58.74553 -11.73438,-88.81055 a 52.519666,52.519666 0 0 0 1.23633,-0.043 z m -5.24609,0.0508 a 52.519666,52.519666 0 0 0 1.07226,0.0547 c 0.46845,19.3501 1.48354,36.90744 3.23047,56.45899 0.977,10.93441 2.75123,27.1637 3.61133,33.37304 a 142.5534,142.5534 0 0 1 -3.37109,0.11914 c -0.15132,-1.60757 -0.28127,-3.00529 -0.625,-6.5039 -1.5673,-15.95344 -2.61986,-31.16866 -3.52344,-50.99805 -0.2554,-5.61108 -0.38678,-19.12039 -0.39453,-32.5039 z" />
    <animateTransform
      attributeName="transform"
      begin="1s"
      dur="1s"
      type="translate"
      to="-150 10"
      fill="freeze"
      repeatCount="0" />
  </g>
</svg>
